<?xml version="1.0" ?><!DOCTYPE svg  PUBLIC '-//W3C//DTD SVG 1.1//EN'  'http://www.w3.org/Graphics/SVG/1.1/DTD/svg11.dtd'><!-- Uploaded to: SVG Repo, www.svgrepo.com, Generator: SVG Repo Mixer Tools -->
<svg fill="#000000" width="800px" height="800px" viewBox="0 0 32 32" style="fill-rule:evenodd;clip-rule:evenodd;stroke-linejoin:round;stroke-miterlimit:2;" version="1.1" xml:space="preserve" xmlns="http://www.w3.org/2000/svg" xmlns:serif="http://www.serif.com/" xmlns:xlink="http://www.w3.org/1999/xlink"><path d="M24.336,5.414l-0.003,0.001c-0.687,0.397 -1.535,0.397 -2.222,0c-0.687,-0.396 -1.111,-1.13 -1.111,-1.924l0,-0.003c-0,-0.622 -0.247,-1.218 -0.687,-1.658c-0.439,-0.439 -1.035,-0.686 -1.657,-0.686c-1.477,-0 -3.835,-0 -5.312,-0c-0.622,-0 -1.218,0.247 -1.657,0.686c-0.44,0.44 -0.687,1.036 -0.687,1.658l0,0.003c0,0.794 -0.424,1.528 -1.111,1.924c-0.687,0.397 -1.535,0.397 -2.222,0l-0.003,-0.001c-0.538,-0.311 -1.178,-0.395 -1.779,-0.234c-0.6,0.16 -1.112,0.553 -1.423,1.092c-0.738,1.279 -1.918,3.321 -2.656,4.6c-0.311,0.538 -0.395,1.178 -0.234,1.779c0.161,0.6 0.554,1.112 1.092,1.423l0.003,0.002c0.687,0.397 1.111,1.13 1.111,1.924c-0,0.794 -0.424,1.527 -1.111,1.924l-0.003,0.002c-0.538,0.311 -0.931,0.823 -1.092,1.423c-0.161,0.601 -0.077,1.241 0.234,1.779c0.738,1.279 1.918,3.321 2.656,4.6c0.311,0.539 0.823,0.932 1.423,1.092c0.601,0.161 1.241,0.077 1.779,-0.234l0.003,-0.001c0.687,-0.397 1.535,-0.397 2.222,-0c0.687,0.396 1.111,1.13 1.111,1.924l-0,0.003c0,0.622 0.247,1.218 0.687,1.658c0.439,0.439 1.035,0.686 1.657,0.686c1.477,0 3.835,0 5.312,0c0.622,0 1.218,-0.247 1.657,-0.686c0.44,-0.44 0.687,-1.036 0.687,-1.658l-0,-0.003c-0,-0.794 0.424,-1.528 1.111,-1.924c0.687,-0.397 1.535,-0.397 2.222,-0l0.003,0.001c0.538,0.311 1.178,0.395 1.779,0.234c0.6,-0.16 1.112,-0.553 1.423,-1.092c0.738,-1.279 1.918,-3.321 2.656,-4.6c0.311,-0.538 0.395,-1.178 0.234,-1.779c-0.161,-0.6 -0.554,-1.112 -1.092,-1.423l-0.003,-0.002c-0.687,-0.397 -1.111,-1.13 -1.111,-1.924c0,-0.794 0.424,-1.527 1.111,-1.924l0.003,-0.002c0.538,-0.311 0.931,-0.823 1.092,-1.423c0.161,-0.601 0.077,-1.241 -0.234,-1.779c-0.738,-1.279 -1.918,-3.321 -2.656,-4.6c-0.311,-0.539 -0.823,-0.932 -1.423,-1.092c-0.601,-0.161 -1.241,-0.077 -1.779,0.234Zm-8.336,3.586c-3.863,0 -7,3.137 -7,7c0,3.863 3.137,7 7,7c3.863,0 7,-3.137 7,-7c0,-3.863 -3.137,-7 -7,-7Z"/><g id="Icon"/></svg>