<svg width="106" height="24" viewBox="0 0 106 24" fill="none" xmlns="http://www.w3.org/2000/svg">
<rect width="105.818" height="24" rx="2" fill="black"/>
<path d="M13.7258 8.27983H16.0056C15.9311 5.78693 13.7471 3.99716 10.615 3.99716C7.49355 3.99716 5.1285 5.76562 5.11784 8.42898C5.1285 10.581 6.66259 11.8381 9.14483 12.5199L10.9772 13.0099C12.6072 13.4467 13.8856 13.9901 13.8963 15.3324C13.8856 16.8452 12.458 17.8359 10.4872 17.8466C8.68673 17.8359 7.19526 17.0369 7.05676 15.3537H4.71301C4.86216 18.1662 7.03546 19.892 10.4872 19.892C14.1306 19.892 16.208 17.9851 16.2187 15.375C16.208 12.5838 13.7365 11.5078 11.7656 11.0284L10.2741 10.6236C9.04895 10.3359 7.46159 9.76065 7.46159 8.30114C7.47225 6.99077 8.66543 6.02131 10.5511 6.02131C12.3195 6.02131 13.5766 6.84162 13.7258 8.27983Z" fill="white"/>
<path d="M23.9531 8.06676H21.588V5.29687H19.3295V8.06676H17.6249V9.87784H19.3295V16.696C19.3082 18.8054 20.9168 19.7855 22.696 19.7855C23.3245 19.7855 23.8146 19.7429 24.1235 19.7003V17.7187C23.8039 17.7507 23.3032 17.7827 22.973 17.7827C22.2379 17.772 21.5987 17.5376 21.588 16.2273V9.87784H23.9531V8.06676Z" fill="white"/>
<path d="M25.6363 16.3764C25.6257 18.6349 27.3409 19.892 29.5355 19.892C31.4531 19.892 32.5184 18.9226 32.9659 18.0597H33.0511V19.6364H35.267V11.9446C35.2563 8.58878 32.5717 7.91761 30.7286 7.91761C27.9907 7.91761 26.2009 9.30256 25.9985 11.2202H28.257C28.4914 10.3679 29.3011 9.75 30.6434 9.75C32.1882 9.75 32.9978 10.5064 32.9872 11.8168L32.9978 12.7436C32.4651 12.7649 30.7286 12.8608 29.9616 12.9034C27.8735 13.0526 25.6257 13.7344 25.6363 16.3764ZM27.8522 16.3977C27.8522 15.2578 28.7897 14.6932 30.2812 14.5866C30.8245 14.5547 32.4758 14.4375 32.9978 14.4055L33.0085 15.4602C33.0085 16.8345 31.9005 18.0703 30.0468 18.081C28.7684 18.0703 27.8522 17.5057 27.8522 16.3977Z" fill="white"/>
<path d="M42.9161 19.8707C45.6434 19.8707 47.4225 18.2195 47.6676 15.9716H45.4517C45.164 17.218 44.2052 17.9425 42.9161 17.9318C41.0092 17.9425 39.784 16.3764 39.784 13.8409C39.784 11.38 41.0411 9.82457 42.9161 9.81392C44.3543 9.82457 45.2173 10.7301 45.4517 11.8168H47.6676C47.4225 9.47301 45.5156 7.91761 42.8735 7.91761C39.6136 7.91761 37.4936 10.3785 37.5042 13.9048C37.4936 17.3885 39.539 19.8707 42.9161 19.8707Z" fill="white"/>
<path d="M49.8195 19.6364H52.0994V15.5241L53.1967 14.4375L57.1278 19.6364H59.919L54.9225 13.0312L59.5994 8.06676H56.8721L52.2911 12.946H52.0994V4.21023H49.8195V19.6364Z" fill="white"/>
<path d="M66.9076 8.06676H64.4147V7.06534C64.4147 5.93608 64.9793 5.44602 66.1832 5.44602C66.3856 5.44602 66.7159 5.46733 67.142 5.53125V3.63494C66.6945 3.54971 66.1299 3.48579 65.5866 3.48579C63.4666 3.48579 62.1455 4.65767 62.1349 6.72443V8.06676H60.3451V9.87784H62.1349V19.6364H64.4147V9.87784H66.9076V8.06676Z" fill="white"/>
<path d="M71.2542 4.21023H68.9744V19.6364H71.2542V4.21023Z" fill="white"/>
<path d="M78.9247 19.8707C82.1846 19.8707 84.3153 17.4844 84.3153 13.9048C84.3153 10.304 82.1846 7.91761 78.9247 7.91761C75.6434 7.91761 73.5021 10.304 73.5127 13.9048C73.5021 17.4844 75.6434 19.8707 78.9247 19.8707ZM75.7926 13.9048C75.7926 11.6889 76.8046 9.80327 78.9247 9.79261C81.0127 9.80327 82.0142 11.6889 82.0142 13.9048C82.0142 16.1101 81.0127 17.9744 78.9247 17.9744C76.8046 17.9744 75.7926 16.1101 75.7926 13.9048Z" fill="white"/>
<path d="M88.6832 19.6364H91.0269L93.3494 11.3054H93.5198L95.8636 19.6364H98.186L101.574 8.06676H99.2301L96.9928 16.5043H96.865L94.6278 8.06676H92.284L90.0255 16.5469H89.8977L87.6392 8.06676H85.2954L88.6832 19.6364Z" fill="white"/>
</svg>
