<?xml version="1.0" encoding="UTF-8"?>
<svg width="838px" height="279px" viewBox="0 0 838 279" version="1.1" xmlns="http://www.w3.org/2000/svg" xmlns:xlink="http://www.w3.org/1999/xlink">
    <title>GitHub Cover Copy 2</title>
    <g id="GitHub-Cover-Copy-2" stroke="none" stroke-width="1" fill="none" fill-rule="evenodd">
        <rect fill="#F7F7F7" x="0" y="0" width="838" height="279"></rect>
        <g id="Group-2">
            <path d="M651.014009,139.023041 L651.014009,134.64639 L652.86765,132.63828 L656.703656,139.023041 L660.050507,139.023041 L654.798525,130.810384 L659.484117,125.635637 L656.214501,125.635637 L652.996375,129.265684 L651.142734,131.659969 L651.014009,131.659969 L651.014009,119.971736 L648.207803,119.971736 L648.207803,139.023041 L651.014009,139.023041 Z M665.637174,139.331982 C667.593794,139.331982 669.035515,138.456651 669.550415,136.783226 L669.67914,136.783226 C669.859355,138.096221 670.631705,139.023041 672.099171,139.023041 L673.669616,139.023041 L673.669616,136.731736 L672.253641,136.731736 L672.253641,130.012289 C672.253641,127.025868 670.322765,125.326697 666.872934,125.326697 C664.272688,125.326697 662.702243,126.433733 661.826912,127.926943 L663.500338,129.445899 C664.169708,128.390353 665.122273,127.618003 666.692719,127.618003 C668.572104,127.618003 669.447435,128.570568 669.447435,130.192504 L669.447435,131.325284 L667.027404,131.325284 C663.294378,131.325284 661.312012,132.68977 661.312012,135.341505 C661.312012,137.761536 662.882458,139.331982 665.637174,139.331982 Z M666.435269,137.195146 C665.045038,137.195146 664.169708,136.577266 664.169708,135.392995 L664.169708,134.929585 C664.169708,133.77106 665.122273,133.127435 667.078894,133.127435 L669.447435,133.127435 L669.447435,135.05831 C669.447435,136.371306 668.160184,137.195146 666.435269,137.195146 Z M679.230538,139.023041 L679.230538,130.475699 C679.230538,129.085469 680.466298,128.338863 682.680369,128.338863 L683.787404,128.338863 L683.787404,125.635637 L683.040799,125.635637 C680.903963,125.635637 679.745438,126.845653 679.359263,128.210138 L679.230538,128.210138 L679.230538,125.635637 L676.424332,125.635637 L676.424332,139.023041 L679.230538,139.023041 Z M689.090876,139.023041 L689.090876,130.475699 C689.090876,129.085469 690.326636,128.338863 692.540707,128.338863 L693.647742,128.338863 L693.647742,125.635637 L692.901137,125.635637 C690.764301,125.635637 689.605776,126.845653 689.219601,128.210138 L689.090876,128.210138 L689.090876,125.635637 L686.28467,125.635637 L686.28467,139.023041 L689.090876,139.023041 Z M701.396989,139.331982 C705.130015,139.331982 707.550046,136.603011 707.550046,132.329339 C707.550046,128.055668 705.130015,125.326697 701.396989,125.326697 C697.663963,125.326697 695.243932,128.055668 695.243932,132.329339 C695.243932,136.603011 697.663963,139.331982 701.396989,139.331982 Z M701.396989,137.014931 C699.491859,137.014931 698.204608,135.830661 698.204608,133.46212 L698.204608,131.196559 C698.204608,128.828018 699.491859,127.643748 701.396989,127.643748 C703.30212,127.643748 704.58937,128.828018 704.58937,131.196559 L704.58937,133.46212 C704.58937,135.830661 703.30212,137.014931 701.396989,137.014931 Z M716.818249,139.023041 L716.818249,136.731736 L714.218003,136.731736 L714.218003,127.926943 L717.024209,127.926943 L717.024209,125.635637 L714.218003,125.635637 L714.218003,121.979846 L711.694992,121.979846 L711.694992,124.322642 C711.694992,125.249462 711.386052,125.635637 710.459232,125.635637 L709.326452,125.635637 L709.326452,127.926943 L711.411797,127.926943 L711.411797,136.113856 C711.411797,137.941751 712.441598,139.023041 714.372473,139.023041 L716.818249,139.023041 Z M723.563441,139.023041 L723.563441,127.926943 L726.369647,127.926943 L726.369647,125.635637 L723.563441,125.635637 L723.563441,122.263041 L726.369647,122.263041 L726.369647,119.971736 L724.155576,119.971736 C721.91576,119.971736 720.757235,121.258986 720.757235,123.421567 L720.757235,125.635637 L718.723379,125.635637 L718.723379,127.926943 L720.757235,127.926943 L720.757235,139.023041 L723.563441,139.023041 Z M731.621628,139.023041 L731.621628,130.475699 C731.621628,129.085469 732.857389,128.338863 735.071459,128.338863 L736.178495,128.338863 L736.178495,125.635637 L735.431889,125.635637 C733.295054,125.635637 732.136528,126.845653 731.750353,128.210138 L731.621628,128.210138 L731.621628,125.635637 L728.815422,125.635637 L728.815422,139.023041 L731.621628,139.023041 Z M742.022611,139.331982 C743.979232,139.331982 745.420952,138.456651 745.935853,136.783226 L746.064578,136.783226 C746.244793,138.096221 747.017143,139.023041 748.484608,139.023041 L750.055054,139.023041 L750.055054,136.731736 L748.639078,136.731736 L748.639078,130.012289 C748.639078,127.025868 746.708203,125.326697 743.258372,125.326697 C740.658126,125.326697 739.08768,126.433733 738.21235,127.926943 L739.885776,129.445899 C740.555146,128.390353 741.507711,127.618003 743.078157,127.618003 C744.957542,127.618003 745.832873,128.570568 745.832873,130.192504 L745.832873,131.325284 L743.412842,131.325284 C739.679816,131.325284 737.69745,132.68977 737.69745,135.341505 C737.69745,137.761536 739.267896,139.331982 742.022611,139.331982 Z M742.820707,137.195146 C741.430476,137.195146 740.555146,136.577266 740.555146,135.392995 L740.555146,134.929585 C740.555146,133.77106 741.507711,133.127435 743.464332,133.127435 L745.832873,133.127435 L745.832873,135.05831 C745.832873,136.371306 744.545622,137.195146 742.820707,137.195146 Z M755.615975,139.023041 L755.615975,130.038034 C755.615975,128.493333 756.980461,127.746728 758.370691,127.746728 C760.018372,127.746728 760.816467,128.776528 760.816467,130.861874 L760.816467,139.023041 L763.622673,139.023041 L763.622673,130.038034 C763.622673,128.493333 764.935668,127.746728 766.351644,127.746728 C768.050814,127.746728 768.823164,128.802273 768.823164,130.861874 L768.823164,139.023041 L771.62937,139.023041 L771.62937,130.527189 C771.62937,127.231828 770.058925,125.326697 767.407189,125.326697 C765.244608,125.326697 763.854378,126.562458 763.365223,128.055668 L763.287988,128.055668 C762.644363,126.202028 761.125407,125.326697 759.323257,125.326697 C757.289401,125.326697 756.285346,126.459478 755.7447,127.849708 L755.615975,127.849708 L755.615975,125.635637 L752.80977,125.635637 L752.80977,139.023041 L755.615975,139.023041 Z M780.768848,139.331982 C783.266114,139.331982 785.222734,138.250691 786.22679,136.628756 L784.579109,135.00682 C783.806759,136.242581 782.699724,137.014931 781.052043,137.014931 C778.786482,137.014931 777.524977,135.547465 777.524977,133.487865 L777.524977,133.0502 L786.715945,133.0502 L786.715945,131.994654 C786.715945,128.287373 784.707834,125.326697 780.768848,125.326697 C776.958587,125.326697 774.615791,128.055668 774.615791,132.329339 C774.615791,136.603011 776.958587,139.331982 780.768848,139.331982 Z M783.755269,131.196559 L777.524977,131.196559 L777.524977,131.016344 C777.524977,128.956743 778.837972,127.515023 780.768848,127.515023 C782.622488,127.515023 783.755269,128.879508 783.755269,130.939109 L783.755269,131.196559 Z" id="karrotframe" fill="#000000" fill-rule="nonzero"></path>
            <path d="M717.551982,162.348018 C720.01063,162.348018 720.911705,161.138003 720.911705,158.512012 L720.911705,153.208541 L719.482857,153.208541 L719.482857,158.743717 C719.482857,160.262673 718.955084,161.047896 717.551982,161.047896 C716.148879,161.047896 715.621106,160.262673 715.621106,158.743717 L715.621106,153.208541 L714.192258,153.208541 L714.192258,158.512012 C714.192258,161.138003 715.093333,162.348018 717.551982,162.348018 Z M723.846636,162.193548 L725.996344,158.614992 L726.034962,158.614992 L728.210415,162.193548 L729.922458,162.193548 L726.974654,157.585192 L729.806605,153.208541 L728.197542,153.208541 L726.125069,156.555392 L726.099324,156.555392 L724.052596,153.208541 L722.340553,153.208541 L725.146759,157.598065 L722.237573,162.193548 L723.846636,162.193548 Z M740.091736,162.193548 L740.091736,160.906298 L735.79232,160.906298 L735.79232,158.280307 L739.692688,158.280307 L739.692688,156.993057 L735.79232,156.993057 L735.79232,154.495791 L740.091736,154.495791 L740.091736,153.208541 L734.337727,153.208541 L734.337727,162.193548 L740.091736,162.193548 Z M743.271244,162.193548 L743.271244,157.713917 C743.271244,156.928694 743.992104,156.555392 744.725837,156.555392 C745.588295,156.555392 745.987343,157.083164 745.987343,158.125837 L745.987343,162.193548 L747.390445,162.193548 L747.390445,157.945622 C747.390445,156.297942 746.579478,155.345376 745.214992,155.345376 C744.185192,155.345376 743.618802,155.886022 743.335607,156.606882 L743.271244,156.606882 L743.271244,155.499846 L741.868141,155.499846 L741.868141,162.193548 L743.271244,162.193548 Z M750.737296,162.193548 L750.737296,157.701045 C750.737296,156.928694 751.458157,156.555392 752.191889,156.555392 C753.054347,156.555392 753.453395,157.083164 753.453395,158.112965 L753.453395,162.193548 L754.856498,162.193548 L754.856498,157.945622 C754.856498,156.297942 754.04553,155.345376 752.681045,155.345376 C751.651244,155.345376 751.084854,155.886022 750.801659,156.606882 L750.737296,156.606882 L750.737296,152.667896 L749.334194,152.667896 L749.334194,162.193548 L750.737296,162.193548 Z M758.473671,162.348018 C759.451982,162.348018 760.172842,161.910353 760.430292,161.073641 L760.494654,161.073641 C760.584762,161.730138 760.970937,162.193548 761.70467,162.193548 L762.489892,162.193548 L762.489892,161.047896 L761.781905,161.047896 L761.781905,157.688172 C761.781905,156.194962 760.816467,155.345376 759.091551,155.345376 C757.791429,155.345376 757.006206,155.898894 756.568541,156.645499 L757.405253,157.404977 C757.739939,156.877204 758.216221,156.491029 759.001444,156.491029 C759.941137,156.491029 760.378802,156.967312 760.378802,157.77828 L760.378802,158.34467 L759.168786,158.34467 C757.302273,158.34467 756.311091,159.026912 756.311091,160.35278 C756.311091,161.562796 757.096313,162.348018 758.473671,162.348018 Z M758.872719,161.279601 C758.177604,161.279601 757.739939,160.970661 757.739939,160.378525 L757.739939,160.14682 C757.739939,159.567558 758.216221,159.245745 759.194531,159.245745 L760.378802,159.245745 L760.378802,160.211183 C760.378802,160.86768 759.735177,161.279601 758.872719,161.279601 Z M765.270353,162.193548 L765.270353,157.713917 C765.270353,156.928694 765.991214,156.555392 766.724946,156.555392 C767.587404,156.555392 767.986452,157.083164 767.986452,158.125837 L767.986452,162.193548 L769.389555,162.193548 L769.389555,157.945622 C769.389555,156.297942 768.578587,155.345376 767.214101,155.345376 C766.184301,155.345376 765.617911,155.886022 765.334716,156.606882 L765.270353,156.606882 L765.270353,155.499846 L763.86725,155.499846 L763.86725,162.193548 L765.270353,162.193548 Z M773.920676,162.348018 C775.207926,162.348018 776.121874,161.743011 776.559539,160.648848 L775.491121,160.082458 C775.207926,160.751828 774.731644,161.189493 773.920676,161.189493 C772.890876,161.189493 772.363103,160.481505 772.363103,159.451705 L772.363103,158.254562 C772.363103,157.224762 772.890876,156.516774 773.920676,156.516774 C774.680154,156.516774 775.156436,156.915822 775.349524,157.533702 L776.508049,156.993057 C776.109002,156.001874 775.259416,155.345376 773.920676,155.345376 C771.9898,155.345376 770.882765,156.709862 770.882765,158.846697 C770.882765,160.983533 771.9898,162.348018 773.920676,162.348018 Z M780.52427,162.348018 C781.772903,162.348018 782.751214,161.807373 783.253241,160.996406 L782.429401,160.185438 C782.043226,160.803318 781.489708,161.189493 780.665868,161.189493 C779.533088,161.189493 778.902335,160.45576 778.902335,159.42596 L778.902335,159.207127 L783.497819,159.207127 L783.497819,158.679355 C783.497819,156.825714 782.493763,155.345376 780.52427,155.345376 C778.61914,155.345376 777.447742,156.709862 777.447742,158.846697 C777.447742,160.983533 778.61914,162.348018 780.52427,162.348018 Z M782.017481,158.280307 L778.902335,158.280307 L778.902335,158.1902 C778.902335,157.160399 779.558833,156.439539 780.52427,156.439539 C781.451091,156.439539 782.017481,157.121782 782.017481,158.151582 L782.017481,158.280307 Z M786.458495,162.193548 L786.458495,157.919877 C786.458495,157.224762 787.076375,156.851459 788.18341,156.851459 L788.736928,156.851459 L788.736928,155.499846 L788.363625,155.499846 C787.295207,155.499846 786.715945,156.104854 786.522857,156.787097 L786.458495,156.787097 L786.458495,155.499846 L785.055392,155.499846 L785.055392,162.193548 L786.458495,162.193548 Z" id="UXEnhancer" fill="#000000" fill-rule="nonzero"></path>
            <g id="Group" transform="translate(359.142857, 46.341014)">
                <rect id="Rectangle" stroke="#DEE2E6" fill-opacity="0.8" fill="#FFFFFF" x="-0.5" y="-0.5" width="120.714286" height="186.364055" rx="8"></rect>
                <path d="M8,0 L111.714286,0 C116.132564,-8.66006284e-15 119.714286,3.581722 119.714286,8 L119.714286,29.6067588 L119.714286,29.6067588 L0,29.6067588 L0,8 C-1.42926142e-15,3.581722 3.581722,-2.74108918e-15 8,0 Z" id="Rectangle" fill="#FFFFFF"></path>
                <g id="ic_backward_outline_s" transform="translate(7.723502, 9.010753)" fill="#212529" fill-rule="nonzero">
                    <path d="M6.3757576,10.686238 C6.58844796,10.8919289 6.58844796,11.2253734 6.3757576,11.4310643 C6.16307813,11.6366498 5.81825551,11.6366498 5.60557604,11.4310643 L0.15951777,6.16498854 C-0.0531725899,5.9593398 -0.0531725899,5.62591629 0.15951777,5.42026755 L5.60557604,0.15424445 C5.81825551,-0.0514148166 6.16307813,-0.0514148166 6.3757576,0.15424445 C6.58844796,0.359893184 6.58844796,0.693316703 6.3757576,0.898965437 L1.85940683,5.26602573 L13.6151484,5.26602573 C13.9158797,5.26602573 14.1597542,5.50179612 14.1597542,5.79262804 C14.1597542,6.08345997 13.9158797,6.31923035 13.6151484,6.31923035 L1.85940683,6.31923035 L6.3757576,10.686238 Z" id="Path"></path>
                </g>
                <g id="ic_window_close_outline_s" transform="translate(99.118280, 9.010753)" fill="#212529" fill-rule="nonzero">
                    <path d="M1.56812198,0.74892871 C1.34190832,0.522703465 0.975142369,0.522703465 0.74892871,0.74892871 C0.522703465,0.975142369 0.522703465,1.34190832 0.74892871,1.56812198 L4.97342187,5.79262673 L0.74892871,10.0170735 C0.522703465,10.2433335 0.522703465,10.6101227 0.74892871,10.8363827 C0.975142369,11.0625268 1.34190832,11.0625268 1.56812198,10.8363827 L5.79262673,6.61183159 L10.0170735,10.8363827 C10.2433335,11.0625268 10.6101227,11.0625268 10.8363827,10.8363827 C11.0625268,10.6101227 11.0625268,10.2433335 10.8363827,10.0170735 L6.61183159,5.79262673 L10.8363827,1.56812198 C11.0625268,1.34190832 11.0625268,0.975142369 10.8363827,0.74892871 C10.6101227,0.522703465 10.2433335,0.522703465 10.0170735,0.74892871 L5.79262673,4.97342187 L1.56812198,0.74892871 Z" id="Path"></path>
                </g>
            </g>
            <g id="Group" transform="translate(196.949309, 46.341014)">
                <rect id="Rectangle" stroke="#DEE2E6" fill-opacity="0.8" fill="#FFFFFF" x="-0.5" y="-0.5" width="120.714286" height="186.364055" rx="8"></rect>
                <path d="M8,0 L111.714286,0 C116.132564,-8.66006284e-15 119.714286,3.581722 119.714286,8 L119.714286,29.6067588 L119.714286,29.6067588 L0,29.6067588 L0,8 C-5.41083001e-16,3.581722 3.581722,-3.6292676e-15 8,0 Z" id="Rectangle" fill="#FFFFFF"></path>
                <g id="ic_window_close_outline_s" transform="translate(99.118280, 9.010753)" fill="#212529" fill-rule="nonzero">
                    <path d="M1.56812198,0.74892871 C1.34190832,0.522703465 0.975142369,0.522703465 0.74892871,0.74892871 C0.522703465,0.975142369 0.522703465,1.34190832 0.74892871,1.56812198 L4.97342187,5.79262673 L0.74892871,10.0170735 C0.522703465,10.2433335 0.522703465,10.6101227 0.74892871,10.8363827 C0.975142369,11.0625268 1.34190832,11.0625268 1.56812198,10.8363827 L5.79262673,6.61183159 L10.0170735,10.8363827 C10.2433335,11.0625268 10.6101227,11.0625268 10.8363827,10.8363827 C11.0625268,10.6101227 11.0625268,10.2433335 10.8363827,10.0170735 L6.61183159,5.79262673 L10.8363827,1.56812198 C11.0625268,1.34190832 11.0625268,0.975142369 10.8363827,0.74892871 C10.6101227,0.522703465 10.2433335,0.522703465 10.0170735,0.74892871 L5.79262673,4.97342187 L1.56812198,0.74892871 Z" id="Path"></path>
                </g>
            </g>
            <g id="Group-Copy" transform="translate(34.755760, 46.341014)" fill="#FFFFFF">
                <rect id="Rectangle" stroke="#DEE2E6" fill-opacity="0.8" x="-0.5" y="-0.5" width="120.714286" height="186.364055" rx="8"></rect>
                <path d="M8,0 L111.714286,0 C116.132564,-8.66006284e-15 119.714286,3.581722 119.714286,8 L119.714286,29.6067588 L119.714286,29.6067588 L0,29.6067588 L0,8 C-5.41083001e-16,3.581722 3.581722,-3.6292676e-15 8,0 Z" id="Rectangle"></path>
            </g>
            <g id="Group" transform="translate(400.334869, 121.001536)" fill-rule="nonzero">
                <g id="Group">
                    <path d="M18.6070613,9.5260892 C8.47811708,9.5260892 0.273755248,17.725656 0.273755248,27.8486803 C0.273755248,32.093552 1.73378324,35.9902117 4.15610241,39.0992486 C4.34690152,39.33139 4.52940502,39.5718222 4.72849974,39.8039637 C5.01884622,40.1355943 5.30919269,40.4755156 5.62442601,40.7822739 C5.63272162,40.7905647 5.64101724,40.7988555 5.64931285,40.8071462 C9.15006179,44.521409 13.5882151,47.3568507 18.6070613,48.8740608 C23.6259075,47.34856 28.0640608,44.521409 31.5648097,40.8071462 C31.5731053,40.7988555 31.5814009,40.7905647 31.5896965,40.7822739 C31.9049299,40.4672249 32.1952763,40.1355943 32.4856228,39.8039637 C32.6847175,39.5718222 32.867221,39.3396808 33.0580201,39.0992486 C35.4803393,35.9902117 36.9403673,32.093552 36.9403673,27.8486803 C36.9403673,17.725656 28.7360055,9.5260892 18.6070613,9.5260892 Z M18.6070613,34.8543768 C14.7330097,34.8543768 11.5972678,31.7204676 11.5972678,27.8486803 C11.5972678,23.9768929 14.7330097,20.8429837 18.6070613,20.8429837 C22.4811128,20.8429837 25.6168548,23.9768929 25.6168548,27.8486803 C25.6168548,31.7204676 22.4811128,34.8543768 18.6070613,34.8543768 Z" id="Shape" fill="#FF8A3D"></path>
                    <path d="M24.5799031,9.13642323 C25.7910626,8.87111875 26.7035801,7.79331927 26.7035801,6.50825067 C26.7035801,5.0242037 25.4924205,3.81375199 24.0075057,3.81375199 C23.592725,3.81375199 23.2028312,3.91324117 22.8461198,4.08734724 C22.4645216,2.08927283 20.7224427,0.580353563 18.6153569,0.580353563 C16.508271,0.580353563 14.7578966,2.08927283 14.384594,4.08734724 C14.0361782,3.92153193 13.6379887,3.81375199 13.2232081,3.81375199 C11.7382932,3.81375199 10.5271336,5.0242037 10.5271336,6.50825067 C10.5271336,7.80161004 11.4313555,8.87111875 12.6508107,9.13642323 C14.5256194,8.48974355 16.5248623,8.12494988 18.6153569,8.12494988 C20.7058515,8.12494988 22.7050944,8.48974355 24.5799031,9.13642323 Z" id="Path" fill="#56C271"></path>
                </g>
            </g>
        </g>
    </g>
</svg>