<?xml version="1.0" encoding="UTF-8"?>
<svg width="650px" height="216px" viewBox="0 0 650 216" version="1.1" xmlns="http://www.w3.org/2000/svg" xmlns:xlink="http://www.w3.org/1999/xlink">
    <title>GitHub Cover</title>
    <g id="GitHub-Cover" stroke="none" stroke-width="1" fill="none" fill-rule="evenodd">
        <rect fill="#F7F7F7" x="0" y="0" width="650" height="216"></rect>
        <path d="M505.74,108 L505.74,104.6 L507.18,103.04 L510.16,108 L512.76,108 L508.68,101.62 L512.32,97.6 L509.78,97.6 L507.28,100.42 L505.84,102.28 L505.74,102.28 L505.74,93.2 L503.56,93.2 L503.56,108 L505.74,108 Z M517.1,108.24 C518.62,108.24 519.74,107.56 520.14,106.26 L520.24,106.26 C520.38,107.28 520.98,108 522.12,108 L523.34,108 L523.34,106.22 L522.24,106.22 L522.24,101 C522.24,98.68 520.74,97.36 518.06,97.36 C516.04,97.36 514.82,98.22 514.14,99.38 L515.44,100.56 C515.96,99.74 516.7,99.14 517.92,99.14 C519.38,99.14 520.06,99.88 520.06,101.14 L520.06,102.02 L518.18,102.02 C515.28,102.02 513.74,103.08 513.74,105.14 C513.74,107.02 514.96,108.24 517.1,108.24 Z M517.72,106.58 C516.64,106.58 515.96,106.1 515.96,105.18 L515.96,104.82 C515.96,103.92 516.7,103.42 518.22,103.42 L520.06,103.42 L520.06,104.92 C520.06,105.94 519.06,106.58 517.72,106.58 Z M527.66,108 L527.66,101.36 C527.66,100.28 528.62,99.7 530.34,99.7 L531.2,99.7 L531.2,97.6 L530.62,97.6 C528.96,97.6 528.06,98.54 527.76,99.6 L527.66,99.6 L527.66,97.6 L525.48,97.6 L525.48,108 L527.66,108 Z M535.32,108 L535.32,101.36 C535.32,100.28 536.28,99.7 538,99.7 L538.86,99.7 L538.86,97.6 L538.28,97.6 C536.62,97.6 535.72,98.54 535.42,99.6 L535.32,99.6 L535.32,97.6 L533.14,97.6 L533.14,108 L535.32,108 Z M544.88,108.24 C547.78,108.24 549.66,106.12 549.66,102.8 C549.66,99.48 547.78,97.36 544.88,97.36 C541.98,97.36 540.1,99.48 540.1,102.8 C540.1,106.12 541.98,108.24 544.88,108.24 Z M544.88,106.44 C543.4,106.44 542.4,105.52 542.4,103.68 L542.4,101.92 C542.4,100.08 543.4,99.16 544.88,99.16 C546.36,99.16 547.36,100.08 547.36,101.92 L547.36,103.68 C547.36,105.52 546.36,106.44 544.88,106.44 Z M556.86,108 L556.86,106.22 L554.84,106.22 L554.84,99.38 L557.02,99.38 L557.02,97.6 L554.84,97.6 L554.84,94.76 L552.88,94.76 L552.88,96.58 C552.88,97.3 552.64,97.6 551.92,97.6 L551.04,97.6 L551.04,99.38 L552.66,99.38 L552.66,105.74 C552.66,107.16 553.46,108 554.96,108 L556.86,108 Z M562.1,108 L562.1,99.38 L564.28,99.38 L564.28,97.6 L562.1,97.6 L562.1,94.98 L564.28,94.98 L564.28,93.2 L562.56,93.2 C560.82,93.2 559.92,94.2 559.92,95.88 L559.92,97.6 L558.34,97.6 L558.34,99.38 L559.92,99.38 L559.92,108 L562.1,108 Z M568.36,108 L568.36,101.36 C568.36,100.28 569.32,99.7 571.04,99.7 L571.9,99.7 L571.9,97.6 L571.32,97.6 C569.66,97.6 568.76,98.54 568.46,99.6 L568.36,99.6 L568.36,97.6 L566.18,97.6 L566.18,108 L568.36,108 Z M576.44,108.24 C577.96,108.24 579.08,107.56 579.48,106.26 L579.58,106.26 C579.72,107.28 580.32,108 581.46,108 L582.68,108 L582.68,106.22 L581.58,106.22 L581.58,101 C581.58,98.68 580.08,97.36 577.4,97.36 C575.38,97.36 574.16,98.22 573.48,99.38 L574.78,100.56 C575.3,99.74 576.04,99.14 577.26,99.14 C578.72,99.14 579.4,99.88 579.4,101.14 L579.4,102.02 L577.52,102.02 C574.62,102.02 573.08,103.08 573.08,105.14 C573.08,107.02 574.3,108.24 576.44,108.24 Z M577.06,106.58 C575.98,106.58 575.3,106.1 575.3,105.18 L575.3,104.82 C575.3,103.92 576.04,103.42 577.56,103.42 L579.4,103.42 L579.4,104.92 C579.4,105.94 578.4,106.58 577.06,106.58 Z M587,108 L587,101.02 C587,99.82 588.06,99.24 589.14,99.24 C590.42,99.24 591.04,100.04 591.04,101.66 L591.04,108 L593.22,108 L593.22,101.02 C593.22,99.82 594.24,99.24 595.34,99.24 C596.66,99.24 597.26,100.06 597.26,101.66 L597.26,108 L599.44,108 L599.44,101.4 C599.44,98.84 598.22,97.36 596.16,97.36 C594.48,97.36 593.4,98.32 593.02,99.48 L592.96,99.48 C592.46,98.04 591.28,97.36 589.88,97.36 C588.3,97.36 587.52,98.24 587.1,99.32 L587,99.32 L587,97.6 L584.82,97.6 L584.82,108 L587,108 Z M606.54,108.24 C608.48,108.24 610,107.4 610.78,106.14 L609.5,104.88 C608.9,105.84 608.04,106.44 606.76,106.44 C605,106.44 604.02,105.3 604.02,103.7 L604.02,103.36 L611.16,103.36 L611.16,102.54 C611.16,99.66 609.6,97.36 606.54,97.36 C603.58,97.36 601.76,99.48 601.76,102.8 C601.76,106.12 603.58,108.24 606.54,108.24 Z M608.86,101.92 L604.02,101.92 L604.02,101.78 C604.02,100.18 605.04,99.06 606.54,99.06 C607.98,99.06 608.86,100.12 608.86,101.72 L608.86,101.92 Z" id="karrotframe" fill="#000000" fill-rule="nonzero"></path>
        <path d="M557.43,126.12 C559.34,126.12 560.04,125.18 560.04,123.14 L560.04,119.02 L558.93,119.02 L558.93,123.32 C558.93,124.5 558.52,125.11 557.43,125.11 C556.34,125.11 555.93,124.5 555.93,123.32 L555.93,119.02 L554.82,119.02 L554.82,123.14 C554.82,125.18 555.52,126.12 557.43,126.12 Z M562.32,126 L563.99,123.22 L564.02,123.22 L565.71,126 L567.04,126 L564.75,122.42 L566.95,119.02 L565.7,119.02 L564.09,121.62 L564.07,121.62 L562.48,119.02 L561.15,119.02 L563.33,122.43 L561.07,126 L562.32,126 Z M574.94,126 L574.94,125 L571.6,125 L571.6,122.96 L574.63,122.96 L574.63,121.96 L571.6,121.96 L571.6,120.02 L574.94,120.02 L574.94,119.02 L570.47,119.02 L570.47,126 L574.94,126 Z M577.41,126 L577.41,122.52 C577.41,121.91 577.97,121.62 578.54,121.62 C579.21,121.62 579.52,122.03 579.52,122.84 L579.52,126 L580.61,126 L580.61,122.7 C580.61,121.42 579.98,120.68 578.92,120.68 C578.12,120.68 577.68,121.1 577.46,121.66 L577.41,121.66 L577.41,120.8 L576.32,120.8 L576.32,126 L577.41,126 Z M583.21,126 L583.21,122.51 C583.21,121.91 583.77,121.62 584.34,121.62 C585.01,121.62 585.32,122.03 585.32,122.83 L585.32,126 L586.41,126 L586.41,122.7 C586.41,121.42 585.78,120.68 584.72,120.68 C583.92,120.68 583.48,121.1 583.26,121.66 L583.21,121.66 L583.21,118.6 L582.12,118.6 L582.12,126 L583.21,126 Z M589.22,126.12 C589.98,126.12 590.54,125.78 590.74,125.13 L590.79,125.13 C590.86,125.64 591.16,126 591.73,126 L592.34,126 L592.34,125.11 L591.79,125.11 L591.79,122.5 C591.79,121.34 591.04,120.68 589.7,120.68 C588.69,120.68 588.08,121.11 587.74,121.69 L588.39,122.28 C588.65,121.87 589.02,121.57 589.63,121.57 C590.36,121.57 590.7,121.94 590.7,122.57 L590.7,123.01 L589.76,123.01 C588.31,123.01 587.54,123.54 587.54,124.57 C587.54,125.51 588.15,126.12 589.22,126.12 Z M589.53,125.29 C588.99,125.29 588.65,125.05 588.65,124.59 L588.65,124.41 C588.65,123.96 589.02,123.71 589.78,123.71 L590.7,123.71 L590.7,124.46 C590.7,124.97 590.2,125.29 589.53,125.29 Z M594.5,126 L594.5,122.52 C594.5,121.91 595.06,121.62 595.63,121.62 C596.3,121.62 596.61,122.03 596.61,122.84 L596.61,126 L597.7,126 L597.7,122.7 C597.7,121.42 597.07,120.68 596.01,120.68 C595.21,120.68 594.77,121.1 594.55,121.66 L594.5,121.66 L594.5,120.8 L593.41,120.8 L593.41,126 L594.5,126 Z M601.22,126.12 C602.22,126.12 602.93,125.65 603.27,124.8 L602.44,124.36 C602.22,124.88 601.85,125.22 601.22,125.22 C600.42,125.22 600.01,124.67 600.01,123.87 L600.01,122.94 C600.01,122.14 600.42,121.59 601.22,121.59 C601.81,121.59 602.18,121.9 602.33,122.38 L603.23,121.96 C602.92,121.19 602.26,120.68 601.22,120.68 C599.72,120.68 598.86,121.74 598.86,123.4 C598.86,125.06 599.72,126.12 601.22,126.12 Z M606.35,126.12 C607.32,126.12 608.08,125.7 608.47,125.07 L607.83,124.44 C607.53,124.92 607.1,125.22 606.46,125.22 C605.58,125.22 605.09,124.65 605.09,123.85 L605.09,123.68 L608.66,123.68 L608.66,123.27 C608.66,121.83 607.88,120.68 606.35,120.68 C604.87,120.68 603.96,121.74 603.96,123.4 C603.96,125.06 604.87,126.12 606.35,126.12 Z M607.51,122.96 L605.09,122.96 L605.09,122.89 C605.09,122.09 605.6,121.53 606.35,121.53 C607.07,121.53 607.51,122.06 607.51,122.86 L607.51,122.96 Z M610.96,126 L610.96,122.68 C610.96,122.14 611.44,121.85 612.3,121.85 L612.73,121.85 L612.73,120.8 L612.44,120.8 C611.61,120.8 611.16,121.27 611.01,121.8 L610.96,121.8 L610.96,120.8 L609.87,120.8 L609.87,126 L610.96,126 Z" id="UXEnhancer" fill="#000000" fill-rule="nonzero"></path>
        <g id="Group" transform="translate(279.000000, 36.000000)">
            <rect id="Rectangle" stroke="#DEE2E6" fill-opacity="0.8" fill="#FFFFFF" x="-0.5" y="-0.5" width="94" height="145" rx="8"></rect>
            <path d="M8,0 L85,0 C89.418278,-8.11624501e-16 93,3.581722 93,8 L93,23 L93,23 L0,23 L0,8 C-5.41083001e-16,3.581722 3.581722,8.11624501e-16 8,0 Z" id="Rectangle" fill="#FFFFFF"></path>
            <g id="ic_backward_outline_s" transform="translate(6.000000, 7.000000)" fill="#212529" fill-rule="nonzero">
                <path d="M4.95300501,8.30160016 C5.11823344,8.46139103 5.11823344,8.72042734 4.95300501,8.88021821 C4.78778504,9.03992726 4.51990971,9.03992726 4.35468974,8.88021821 L0.123921322,4.78926914 C-0.0413071074,4.62951099 -0.0413071074,4.37049105 0.123921322,4.21073291 L4.35468974,0.119824745 C4.51990971,-0.0399415818 4.78778504,-0.0399415818 4.95300501,0.119824745 C5.11823344,0.279582891 5.11823344,0.538602832 4.95300501,0.698360978 L1.44447953,4.09091021 L10.5769232,4.09091021 C10.8105462,4.09091021 11,4.27406835 11,4.5 C11,4.7259337 10.8105462,4.90909184 10.5769232,4.90909184 L1.44447953,4.90909184 L4.95300501,8.30160016 Z" id="Path"></path>
            </g>
            <g id="ic_window_close_outline_s" transform="translate(77.000000, 7.000000)" fill="#212529" fill-rule="nonzero">
                <path d="M1.218195,0.581805 C1.042461,0.406062 0.757539,0.406062 0.581805,0.581805 C0.406062,0.757539 0.406062,1.042461 0.581805,1.218195 L3.863601,4.5 L0.581805,7.78176 C0.406062,7.95753 0.406062,8.24247 0.581805,8.41824 C0.757539,8.59392 1.042461,8.59392 1.218195,8.41824 L4.5,5.136399 L7.78176,8.41824 C7.95753,8.59392 8.24247,8.59392 8.41824,8.41824 C8.59392,8.24247 8.59392,7.95753 8.41824,7.78176 L5.136399,4.5 L8.41824,1.218195 C8.59392,1.042461 8.59392,0.757539 8.41824,0.581805 C8.24247,0.406062 7.95753,0.406062 7.78176,0.581805 L4.5,3.863601 L1.218195,0.581805 Z" id="Path"></path>
            </g>
        </g>
        <g id="Group" transform="translate(153.000000, 36.000000)">
            <rect id="Rectangle" stroke="#DEE2E6" fill-opacity="0.8" fill="#FFFFFF" x="-0.5" y="-0.5" width="94" height="145" rx="8"></rect>
            <path d="M8,0 L85,0 C89.418278,-8.11624501e-16 93,3.581722 93,8 L93,23 L93,23 L0,23 L0,8 C-5.41083001e-16,3.581722 3.581722,8.11624501e-16 8,0 Z" id="Rectangle" fill="#FFFFFF"></path>
            <g id="ic_window_close_outline_s" transform="translate(77.000000, 7.000000)" fill="#212529" fill-rule="nonzero">
                <path d="M1.218195,0.581805 C1.042461,0.406062 0.757539,0.406062 0.581805,0.581805 C0.406062,0.757539 0.406062,1.042461 0.581805,1.218195 L3.863601,4.5 L0.581805,7.78176 C0.406062,7.95753 0.406062,8.24247 0.581805,8.41824 C0.757539,8.59392 1.042461,8.59392 1.218195,8.41824 L4.5,5.136399 L7.78176,8.41824 C7.95753,8.59392 8.24247,8.59392 8.41824,8.41824 C8.59392,8.24247 8.59392,7.95753 8.41824,7.78176 L5.136399,4.5 L8.41824,1.218195 C8.59392,1.042461 8.59392,0.757539 8.41824,0.581805 C8.24247,0.406062 7.95753,0.406062 7.78176,0.581805 L4.5,3.863601 L1.218195,0.581805 Z" id="Path"></path>
            </g>
        </g>
        <g id="Group-Copy" transform="translate(27.000000, 36.000000)" fill="#FFFFFF">
            <rect id="Rectangle" stroke="#DEE2E6" fill-opacity="0.8" x="-0.5" y="-0.5" width="94" height="145" rx="8"></rect>
            <path d="M8,0 L85,0 C89.418278,-8.11624501e-16 93,3.581722 93,8 L93,23 L93,23 L0,23 L0,8 C-5.41083001e-16,3.581722 3.581722,8.11624501e-16 8,0 Z" id="Rectangle"></path>
        </g>
        <g id="Group" transform="translate(311.000000, 94.000000)" fill-rule="nonzero">
            <g id="Group">
                <path d="M14.4548889,7.40033898 C6.58622222,7.40033898 0.212666667,13.7701695 0.212666667,21.6342373 C0.212666667,24.9318644 1.34688889,27.9589831 3.22866667,30.3742373 C3.37688889,30.5545763 3.51866667,30.7413559 3.67333333,30.9216949 C3.89888889,31.179322 4.12444444,31.4433898 4.36933333,31.6816949 C4.37577778,31.6881356 4.38222222,31.6945763 4.38866667,31.7010169 C7.10822222,34.5864407 10.556,36.7891525 14.4548889,37.9677966 C18.3537778,36.7827119 21.8015556,34.5864407 24.5211111,31.7010169 C24.5275556,31.6945763 24.534,31.6881356 24.5404444,31.6816949 C24.7853333,31.4369492 25.0108889,31.179322 25.2364444,30.9216949 C25.3911111,30.7413559 25.5328889,30.5610169 25.6811111,30.3742373 C27.5628889,27.9589831 28.6971111,24.9318644 28.6971111,21.6342373 C28.6971111,13.7701695 22.3235556,7.40033898 14.4548889,7.40033898 Z M14.4548889,27.0766102 C11.4453333,27.0766102 9.00933333,24.6420339 9.00933333,21.6342373 C9.00933333,18.6264407 11.4453333,16.1918644 14.4548889,16.1918644 C17.4644444,16.1918644 19.9004444,18.6264407 19.9004444,21.6342373 C19.9004444,24.6420339 17.4644444,27.0766102 14.4548889,27.0766102 Z" id="Shape" fill="#FF8A3D"></path>
                <path d="M19.0948889,7.09762712 C20.0357778,6.89152542 20.7446667,6.05423729 20.7446667,5.0559322 C20.7446667,3.90305085 19.8037778,2.96271186 18.6502222,2.96271186 C18.328,2.96271186 18.0251111,3.04 17.748,3.17525424 C17.4515556,1.62305085 16.0982222,0.450847458 14.4613333,0.450847458 C12.8244444,0.450847458 11.4646667,1.62305085 11.1746667,3.17525424 C10.904,3.04644068 10.5946667,2.96271186 10.2724444,2.96271186 C9.11888889,2.96271186 8.178,3.90305085 8.178,5.0559322 C8.178,6.06067797 8.88044444,6.89152542 9.82777778,7.09762712 C11.2842222,6.59525424 12.8373333,6.31186441 14.4613333,6.31186441 C16.0853333,6.31186441 17.6384444,6.59525424 19.0948889,7.09762712 Z" id="Path" fill="#56C271"></path>
            </g>
        </g>
    </g>
</svg>