<?xml version="1.0" encoding="UTF-8"?>
<svg width="1012px" height="337px" viewBox="0 0 1012 337" version="1.1" xmlns="http://www.w3.org/2000/svg" xmlns:xlink="http://www.w3.org/1999/xlink">
    <title>GitHub Cover - Main Copy</title>
    <g id="GitHub-Cover---Main-Copy" stroke="none" stroke-width="1" fill="none" fill-rule="evenodd">
        <rect fill="#F7F7F7" x="0" y="0" width="1012" height="337"></rect>
        <g id="Group-2" transform="translate(42.036923, 56.049231)">
            <path d="M745.797,114 L745.797,108.73 L748.029,106.312 L752.648,114 L756.678,114 L750.354,104.111 L755.996,97.88 L752.059,97.88 L748.184,102.251 L745.952,105.134 L745.797,105.134 L745.797,91.06 L742.418,91.06 L742.418,114 L745.797,114 Z M763.405,114.372 C765.761,114.372 767.497,113.318 768.117,111.303 L768.272,111.303 C768.489,112.884 769.419,114 771.186,114 L773.077,114 L773.077,111.241 L771.372,111.241 L771.372,103.15 C771.372,99.554 769.047,97.508 764.893,97.508 C761.762,97.508 759.871,98.841 758.817,100.639 L760.832,102.468 C761.638,101.197 762.785,100.267 764.676,100.267 C766.939,100.267 767.993,101.414 767.993,103.367 L767.993,104.731 L765.079,104.731 C760.584,104.731 758.197,106.374 758.197,109.567 C758.197,112.481 760.088,114.372 763.405,114.372 Z M764.366,111.799 C762.692,111.799 761.638,111.055 761.638,109.629 L761.638,109.071 C761.638,107.676 762.785,106.901 765.141,106.901 L767.993,106.901 L767.993,109.226 C767.993,110.807 766.443,111.799 764.366,111.799 Z M779.773,114 L779.773,103.708 C779.773,102.034 781.261,101.135 783.927,101.135 L785.26,101.135 L785.26,97.88 L784.361,97.88 C781.788,97.88 780.393,99.337 779.928,100.98 L779.773,100.98 L779.773,97.88 L776.394,97.88 L776.394,114 L779.773,114 Z M791.646,114 L791.646,103.708 C791.646,102.034 793.134,101.135 795.8,101.135 L797.133,101.135 L797.133,97.88 L796.234,97.88 C793.661,97.88 792.266,99.337 791.801,100.98 L791.646,100.98 L791.646,97.88 L788.267,97.88 L788.267,114 L791.646,114 Z M806.464,114.372 C810.959,114.372 813.873,111.086 813.873,105.94 C813.873,100.794 810.959,97.508 806.464,97.508 C801.969,97.508 799.055,100.794 799.055,105.94 C799.055,111.086 801.969,114.372 806.464,114.372 Z M806.464,111.582 C804.17,111.582 802.62,110.156 802.62,107.304 L802.62,104.576 C802.62,101.724 804.17,100.298 806.464,100.298 C808.758,100.298 810.308,101.724 810.308,104.576 L810.308,107.304 C810.308,110.156 808.758,111.582 806.464,111.582 Z M825.033,114 L825.033,111.241 L821.902,111.241 L821.902,100.639 L825.281,100.639 L825.281,97.88 L821.902,97.88 L821.902,93.478 L818.864,93.478 L818.864,96.299 C818.864,97.415 818.492,97.88 817.376,97.88 L816.012,97.88 L816.012,100.639 L818.523,100.639 L818.523,110.497 C818.523,112.698 819.763,114 822.088,114 L825.033,114 Z M833.155,114 L833.155,100.639 L836.534,100.639 L836.534,97.88 L833.155,97.88 L833.155,93.819 L836.534,93.819 L836.534,91.06 L833.868,91.06 C831.171,91.06 829.776,92.61 829.776,95.214 L829.776,97.88 L827.327,97.88 L827.327,100.639 L829.776,100.639 L829.776,114 L833.155,114 Z M842.858,114 L842.858,103.708 C842.858,102.034 844.346,101.135 847.012,101.135 L848.345,101.135 L848.345,97.88 L847.446,97.88 C844.873,97.88 843.478,99.337 843.013,100.98 L842.858,100.98 L842.858,97.88 L839.479,97.88 L839.479,114 L842.858,114 Z M855.382,114.372 C857.738,114.372 859.474,113.318 860.094,111.303 L860.249,111.303 C860.466,112.884 861.396,114 863.163,114 L865.054,114 L865.054,111.241 L863.349,111.241 L863.349,103.15 C863.349,99.554 861.024,97.508 856.87,97.508 C853.739,97.508 851.848,98.841 850.794,100.639 L852.809,102.468 C853.615,101.197 854.762,100.267 856.653,100.267 C858.916,100.267 859.97,101.414 859.97,103.367 L859.97,104.731 L857.056,104.731 C852.561,104.731 850.174,106.374 850.174,109.567 C850.174,112.481 852.065,114.372 855.382,114.372 Z M856.343,111.799 C854.669,111.799 853.615,111.055 853.615,109.629 L853.615,109.071 C853.615,107.676 854.762,106.901 857.118,106.901 L859.97,106.901 L859.97,109.226 C859.97,110.807 858.42,111.799 856.343,111.799 Z M871.75,114 L871.75,103.181 C871.75,101.321 873.393,100.422 875.067,100.422 C877.051,100.422 878.012,101.662 878.012,104.173 L878.012,114 L881.391,114 L881.391,103.181 C881.391,101.321 882.972,100.422 884.677,100.422 C886.723,100.422 887.653,101.693 887.653,104.173 L887.653,114 L891.032,114 L891.032,103.77 C891.032,99.802 889.141,97.508 885.948,97.508 C883.344,97.508 881.67,98.996 881.081,100.794 L880.988,100.794 C880.213,98.562 878.384,97.508 876.214,97.508 C873.765,97.508 872.556,98.872 871.905,100.546 L871.75,100.546 L871.75,97.88 L868.371,97.88 L868.371,114 L871.75,114 Z M902.037,114.372 C905.044,114.372 907.4,113.07 908.609,111.117 L906.625,109.164 C905.695,110.652 904.362,111.582 902.378,111.582 C899.65,111.582 898.131,109.815 898.131,107.335 L898.131,106.808 L909.198,106.808 L909.198,105.537 C909.198,101.073 906.78,97.508 902.037,97.508 C897.449,97.508 894.628,100.794 894.628,105.94 C894.628,111.086 897.449,114.372 902.037,114.372 Z M905.633,104.576 L898.131,104.576 L898.131,104.359 C898.131,101.879 899.712,100.143 902.037,100.143 C904.269,100.143 905.633,101.786 905.633,104.266 L905.633,104.576 Z" id="karrotframe" fill="#000000" fill-rule="nonzero"></path>
            <path d="M827.145,139.18 C830.01,139.18 831.06,137.77 831.06,134.71 L831.06,128.53 L829.395,128.53 L829.395,134.98 C829.395,136.75 828.78,137.665 827.145,137.665 C825.51,137.665 824.895,136.75 824.895,134.98 L824.895,128.53 L823.23,128.53 L823.23,134.71 C823.23,137.77 824.28,139.18 827.145,139.18 Z M834.48,139 L836.985,134.83 L837.03,134.83 L839.565,139 L841.56,139 L838.125,133.63 L841.425,128.53 L839.55,128.53 L837.135,132.43 L837.105,132.43 L834.72,128.53 L832.725,128.53 L835.995,133.645 L832.605,139 L834.48,139 Z M853.41,139 L853.41,137.5 L848.4,137.5 L848.4,134.44 L852.945,134.44 L852.945,132.94 L848.4,132.94 L848.4,130.03 L853.41,130.03 L853.41,128.53 L846.705,128.53 L846.705,139 L853.41,139 Z M857.115,139 L857.115,133.78 C857.115,132.865 857.955,132.43 858.81,132.43 C859.815,132.43 860.28,133.045 860.28,134.26 L860.28,139 L861.915,139 L861.915,134.05 C861.915,132.13 860.97,131.02 859.38,131.02 C858.18,131.02 857.52,131.65 857.19,132.49 L857.115,132.49 L857.115,131.2 L855.48,131.2 L855.48,139 L857.115,139 Z M865.815,139 L865.815,133.765 C865.815,132.865 866.655,132.43 867.51,132.43 C868.515,132.43 868.98,133.045 868.98,134.245 L868.98,139 L870.615,139 L870.615,134.05 C870.615,132.13 869.67,131.02 868.08,131.02 C866.88,131.02 866.22,131.65 865.89,132.49 L865.815,132.49 L865.815,127.9 L864.18,127.9 L864.18,139 L865.815,139 Z M874.83,139.18 C875.97,139.18 876.81,138.67 877.11,137.695 L877.185,137.695 C877.29,138.46 877.74,139 878.595,139 L879.51,139 L879.51,137.665 L878.685,137.665 L878.685,133.75 C878.685,132.01 877.56,131.02 875.55,131.02 C874.035,131.02 873.12,131.665 872.61,132.535 L873.585,133.42 C873.975,132.805 874.53,132.355 875.445,132.355 C876.54,132.355 877.05,132.91 877.05,133.855 L877.05,134.515 L875.64,134.515 C873.465,134.515 872.31,135.31 872.31,136.855 C872.31,138.265 873.225,139.18 874.83,139.18 Z M875.295,137.935 C874.485,137.935 873.975,137.575 873.975,136.885 L873.975,136.615 C873.975,135.94 874.53,135.565 875.67,135.565 L877.05,135.565 L877.05,136.69 C877.05,137.455 876.3,137.935 875.295,137.935 Z M882.75,139 L882.75,133.78 C882.75,132.865 883.59,132.43 884.445,132.43 C885.45,132.43 885.915,133.045 885.915,134.26 L885.915,139 L887.55,139 L887.55,134.05 C887.55,132.13 886.605,131.02 885.015,131.02 C883.815,131.02 883.155,131.65 882.825,132.49 L882.75,132.49 L882.75,131.2 L881.115,131.2 L881.115,139 L882.75,139 Z M892.83,139.18 C894.33,139.18 895.395,138.475 895.905,137.2 L894.66,136.54 C894.33,137.32 893.775,137.83 892.83,137.83 C891.63,137.83 891.015,137.005 891.015,135.805 L891.015,134.41 C891.015,133.21 891.63,132.385 892.83,132.385 C893.715,132.385 894.27,132.85 894.495,133.57 L895.845,132.94 C895.38,131.785 894.39,131.02 892.83,131.02 C890.58,131.02 889.29,132.61 889.29,135.1 C889.29,137.59 890.58,139.18 892.83,139.18 Z M900.525,139.18 C901.98,139.18 903.12,138.55 903.705,137.605 L902.745,136.66 C902.295,137.38 901.65,137.83 900.69,137.83 C899.37,137.83 898.635,136.975 898.635,135.775 L898.635,135.52 L903.99,135.52 L903.99,134.905 C903.99,132.745 902.82,131.02 900.525,131.02 C898.305,131.02 896.94,132.61 896.94,135.1 C896.94,137.59 898.305,139.18 900.525,139.18 Z M902.265,134.44 L898.635,134.44 L898.635,134.335 C898.635,133.135 899.4,132.295 900.525,132.295 C901.605,132.295 902.265,133.09 902.265,134.29 L902.265,134.44 Z M907.44,139 L907.44,134.02 C907.44,133.21 908.16,132.775 909.45,132.775 L910.095,132.775 L910.095,131.2 L909.66,131.2 C908.415,131.2 907.74,131.905 907.515,132.7 L907.44,132.7 L907.44,131.2 L905.805,131.2 L905.805,139 L907.44,139 Z" id="UXEnhancer" fill="#000000" fill-rule="nonzero"></path>
            <g id="Screen-3" transform="translate(392.344615, 0.000000)">
                <g id="ic_window_close_outline_s" transform="translate(119.883077, 10.898462)"></g>
                <rect id="Rectangle" stroke="#DEE2E6" fill-opacity="0.7" fill="#FFFFFF" x="-0.5" y="-0.5" width="145.793846" height="225.196923" rx="8"></rect>
                <path d="M8,0 L136.793846,0 C141.212124,-8.11624501e-16 144.793846,3.581722 144.793846,8 L144.793846,35.8092308 L144.793846,35.8092308 L0,35.8092308 L0,8 C-5.41083001e-16,3.581722 3.581722,8.11624501e-16 8,0 Z" id="Rectangle" fill="#FFFFFF"></path>
                <g id="ic_backward_outline_s" transform="translate(9.341538, 10.898462)" fill="#212529" fill-rule="nonzero">
                    <path d="M7.7114478,12.9249529 C7.96869575,13.173735 7.96869575,13.5770346 7.7114478,13.8258167 C7.45421302,14.0744714 7.03715173,14.0744714 6.77991695,13.8258167 L0.192935966,7.45652364 C-0.0643119888,7.2077925 -0.0643119888,6.80451838 0.192935966,6.55578723 L6.77991695,0.186557911 C7.03715173,-0.0621859705 7.45421302,-0.0621859705 7.7114478,0.186557911 C7.96869575,0.435289055 7.96869575,0.838563179 7.7114478,1.08729432 L2.24894351,6.36923251 L16.4674557,6.36923251 C16.8311888,6.36923251 17.1261538,6.65439564 17.1261538,7.00615544 C17.1261538,7.35791524 16.8311888,7.64307837 16.4674557,7.64307837 L2.24894351,7.64307837 L7.7114478,12.9249529 Z" id="Path"></path>
                </g>
                <path d="M121.779713,11.8042872 C121.506109,11.5306688 121.062507,11.5306688 120.788903,11.8042872 C120.515284,12.0778915 120.515284,12.5214931 120.788903,12.7950974 L125.898406,17.9046154 L120.788903,23.0140633 C120.515284,23.2877236 120.515284,23.7313533 120.788903,24.0050137 C121.062507,24.2785339 121.506109,24.2785339 121.779713,24.0050137 L126.889231,18.8954397 L131.998679,24.0050137 C132.272339,24.2785339 132.715969,24.2785339 132.989629,24.0050137 C133.263149,23.7313533 133.263149,23.2877236 132.989629,23.0140633 L127.880055,17.9046154 L132.989629,12.7950974 C133.263149,12.5214931 133.263149,12.0778915 132.989629,11.8042872 C132.715969,11.5306688 132.272339,11.5306688 131.998679,11.8042872 L126.889231,16.9137911 L121.779713,11.8042872 Z" id="Path" fill="#212529" fill-rule="nonzero"></path>
                <g id="Group" transform="translate(49.821538, 90.301538)" fill-rule="nonzero">
                    <g id="Group">
                        <path d="M22.5051501,11.5217585 C10.2542414,11.5217585 0.331105641,21.4390947 0.331105641,33.6828433 C0.331105641,38.816995 2.09700239,43.5299859 5.02678564,47.290351 C5.25755624,47.5711249 5.47829333,47.8619265 5.71909744,48.1427004 C6.07027009,48.543806 6.42144274,48.9549392 6.8027159,49.3259619 C6.8127494,49.3359896 6.82278291,49.3460172 6.83281641,49.3560449 C11.0669552,53.8484276 16.43488,57.2778806 22.5051501,59.1129387 C28.5754202,57.2678529 33.943345,53.8484276 38.1774838,49.3560449 C38.1875173,49.3460172 38.1975508,49.3359896 38.2075843,49.3259619 C38.5888574,48.9449116 38.9400301,48.543806 39.2912027,48.1427004 C39.5320068,47.8619265 39.7527439,47.5811525 39.9835145,47.290351 C42.9132978,43.5299859 44.6791945,38.816995 44.6791945,33.6828433 C44.6791945,21.4390947 34.7560588,11.5217585 22.5051501,11.5217585 Z M22.5051501,42.1561992 C17.8195036,42.1561992 14.026839,38.3657512 14.026839,33.6828433 C14.026839,28.9999353 17.8195036,25.2094874 22.5051501,25.2094874 C27.1907966,25.2094874 30.9834612,28.9999353 30.9834612,33.6828433 C30.9834612,38.3657512 27.1907966,42.1561992 22.5051501,42.1561992 Z" id="Shape" fill="#FF8A3D"></path>
                        <path d="M29.7292732,11.0504595 C31.1941648,10.729575 32.2978503,9.42598175 32.2978503,7.87169752 C32.2978503,6.07674993 30.8329586,4.61271447 29.0369614,4.61271447 C28.5352862,4.61271447 28.0637115,4.73304615 27.6322708,4.9436266 C27.1707296,2.52696532 25.0636937,0.701934811 22.5151836,0.701934811 C19.9666735,0.701934811 17.8496041,2.52696532 17.3980964,4.9436266 C16.9766892,4.74307379 16.495081,4.61271447 15.9934058,4.61271447 C14.1974085,4.61271447 12.7325169,6.07674993 12.7325169,7.87169752 C12.7325169,9.43600939 13.8261689,10.729575 15.301094,11.0504595 C17.568666,10.2683035 19.9867405,9.82708735 22.5151836,9.82708735 C25.0436267,9.82708735 27.4617012,10.2683035 29.7292732,11.0504595 Z" id="Path" fill="#56C271"></path>
                    </g>
                </g>
            </g>
            <g id="Screen-2" transform="translate(196.172308, 0.000000)">
                <rect id="Rectangle" stroke="#DEE2E6" fill-opacity="0.7" fill="#FFFFFF" x="-0.5" y="-0.5" width="145.793846" height="225.196923" rx="8"></rect>
                <path d="M8,0 L136.793846,0 C141.212124,-8.11624501e-16 144.793846,3.581722 144.793846,8 L144.793846,35.8092308 L144.793846,35.8092308 L0,35.8092308 L0,8 C-5.41083001e-16,3.581722 3.581722,8.11624501e-16 8,0 Z" id="Rectangle" fill="#FFFFFF"></path>
                <g id="ic_window_close_outline_s" transform="translate(119.883077, 10.898462)" fill="#212529" fill-rule="nonzero">
                    <path d="M1.89663591,0.905825631 C1.62303159,0.632207298 1.17942995,0.632207298 0.905825631,0.905825631 C0.632207298,1.17942995 0.632207298,1.62303159 0.905825631,1.89663591 L6.01532956,7.00615385 L0.905825631,12.1156017 C0.632207298,12.3892621 0.632207298,12.8328918 0.905825631,13.1065521 C1.17942995,13.3800724 1.62303159,13.3800724 1.89663591,13.1065521 L7.00615385,7.99697814 L12.1156017,13.1065521 C12.3892621,13.3800724 12.8328918,13.3800724 13.1065521,13.1065521 C13.3800724,12.8328918 13.3800724,12.3892621 13.1065521,12.1156017 L7.99697814,7.00615385 L13.1065521,1.89663591 C13.3800724,1.62303159 13.3800724,1.17942995 13.1065521,0.905825631 C12.8328918,0.632207298 12.3892621,0.632207298 12.1156017,0.905825631 L7.00615385,6.01532956 L1.89663591,0.905825631 Z" id="Path"></path>
                </g>
            </g>
            <g id="Screen-1" fill="#FFFFFF">
                <rect id="Rectangle" stroke="#DEE2E6" fill-opacity="0.7" x="-0.5" y="-0.5" width="145.793846" height="225.196923" rx="8"></rect>
                <path d="M8,0 L136.793846,0 C141.212124,-1.69980292e-15 144.793846,3.581722 144.793846,8 L144.793846,35.8092308 L144.793846,35.8092308 L0,35.8092308 L0,8 C-1.42926142e-15,3.581722 3.581722,-7.65539184e-17 8,0 Z" id="Rectangle"></path>
            </g>
        </g>
    </g>
</svg>