<svg width="397" height="63" viewBox="0 0 397 63" fill="none" xmlns="http://www.w3.org/2000/svg">
<g opacity="0.95">
<path d="M1.27344 51.5156V60H2.50391V53.8594H2.57422L5.07031 59.9883H6.08984L8.57422 53.8711H8.65625V60H9.88672V51.5156H8.31641L5.63281 58.0898H5.52734L2.84375 51.5156H1.27344ZM14.2109 60.1289C16.0039 60.1289 17.1758 58.8164 17.1758 56.8477C17.1758 54.8672 16.0039 53.5547 14.2109 53.5547C12.4062 53.5547 11.2285 54.8672 11.2344 56.8477C11.2285 58.8164 12.4062 60.1289 14.2109 60.1289ZM12.4883 56.8477C12.4883 55.6289 13.0449 54.5918 14.2109 54.5859C15.3594 54.5918 15.9102 55.6289 15.9102 56.8477C15.9102 58.0605 15.3594 59.0859 14.2109 59.0859C13.0449 59.0859 12.4883 58.0605 12.4883 56.8477ZM18.5117 60H19.7305V59.0039H19.8242C20.0586 59.4199 20.5098 60.123 21.6641 60.1289C23.2051 60.123 24.3301 58.8867 24.3359 56.8359C24.3301 54.7617 23.1934 53.5547 21.6523 53.5547C20.4746 53.5547 20.0527 54.2695 19.8242 54.668H19.7539V51.5156H18.5117V60ZM19.7305 56.8125C19.7305 55.4883 20.3105 54.6152 21.3828 54.6211C22.502 54.6152 23.0586 55.5586 23.0586 56.8125C23.0586 58.0898 22.4844 59.0566 21.3828 59.0625C20.3281 59.0566 19.7305 58.1484 19.7305 56.8125ZM25.5781 60H26.832V53.6367H25.5781V60ZM25.4141 51.9141C25.4199 52.3242 25.7773 52.6582 26.2109 52.6523C26.6387 52.6582 26.9961 52.3242 26.9961 51.9141C26.9961 51.5039 26.6387 51.1758 26.2109 51.1758C25.7773 51.1758 25.4199 51.5039 25.4141 51.9141ZM29.6094 51.5156H28.3555V60H29.6094V51.5156ZM33.875 60.1289C35.2754 60.1289 36.2539 59.4375 36.5352 58.4062H35.2695C35.0586 58.793 34.5957 59.0977 33.8867 59.0977C32.8438 59.0977 32.1289 58.4121 32.0938 57.1992H36.6172V56.7539C36.6172 54.4512 35.2402 53.5547 33.793 53.5547C32.0176 53.5547 30.8457 54.9023 30.8516 56.8594C30.8457 58.834 32 60.1289 33.875 60.1289ZM32.0996 56.2617C32.1523 55.3652 32.8027 54.5801 33.8047 54.5859C34.7598 54.5801 35.3867 55.2949 35.3867 56.2617H32.0996ZM41.6094 55.875H37.8477V56.9531H41.6094V55.875ZM46.1562 53.6367H44.7852V53.0859C44.7852 52.4648 45.0957 52.1953 45.7578 52.1953C45.8691 52.1953 46.0508 52.207 46.2852 52.2422V51.1992C46.0391 51.1523 45.7285 51.1172 45.4297 51.1172C44.2637 51.1172 43.5371 51.7617 43.5312 52.8984V53.6367H42.5469V54.6328H43.5312V60H44.7852V54.6328H46.1562V53.6367ZM47.293 60H48.5469V53.6367H47.293V60ZM47.1289 51.9141C47.1348 52.3242 47.4922 52.6582 47.9258 52.6523C48.3535 52.6582 48.7109 52.3242 48.7109 51.9141C48.7109 51.5039 48.3535 51.1758 47.9258 51.1758C47.4922 51.1758 47.1348 51.5039 47.1289 51.9141ZM50.0703 60H51.3242V56.1211C51.3242 55.2891 51.9688 54.6855 52.8359 54.6914C53.0938 54.6855 53.3867 54.7383 53.4922 54.7617V53.5664C53.3633 53.5547 53.1172 53.5371 52.9648 53.543C52.2207 53.5371 51.582 53.9648 51.3477 54.6445H51.2773V53.6367H50.0703V60ZM58.0039 55.3711H59.2109C59.0879 54.2754 58.2031 53.5547 56.7852 53.5547C55.3086 53.5547 54.3242 54.334 54.3242 55.4648C54.3242 56.3438 54.9219 56.959 56.0703 57.2109L57.0664 57.4219C57.7402 57.5801 58.0449 57.8438 58.0508 58.2539C58.0449 58.7871 57.5234 59.127 56.7148 59.1211C55.959 59.127 55.5254 58.8398 55.4141 58.2656H54.1367C54.2949 59.4492 55.1973 60.1289 56.7266 60.1289C58.3496 60.1289 59.3223 59.3086 59.3281 58.1602C59.3223 57.2578 58.7539 56.7012 57.582 56.4375L56.5742 56.2031C55.8711 56.0391 55.5723 55.7695 55.5781 55.3945C55.5723 54.9082 56.082 54.5391 56.7969 54.5391C57.4883 54.5391 57.8867 54.8672 58.0039 55.3711ZM63.5234 53.6367H62.2227V52.1133H60.9805V53.6367H60.043V54.6328H60.9805V58.3828C60.9688 59.543 61.8535 60.082 62.832 60.082C63.1777 60.082 63.4473 60.0586 63.6172 60.0352V58.9453C63.4414 58.9629 63.166 58.9805 62.9844 58.9805C62.5801 58.9746 62.2285 58.8457 62.2227 58.125V54.6328H63.5234V53.6367ZM72.3945 53.7539H73.6484C73.6074 52.3828 72.4062 51.3984 70.6836 51.3984C68.9668 51.3984 67.666 52.3711 67.6602 53.8359C67.666 55.0195 68.5098 55.7109 69.875 56.0859L70.8828 56.3555C71.7793 56.5957 72.4824 56.8945 72.4883 57.6328C72.4824 58.4648 71.6973 59.0098 70.6133 59.0156C69.623 59.0098 68.8027 58.5703 68.7266 57.6445H67.4375C67.5195 59.1914 68.7148 60.1406 70.6133 60.1406C72.6172 60.1406 73.7598 59.0918 73.7656 57.6562C73.7598 56.1211 72.4004 55.5293 71.3164 55.2656L70.4961 55.043C69.8223 54.8848 68.9492 54.5684 68.9492 53.7656C68.9551 53.0449 69.6113 52.5117 70.6484 52.5117C71.6211 52.5117 72.3125 52.9629 72.3945 53.7539ZM78.0195 53.6367H76.7188V52.1133H75.4766V53.6367H74.5391V54.6328H75.4766V58.3828C75.4648 59.543 76.3496 60.082 77.3281 60.082C77.6738 60.082 77.9434 60.0586 78.1133 60.0352V58.9453C77.9375 58.9629 77.6621 58.9805 77.4805 58.9805C77.0762 58.9746 76.7246 58.8457 76.7188 58.125V54.6328H78.0195V53.6367ZM78.9453 58.207C78.9395 59.4492 79.8828 60.1406 81.0898 60.1406C82.1445 60.1406 82.7305 59.6074 82.9766 59.1328H83.0234V60H84.2422V55.7695C84.2363 53.9238 82.7598 53.5547 81.7461 53.5547C80.2402 53.5547 79.2559 54.3164 79.1445 55.3711H80.3867C80.5156 54.9023 80.9609 54.5625 81.6992 54.5625C82.5488 54.5625 82.9941 54.9785 82.9883 55.6992L82.9941 56.209C82.7012 56.2207 81.7461 56.2734 81.3242 56.2969C80.1758 56.3789 78.9395 56.7539 78.9453 58.207ZM80.1641 58.2188C80.1641 57.5918 80.6797 57.2812 81.5 57.2227C81.7988 57.2051 82.707 57.1406 82.9941 57.123L83 57.7031C83 58.459 82.3906 59.1387 81.3711 59.1445C80.668 59.1387 80.1641 58.8281 80.1641 58.2188ZM88.4492 60.1289C89.9492 60.1289 90.9277 59.2207 91.0625 57.9844H89.8438C89.6855 58.6699 89.1582 59.0684 88.4492 59.0625C87.4004 59.0684 86.7266 58.207 86.7266 56.8125C86.7266 55.459 87.418 54.6035 88.4492 54.5977C89.2402 54.6035 89.7148 55.1016 89.8438 55.6992H91.0625C90.9277 54.4102 89.8789 53.5547 88.4258 53.5547C86.6328 53.5547 85.4668 54.9082 85.4727 56.8477C85.4668 58.7637 86.5918 60.1289 88.4492 60.1289ZM92.2461 60H93.5V57.7383L94.1035 57.1406L96.2656 60H97.8008L95.0527 56.3672L97.625 53.6367H96.125L93.6055 56.3203H93.5V51.5156H92.2461V60ZM108.488 51.5156H107.223V57.7266H107.141L102.84 51.5156H101.645V60H102.934V53.8008H103.004L107.305 60H108.488V51.5156ZM109.824 58.207C109.818 59.4492 110.762 60.1406 111.969 60.1406C113.023 60.1406 113.609 59.6074 113.855 59.1328H113.902V60H115.121V55.7695C115.115 53.9238 113.639 53.5547 112.625 53.5547C111.119 53.5547 110.135 54.3164 110.023 55.3711H111.266C111.395 54.9023 111.84 54.5625 112.578 54.5625C113.428 54.5625 113.873 54.9785 113.867 55.6992L113.873 56.209C113.58 56.2207 112.625 56.2734 112.203 56.2969C111.055 56.3789 109.818 56.7539 109.824 58.207ZM111.043 58.2188C111.043 57.5918 111.559 57.2812 112.379 57.2227C112.678 57.2051 113.586 57.1406 113.873 57.123L113.879 57.7031C113.879 58.459 113.27 59.1387 112.25 59.1445C111.547 59.1387 111.043 58.8281 111.043 58.2188ZM121.859 53.6367H120.512L118.906 58.5234H118.848L117.242 53.6367H115.895L118.203 60H119.551L121.859 53.6367ZM122.879 60H124.133V53.6367H122.879V60ZM122.715 51.9141C122.721 52.3242 123.078 52.6582 123.512 52.6523C123.939 52.6582 124.297 52.3242 124.297 51.9141C124.297 51.5039 123.939 51.1758 123.512 51.1758C123.078 51.1758 122.721 51.5039 122.715 51.9141ZM128.328 62.5195C129.969 62.5195 131.205 61.7754 131.199 60.1406V53.6367H129.98V54.668H129.898C129.664 54.2695 129.23 53.5547 128.047 53.5547C126.518 53.5547 125.375 54.7207 125.375 56.7539C125.375 58.7871 126.535 59.9062 128.035 59.9062C129.207 59.9062 129.664 59.25 129.887 58.8398H129.969V60.0938C129.963 61.084 129.336 61.5176 128.34 61.5117C127.514 61.5176 126.951 61.2246 126.828 60.6211H125.551C125.662 61.8105 126.723 62.5195 128.328 62.5195ZM126.652 56.7773C126.646 55.5586 127.209 54.6152 128.316 54.6211C129.395 54.6152 129.98 55.4883 129.98 56.7773C129.98 58.0898 129.383 58.8691 128.316 58.875C127.221 58.8691 126.646 58.0254 126.652 56.7773ZM132.43 58.207C132.424 59.4492 133.367 60.1406 134.574 60.1406C135.629 60.1406 136.215 59.6074 136.461 59.1328H136.508V60H137.727V55.7695C137.721 53.9238 136.244 53.5547 135.23 53.5547C133.725 53.5547 132.74 54.3164 132.629 55.3711H133.871C134 54.9023 134.445 54.5625 135.184 54.5625C136.033 54.5625 136.479 54.9785 136.473 55.6992L136.479 56.209C136.186 56.2207 135.23 56.2734 134.809 56.2969C133.66 56.3789 132.424 56.7539 132.43 58.207ZM133.648 58.2188C133.648 57.5918 134.164 57.2812 134.984 57.2227C135.283 57.2051 136.191 57.1406 136.479 57.123L136.484 57.7031C136.484 58.459 135.875 59.1387 134.855 59.1445C134.152 59.1387 133.648 58.8281 133.648 58.2188ZM142.215 53.6367H140.914V52.1133H139.672V53.6367H138.734V54.6328H139.672V58.3828C139.66 59.543 140.545 60.082 141.523 60.082C141.869 60.082 142.139 60.0586 142.309 60.0352V58.9453C142.133 58.9629 141.857 58.9805 141.676 58.9805C141.271 58.9746 140.92 58.8457 140.914 58.125V54.6328H142.215V53.6367ZM146.059 60.1289C147.852 60.1289 149.023 58.8164 149.023 56.8477C149.023 54.8672 147.852 53.5547 146.059 53.5547C144.254 53.5547 143.076 54.8672 143.082 56.8477C143.076 58.8164 144.254 60.1289 146.059 60.1289ZM144.336 56.8477C144.336 55.6289 144.893 54.5918 146.059 54.5859C147.207 54.5918 147.758 55.6289 147.758 56.8477C147.758 58.0605 147.207 59.0859 146.059 59.0859C144.893 59.0859 144.336 58.0605 144.336 56.8477ZM150.254 60H151.508V56.1211C151.508 55.2891 152.152 54.6855 153.02 54.6914C153.277 54.6855 153.57 54.7383 153.676 54.7617V53.5664C153.547 53.5547 153.301 53.5371 153.148 53.543C152.404 53.5371 151.766 53.9648 151.531 54.6445H151.461V53.6367H150.254V60ZM157.648 60H158.938V56.2969H162.535V55.1953H158.938V52.6289H162.91V51.5156H157.648V60ZM164.164 60H165.418V56.1211C165.418 55.2891 166.062 54.6855 166.93 54.6914C167.188 54.6855 167.48 54.7383 167.586 54.7617V53.5664C167.457 53.5547 167.211 53.5371 167.059 53.543C166.314 53.5371 165.676 53.9648 165.441 54.6445H165.371V53.6367H164.164V60ZM168.16 58.207C168.154 59.4492 169.098 60.1406 170.305 60.1406C171.359 60.1406 171.945 59.6074 172.191 59.1328H172.238V60H173.457V55.7695C173.451 53.9238 171.975 53.5547 170.961 53.5547C169.455 53.5547 168.471 54.3164 168.359 55.3711H169.602C169.73 54.9023 170.176 54.5625 170.914 54.5625C171.764 54.5625 172.209 54.9785 172.203 55.6992L172.209 56.209C171.916 56.2207 170.961 56.2734 170.539 56.2969C169.391 56.3789 168.154 56.7539 168.16 58.207ZM169.379 58.2188C169.379 57.5918 169.895 57.2812 170.715 57.2227C171.014 57.2051 171.922 57.1406 172.209 57.123L172.215 57.7031C172.215 58.459 171.605 59.1387 170.586 59.1445C169.883 59.1387 169.379 58.8281 169.379 58.2188ZM174.969 60H176.223V56.0742C176.223 55.2188 176.82 54.6328 177.523 54.6328C178.209 54.6328 178.684 55.084 178.684 55.7812V60H179.926V55.9453C179.926 55.1836 180.389 54.6328 181.191 54.6328C181.848 54.6328 182.387 54.9902 182.387 55.8516V60H183.641V55.7344C183.635 54.2754 182.82 53.5547 181.672 53.5547C180.752 53.5547 180.061 53.9941 179.762 54.6797H179.691C179.422 53.9707 178.83 53.5547 177.98 53.5547C177.143 53.5547 176.516 53.9707 176.246 54.6797H176.176V53.6367H174.969V60ZM187.895 60.1289C189.295 60.1289 190.273 59.4375 190.555 58.4062H189.289C189.078 58.793 188.615 59.0977 187.906 59.0977C186.863 59.0977 186.148 58.4121 186.113 57.1992H190.637V56.7539C190.637 54.4512 189.26 53.5547 187.812 53.5547C186.037 53.5547 184.865 54.9023 184.871 56.8594C184.865 58.834 186.02 60.1289 187.895 60.1289ZM186.119 56.2617C186.172 55.3652 186.822 54.5801 187.824 54.5859C188.779 54.5801 189.406 55.2949 189.406 56.2617H186.119ZM193.227 60H194.516L195.793 55.418H195.887L197.176 60H198.453L200.316 53.6367H199.027L197.797 58.2773H197.727L196.496 53.6367H195.207L193.965 58.3008H193.895L192.652 53.6367H191.363L193.227 60ZM203.844 60.1289C205.637 60.1289 206.809 58.8164 206.809 56.8477C206.809 54.8672 205.637 53.5547 203.844 53.5547C202.039 53.5547 200.861 54.8672 200.867 56.8477C200.861 58.8164 202.039 60.1289 203.844 60.1289ZM202.121 56.8477C202.121 55.6289 202.678 54.5918 203.844 54.5859C204.992 54.5918 205.543 55.6289 205.543 56.8477C205.543 58.0605 204.992 59.0859 203.844 59.0859C202.678 59.0859 202.121 58.0605 202.121 56.8477ZM208.039 60H209.293V56.1211C209.293 55.2891 209.938 54.6855 210.805 54.6914C211.062 54.6855 211.355 54.7383 211.461 54.7617V53.5664C211.332 53.5547 211.086 53.5371 210.934 53.543C210.189 53.5371 209.551 53.9648 209.316 54.6445H209.246V53.6367H208.039V60ZM212.398 60H213.652V57.7383L214.256 57.1406L216.418 60H217.953L215.205 56.3672L217.777 53.6367H216.277L213.758 56.3203H213.652V51.5156H212.398V60ZM223.062 60H224.352L225.629 55.418H225.723L227.012 60H228.289L230.152 53.6367H228.863L227.633 58.2773H227.562L226.332 53.6367H225.043L223.801 58.3008H223.73L222.488 53.6367H221.199L223.062 60ZM231.184 60H232.438V53.6367H231.184V60ZM231.02 51.9141C231.025 52.3242 231.383 52.6582 231.816 52.6523C232.244 52.6582 232.602 52.3242 232.602 51.9141C232.602 51.5039 232.244 51.1758 231.816 51.1758C231.383 51.1758 231.025 51.5039 231.02 51.9141ZM236.938 53.6367H235.637V52.1133H234.395V53.6367H233.457V54.6328H234.395V58.3828C234.383 59.543 235.268 60.082 236.246 60.082C236.592 60.082 236.861 60.0586 237.031 60.0352V58.9453C236.855 58.9629 236.58 58.9805 236.398 58.9805C235.994 58.9746 235.643 58.8457 235.637 58.125V54.6328H236.938V53.6367ZM239.551 56.2266C239.551 55.2129 240.189 54.6328 241.074 54.6328C241.918 54.6328 242.422 55.1719 242.422 56.1094V60H243.676V55.957C243.676 54.3633 242.803 53.5547 241.496 53.5547C240.506 53.5547 239.908 53.9883 239.609 54.6797H239.527V51.5156H238.297V60H239.551V56.2266ZM253.965 54.2812H255.266C254.979 52.459 253.555 51.3984 251.762 51.3984C249.564 51.3984 247.941 53.0449 247.941 55.7578C247.941 58.4707 249.553 60.1172 251.762 60.1172C253.631 60.1172 254.996 58.9453 255.266 57.2695L253.965 57.2578C253.742 58.3418 252.84 58.9395 251.773 58.9336C250.314 58.9395 249.225 57.8262 249.219 55.7578C249.225 53.7012 250.309 52.5762 251.773 52.582C252.852 52.5762 253.76 53.1855 253.965 54.2812ZM259.25 60.1289C261.043 60.1289 262.215 58.8164 262.215 56.8477C262.215 54.8672 261.043 53.5547 259.25 53.5547C257.445 53.5547 256.268 54.8672 256.273 56.8477C256.268 58.8164 257.445 60.1289 259.25 60.1289ZM257.527 56.8477C257.527 55.6289 258.084 54.5918 259.25 54.5859C260.398 54.5918 260.949 55.6289 260.949 56.8477C260.949 58.0605 260.398 59.0859 259.25 59.0859C258.084 59.0859 257.527 58.0605 257.527 56.8477ZM263.445 60H264.699V56.0742C264.699 55.2188 265.297 54.6328 266 54.6328C266.686 54.6328 267.16 55.084 267.16 55.7812V60H268.402V55.9453C268.402 55.1836 268.865 54.6328 269.668 54.6328C270.324 54.6328 270.863 54.9902 270.863 55.8516V60H272.117V55.7344C272.111 54.2754 271.297 53.5547 270.148 53.5547C269.229 53.5547 268.537 53.9941 268.238 54.6797H268.168C267.898 53.9707 267.307 53.5547 266.457 53.5547C265.619 53.5547 264.992 53.9707 264.723 54.6797H264.652V53.6367H263.445V60ZM273.629 62.3906H274.883V59.0039H274.953C275.182 59.4199 275.639 60.123 276.793 60.1289C278.334 60.123 279.453 58.8867 279.453 56.8359C279.453 54.7617 278.322 53.5547 276.781 53.5547C275.604 53.5547 275.176 54.2695 274.953 54.668H274.848V53.6367H273.629V62.3906ZM274.859 56.8125C274.859 55.4883 275.434 54.6152 276.512 54.6211C277.631 54.6152 278.188 55.5586 278.188 56.8125C278.188 58.0898 277.613 59.0566 276.512 59.0625C275.445 59.0566 274.859 58.1484 274.859 56.8125ZM283.391 60.1289C285.184 60.1289 286.355 58.8164 286.355 56.8477C286.355 54.8672 285.184 53.5547 283.391 53.5547C281.586 53.5547 280.408 54.8672 280.414 56.8477C280.408 58.8164 281.586 60.1289 283.391 60.1289ZM281.668 56.8477C281.668 55.6289 282.225 54.5918 283.391 54.5859C284.539 54.5918 285.09 55.6289 285.09 56.8477C285.09 58.0605 284.539 59.0859 283.391 59.0859C282.225 59.0859 281.668 58.0605 281.668 56.8477ZM291.16 55.3711H292.367C292.244 54.2754 291.359 53.5547 289.941 53.5547C288.465 53.5547 287.48 54.334 287.48 55.4648C287.48 56.3438 288.078 56.959 289.227 57.2109L290.223 57.4219C290.896 57.5801 291.201 57.8438 291.207 58.2539C291.201 58.7871 290.68 59.127 289.871 59.1211C289.115 59.127 288.682 58.8398 288.57 58.2656H287.293C287.451 59.4492 288.354 60.1289 289.883 60.1289C291.506 60.1289 292.479 59.3086 292.484 58.1602C292.479 57.2578 291.91 56.7012 290.738 56.4375L289.73 56.2031C289.027 56.0391 288.729 55.7695 288.734 55.3945C288.729 54.9082 289.238 54.5391 289.953 54.5391C290.645 54.5391 291.043 54.8672 291.16 55.3711ZM293.41 58.207C293.404 59.4492 294.348 60.1406 295.555 60.1406C296.609 60.1406 297.195 59.6074 297.441 59.1328H297.488V60H298.707V55.7695C298.701 53.9238 297.225 53.5547 296.211 53.5547C294.705 53.5547 293.721 54.3164 293.609 55.3711H294.852C294.98 54.9023 295.426 54.5625 296.164 54.5625C297.014 54.5625 297.459 54.9785 297.453 55.6992L297.459 56.209C297.166 56.2207 296.211 56.2734 295.789 56.2969C294.641 56.3789 293.404 56.7539 293.41 58.207ZM294.629 58.2188C294.629 57.5918 295.145 57.2812 295.965 57.2227C296.264 57.2051 297.172 57.1406 297.459 57.123L297.465 57.7031C297.465 58.459 296.855 59.1387 295.836 59.1445C295.133 59.1387 294.629 58.8281 294.629 58.2188ZM300.324 60H301.543V59.0039H301.637C301.871 59.4199 302.322 60.123 303.477 60.1289C305.018 60.123 306.143 58.8867 306.148 56.8359C306.143 54.7617 305.006 53.5547 303.465 53.5547C302.287 53.5547 301.865 54.2695 301.637 54.668H301.566V51.5156H300.324V60ZM301.543 56.8125C301.543 55.4883 302.123 54.6152 303.195 54.6211C304.314 54.6152 304.871 55.5586 304.871 56.8125C304.871 58.0898 304.297 59.0566 303.195 59.0625C302.141 59.0566 301.543 58.1484 301.543 56.8125ZM308.645 51.5156H307.391V60H308.645V51.5156ZM312.91 60.1289C314.311 60.1289 315.289 59.4375 315.57 58.4062H314.305C314.094 58.793 313.631 59.0977 312.922 59.0977C311.879 59.0977 311.164 58.4121 311.129 57.1992H315.652V56.7539C315.652 54.4512 314.275 53.5547 312.828 53.5547C311.053 53.5547 309.881 54.9023 309.887 56.8594C309.881 58.834 311.035 60.1289 312.91 60.1289ZM311.135 56.2617C311.188 55.3652 311.838 54.5801 312.84 54.5859C313.795 54.5801 314.422 55.2949 314.422 56.2617H311.135ZM319.93 60H321.219V57.0234H322.953C324.922 57.0234 325.895 55.834 325.895 54.2695C325.895 52.6992 324.928 51.5156 322.953 51.5156H319.93V60ZM321.219 55.9219V52.6172H322.824C324.072 52.623 324.594 53.3086 324.594 54.2695C324.594 55.2246 324.072 55.9277 322.824 55.9219H321.219ZM328.402 51.5156H327.148V60H328.402V51.5156ZM333.969 57.3516C333.969 58.4355 333.166 58.9453 332.469 58.9453C331.707 58.9453 331.18 58.3945 331.18 57.5273V53.6367H329.926V57.6797C329.926 59.2559 330.793 60.082 332.023 60.082C332.979 60.082 333.629 59.5781 333.922 58.8984H333.992V60H335.211V53.6367H333.969V57.3516ZM339.406 62.5195C341.047 62.5195 342.283 61.7754 342.277 60.1406V53.6367H341.059V54.668H340.977C340.742 54.2695 340.309 53.5547 339.125 53.5547C337.596 53.5547 336.453 54.7207 336.453 56.7539C336.453 58.7871 337.613 59.9062 339.113 59.9062C340.285 59.9062 340.742 59.25 340.965 58.8398H341.047V60.0938C341.041 61.084 340.414 61.5176 339.418 61.5117C338.592 61.5176 338.029 61.2246 337.906 60.6211H336.629C336.74 61.8105 337.801 62.5195 339.406 62.5195ZM337.73 56.7773C337.725 55.5586 338.287 54.6152 339.395 54.6211C340.473 54.6152 341.059 55.4883 341.059 56.7773C341.059 58.0898 340.461 58.8691 339.395 58.875C338.299 58.8691 337.725 58.0254 337.73 56.7773ZM343.801 60H345.055V53.6367H343.801V60ZM343.637 51.9141C343.643 52.3242 344 52.6582 344.434 52.6523C344.861 52.6582 345.219 52.3242 345.219 51.9141C345.219 51.5039 344.861 51.1758 344.434 51.1758C344 51.1758 343.643 51.5039 343.637 51.9141ZM347.832 56.2266C347.832 55.2129 348.447 54.6328 349.309 54.6328C350.152 54.6328 350.65 55.1836 350.656 56.1094V60H351.898V55.957C351.904 54.3809 351.037 53.5547 349.73 53.5547C348.781 53.5547 348.154 53.9941 347.855 54.6797H347.785V53.6367H346.578V60H347.832V56.2266ZM361.074 53.7539H362.328C362.287 52.3828 361.086 51.3984 359.363 51.3984C357.646 51.3984 356.346 52.3711 356.34 53.8359C356.346 55.0195 357.189 55.7109 358.555 56.0859L359.562 56.3555C360.459 56.5957 361.162 56.8945 361.168 57.6328C361.162 58.4648 360.377 59.0098 359.293 59.0156C358.303 59.0098 357.482 58.5703 357.406 57.6445H356.117C356.199 59.1914 357.395 60.1406 359.293 60.1406C361.297 60.1406 362.439 59.0918 362.445 57.6562C362.439 56.1211 361.08 55.5293 359.996 55.2656L359.176 55.043C358.502 54.8848 357.629 54.5684 357.629 53.7656C357.635 53.0449 358.291 52.5117 359.328 52.5117C360.301 52.5117 360.992 52.9629 361.074 53.7539ZM364.496 62.3906C365.545 62.3848 366.189 61.8516 366.559 60.8438L369.184 53.6367H367.836L366.23 58.5703H366.16L364.555 53.6367H363.219L365.551 60.082L365.398 60.5039C365.1 61.3066 364.777 61.3301 364.391 61.3359C364.215 61.3301 363.969 61.3242 363.828 61.3125V62.3555C363.986 62.3789 364.238 62.3848 364.496 62.3906ZM373.777 55.3711H374.984C374.861 54.2754 373.977 53.5547 372.559 53.5547C371.082 53.5547 370.098 54.334 370.098 55.4648C370.098 56.3438 370.695 56.959 371.844 57.2109L372.84 57.4219C373.514 57.5801 373.818 57.8438 373.824 58.2539C373.818 58.7871 373.297 59.127 372.488 59.1211C371.732 59.127 371.299 58.8398 371.188 58.2656H369.91C370.068 59.4492 370.971 60.1289 372.5 60.1289C374.123 60.1289 375.096 59.3086 375.102 58.1602C375.096 57.2578 374.527 56.7012 373.355 56.4375L372.348 56.2031C371.645 56.0391 371.346 55.7695 371.352 55.3945C371.346 54.9082 371.855 54.5391 372.57 54.5391C373.262 54.5391 373.66 54.8672 373.777 55.3711ZM379.297 53.6367H377.996V52.1133H376.754V53.6367H375.816V54.6328H376.754V58.3828C376.742 59.543 377.627 60.082 378.605 60.082C378.951 60.082 379.221 60.0586 379.391 60.0352V58.9453C379.215 58.9629 378.939 58.9805 378.758 58.9805C378.354 58.9746 378.002 58.8457 377.996 58.125V54.6328H379.297V53.6367ZM383.188 60.1289C384.588 60.1289 385.566 59.4375 385.848 58.4062H384.582C384.371 58.793 383.908 59.0977 383.199 59.0977C382.156 59.0977 381.441 58.4121 381.406 57.1992H385.93V56.7539C385.93 54.4512 384.553 53.5547 383.105 53.5547C381.33 53.5547 380.158 54.9023 380.164 56.8594C380.158 58.834 381.312 60.1289 383.188 60.1289ZM381.412 56.2617C381.465 55.3652 382.115 54.5801 383.117 54.5859C384.072 54.5801 384.699 55.2949 384.699 56.2617H381.412ZM387.172 60H388.426V56.0742C388.426 55.2188 389.023 54.6328 389.727 54.6328C390.412 54.6328 390.887 55.084 390.887 55.7812V60H392.129V55.9453C392.129 55.1836 392.592 54.6328 393.395 54.6328C394.051 54.6328 394.59 54.9902 394.59 55.8516V60H395.844V55.7344C395.838 54.2754 395.023 53.5547 393.875 53.5547C392.955 53.5547 392.264 53.9941 391.965 54.6797H391.895C391.625 53.9707 391.033 53.5547 390.184 53.5547C389.346 53.5547 388.719 53.9707 388.449 54.6797H388.379V53.6367H387.172V60Z" fill="#ADBAC7"/>
</g>
<path fill-rule="evenodd" clip-rule="evenodd" d="M148 18C146.895 18 146 18.8954 146 20V40C146 41.1046 146.895 42 148 42H249.818C250.923 42 251.818 41.1046 251.818 40V20C251.818 18.8954 250.923 18 249.818 18H148ZM212.908 26.0668H210.415V25.0653C210.415 23.9361 210.979 23.446 212.183 23.446C212.386 23.446 212.716 23.4673 213.142 23.5312V21.6349C212.695 21.5497 212.13 21.4858 211.587 21.4858C209.467 21.4858 208.146 22.6577 208.135 24.7244V26.0668H206.345V27.8778H208.135V37.6364H210.415V27.8778H212.908V26.0668ZM159.726 26.2798H162.006C161.931 23.7869 159.747 21.9972 156.615 21.9972C153.494 21.9972 151.128 23.7656 151.118 26.429C151.128 28.581 152.663 29.8381 155.145 30.5199L156.977 31.0099C158.607 31.4467 159.886 31.9901 159.896 33.3324C159.886 34.8452 158.458 35.8359 156.487 35.8466C154.687 35.8359 153.195 35.0369 153.057 33.3537H150.713C150.862 36.1662 153.035 37.892 156.487 37.892C160.131 37.892 162.208 35.9851 162.219 33.375C162.208 30.5838 159.736 29.5078 157.766 29.0284L156.274 28.6236C155.049 28.3359 153.462 27.7607 153.462 26.3011C153.472 24.9908 154.665 24.0213 156.551 24.0213C158.32 24.0213 159.577 24.8416 159.726 26.2798ZM169.953 26.0668H167.588V23.2969H165.329V26.0668H163.625V27.8778H165.329V34.696C165.308 36.8054 166.917 37.7855 168.696 37.7855C169.325 37.7855 169.815 37.7429 170.124 37.7003V35.7187C169.804 35.7507 169.303 35.7827 168.973 35.7827C168.238 35.772 167.599 35.5376 167.588 34.2273V27.8778H169.953V26.0668ZM175.535 37.892C173.341 37.892 171.626 36.6349 171.636 34.3764C171.626 31.7344 173.874 31.0526 175.962 30.9034C176.729 30.8608 178.465 30.7649 178.998 30.7436L178.987 29.8168C178.998 28.5064 178.188 27.75 176.643 27.75C175.301 27.75 174.491 28.3679 174.257 29.2202H171.999C172.201 27.3026 173.991 25.9176 176.729 25.9176C178.572 25.9176 181.256 26.5888 181.267 29.9446V37.6364H179.051V36.0597H178.966C178.518 36.9226 177.453 37.892 175.535 37.892ZM176.281 32.5866C174.79 32.6932 173.852 33.2578 173.852 34.3977C173.852 35.5057 174.768 36.0703 176.047 36.081C177.901 36.0703 179.008 34.8345 179.008 33.4602L178.998 32.4055C178.758 32.4202 178.282 32.4528 177.783 32.4868L177.783 32.4869L177.783 32.4869L177.783 32.4869C177.194 32.5271 176.575 32.5693 176.281 32.5866ZM188.916 37.8707C191.643 37.8707 193.423 36.2195 193.668 33.9716H191.452C191.164 35.218 190.205 35.9425 188.916 35.9318C187.009 35.9425 185.784 34.3764 185.784 31.8409C185.784 29.38 187.041 27.8246 188.916 27.8139C190.354 27.8246 191.217 28.7301 191.452 29.8168H193.668C193.423 27.473 191.516 25.9176 188.874 25.9176C185.614 25.9176 183.494 28.3785 183.504 31.9048C183.494 35.3885 185.539 37.8707 188.916 37.8707ZM198.099 37.6364H195.82V22.2102H198.099V30.946H198.291L202.872 26.0668H205.599L200.923 31.0312L205.919 37.6364H203.128L199.197 32.4375L198.099 33.5241V37.6364ZM214.974 22.2102H217.254V37.6364H214.974V22.2102ZM224.925 37.8707C228.185 37.8707 230.315 35.4844 230.315 31.9048C230.315 28.304 228.185 25.9176 224.925 25.9176C221.643 25.9176 219.502 28.304 219.513 31.9048C219.502 35.4844 221.643 37.8707 224.925 37.8707ZM221.793 31.9048C221.793 29.6889 222.805 27.8033 224.925 27.7926C227.013 27.8033 228.014 29.6889 228.014 31.9048C228.014 34.1101 227.013 35.9744 224.925 35.9744C222.805 35.9744 221.793 34.1101 221.793 31.9048ZM237.027 37.6364H234.683L231.295 26.0668H233.639L235.898 34.5469H236.026L238.284 26.0668H240.628L242.865 34.5043H242.993L245.23 26.0668H247.574L244.186 37.6364H241.864L239.52 29.3054H239.349L237.027 37.6364Z" fill="#ADBAC7"/>
</svg>
