<svg width="397" height="63" viewBox="0 0 397 63" fill="none" xmlns="http://www.w3.org/2000/svg">
<path d="M121.444 35.4255C120.852 35.1466 120.852 34.6944 121.444 34.4155L132.711 29.1135C133.304 28.8346 134.265 28.8346 134.857 29.1135L146.124 34.4155C146.717 34.6944 146.717 35.1466 146.124 35.4255L134.857 40.7276C134.265 41.0064 133.304 41.0064 132.711 40.7276L121.444 35.4255Z" fill="#A03A03"/>
<path d="M121.444 31.2894C120.852 31.0105 120.852 30.5583 121.444 30.2794L132.711 24.9774C133.304 24.6985 134.265 24.6985 134.857 24.9774L146.124 30.2794C146.717 30.5583 146.717 31.0105 146.124 31.2894L134.857 36.5915C134.265 36.8703 133.304 36.8703 132.711 36.5915L121.444 31.2894Z" fill="#CC4700"/>
<path d="M121.444 24.5212C120.852 24.2423 120.852 23.7901 121.444 23.5113L132.711 18.2092C133.304 17.9303 134.265 17.9303 134.857 18.2092L146.124 23.5113C146.717 23.7901 146.717 24.2423 146.124 24.5212L134.857 29.8233C134.265 30.1021 133.304 30.1021 132.711 29.8233L121.444 24.5212Z" fill="#FF6F0F"/>
<path d="M157.662 32.6233C158.352 33.1018 159.193 33.498 160.183 33.812C161.173 34.1259 162.073 34.2829 162.884 34.2829C164.894 34.2829 165.899 33.7522 165.899 32.6906C165.899 32.257 165.644 31.8907 165.134 31.5917C164.639 31.2927 163.806 31.0086 162.636 30.7395C160.686 30.3059 159.29 29.7003 158.45 28.9229C157.625 28.1304 157.212 27.039 157.212 25.6485C157.212 24.6318 157.49 23.7347 158.045 22.9573C158.615 22.1649 159.403 21.5518 160.408 21.1183C161.428 20.6697 162.584 20.4454 163.874 20.4454C164.939 20.4454 166.027 20.5725 167.137 20.8267C168.248 21.0809 169.043 21.3874 169.523 21.7462L168.825 25.1776C168.225 24.7888 167.482 24.4748 166.597 24.2356C165.712 23.9964 164.849 23.8768 164.009 23.8768C163.304 23.8768 162.726 24.0039 162.276 24.258C161.841 24.5122 161.623 24.8486 161.623 25.2673C161.623 25.7158 161.848 26.0821 162.298 26.3662C162.764 26.6353 163.559 26.8745 164.684 27.0838C166.68 27.4576 168.113 28.0557 168.983 28.878C169.868 29.7003 170.311 30.8441 170.311 32.3093C170.311 34.0138 169.665 35.3519 168.375 36.3238C167.1 37.2807 165.322 37.7591 163.041 37.7591C161.916 37.7591 160.746 37.5872 159.53 37.2433C158.315 36.8994 157.422 36.4957 156.852 36.0322L157.662 32.6233Z" fill="white"/>
<path d="M176.922 37.7143C175.511 37.7143 174.363 37.3853 173.478 36.7275C172.593 36.0547 172.15 34.9856 172.15 33.5204V28.6089H169.922V25.4691H172.33V21.9705H176.111V25.4691H179.51V28.6089H176.111V32.556C176.111 33.1242 176.254 33.5503 176.539 33.8344C176.839 34.1185 177.222 34.2605 177.687 34.2605C178.347 34.2605 178.992 34.1334 179.622 33.8792L179.802 37.2209C178.917 37.5498 177.957 37.7143 176.922 37.7143Z" fill="white"/>
<path d="M185.531 37.7591C184.495 37.7591 183.558 37.49 182.717 36.9517C181.877 36.3985 181.217 35.6435 180.737 34.6866C180.257 33.7148 180.017 32.6308 180.017 31.4347C180.017 30.2386 180.257 29.1621 180.737 28.2052C181.217 27.2334 181.877 26.4783 182.717 25.9401C183.558 25.3869 184.495 25.1103 185.531 25.1103C186.431 25.1103 187.226 25.3046 187.916 25.6934C188.606 26.0821 189.101 26.6054 189.402 27.2633V25.4691H193.363V37.4003H189.402V35.6061C189.207 36.264 188.756 36.7873 188.051 37.176C187.346 37.5647 186.506 37.7591 185.531 37.7591ZM184.158 31.4347C184.158 32.3168 184.398 33.042 184.878 33.6101C185.358 34.1633 185.988 34.4399 186.768 34.4399C187.549 34.4399 188.179 34.1633 188.659 33.6101C189.154 33.042 189.402 32.3168 189.402 31.4347C189.402 30.5526 189.154 29.8349 188.659 29.2817C188.179 28.7135 187.549 28.4295 186.768 28.4295C185.988 28.4295 185.358 28.7061 184.878 29.2593C184.398 29.8125 184.158 30.5376 184.158 31.4347Z" fill="white"/>
<path d="M200.956 37.7591C199.606 37.7591 198.413 37.49 197.378 36.9517C196.358 36.3985 195.57 35.6435 195.015 34.6866C194.46 33.7148 194.182 32.6308 194.182 31.4347C194.182 30.2386 194.467 29.1621 195.037 28.2052C195.608 27.2334 196.403 26.4783 197.423 25.9401C198.443 25.3869 199.606 25.1103 200.911 25.1103C202.217 25.1103 203.282 25.3495 204.107 25.8279C204.932 26.3064 205.525 26.8745 205.885 27.5324C206.26 28.1902 206.463 28.8257 206.493 29.4387L202.712 30.4255C202.607 29.8872 202.389 29.4536 202.059 29.1247C201.744 28.7808 201.309 28.6089 200.754 28.6089C200.109 28.6089 199.561 28.8705 199.111 29.3938C198.676 29.9022 198.458 30.5825 198.458 31.4347C198.458 32.3019 198.713 32.9896 199.223 33.498C199.749 34.0063 200.454 34.2605 201.339 34.2605C201.984 34.2605 202.599 34.1409 203.184 33.9017C203.77 33.6475 204.302 33.3111 204.782 32.8924L205.975 35.9874C205.39 36.5406 204.67 36.9742 203.815 37.2881C202.974 37.6021 202.022 37.7591 200.956 37.7591Z" fill="white"/>
<path d="M207.395 20.4454H211.356V29.3938C212.032 29.0799 212.737 28.5491 213.472 27.8015C214.222 27.039 214.777 26.2615 215.137 25.4691H219.706C219.196 26.6802 218.513 27.7791 217.658 28.7659C216.803 29.7377 215.858 30.5451 214.822 31.188L220.426 37.4003H215.205L211.379 32.5785H211.356V37.4003H207.395V20.4454Z" fill="white"/>
<path d="M228.334 23.4282C227.793 23.1442 227.086 23.047 226.441 23.047C225.901 23.047 225.495 23.1741 225.225 23.4282C224.955 23.6824 224.82 24.0562 224.82 24.5496C224.82 24.7888 224.873 25.0056 224.978 25.2C225.098 25.3794 225.218 25.4691 225.338 25.4691H228.334V28.6089H225.315V37.4003H221.354V28.6089H219.706V25.4691H221.602C221.467 25.4691 221.324 25.2822 221.174 24.9084C221.024 24.5346 220.949 24.1683 220.949 23.8095C220.949 22.5835 221.362 21.5967 222.187 20.8491C223.027 20.1016 223.823 19.7278 225.279 19.7278C226.329 19.7278 227.63 20.0544 228.334 20.4454V23.4282ZM228.894 20.4454H232.9V37.4003H228.894V20.4454Z" fill="white"/>
<path d="M240.552 37.7591C239.277 37.7591 238.121 37.4825 237.086 36.9293C236.066 36.3761 235.255 35.6211 234.655 34.6642C234.07 33.6923 233.778 32.6159 233.778 31.4347C233.778 30.2535 234.07 29.1845 234.655 28.2276C235.255 27.2558 236.066 26.4933 237.086 25.9401C238.121 25.3869 239.277 25.1103 240.552 25.1103C241.812 25.1103 242.952 25.3869 243.973 25.9401C245.008 26.4933 245.818 27.2558 246.403 28.2276C247.004 29.1845 247.304 30.2535 247.304 31.4347C247.304 32.6159 247.004 33.6923 246.403 34.6642C245.818 35.6211 245.008 36.3761 243.973 36.9293C242.952 37.4825 241.812 37.7591 240.552 37.7591ZM237.919 31.4347C237.919 32.3019 238.159 33.0121 238.639 33.5653C239.134 34.1185 239.772 34.3951 240.552 34.3951C241.317 34.3951 241.94 34.1185 242.42 33.5653C242.915 32.9971 243.163 32.2869 243.163 31.4347C243.163 30.5675 242.922 29.8573 242.442 29.3041C241.962 28.7509 241.332 28.4743 240.552 28.4743C239.772 28.4743 239.134 28.7509 238.639 29.3041C238.159 29.8573 237.919 30.5675 237.919 31.4347Z" fill="white"/>
<path d="M250.706 25.4691L252.979 32.6009L255.229 25.4691H258.47L260.743 32.6009L262.994 25.4691H267L262.544 37.4003H258.92L256.782 31.0086L254.644 37.4003H251.021L246.52 25.4691H250.706Z" fill="white"/>
<path d="M2.31 54.269V60H0.704V51.816H2.761L5.126 57.052L7.491 51.816H9.548V60H7.942V54.258L5.764 59.087H4.499L2.31 54.269ZM13.7141 60.176C13.1201 60.176 12.5811 60.0403 12.0971 59.769C11.6204 59.4977 11.2427 59.1273 10.9641 58.658C10.6927 58.1813 10.5571 57.6533 10.5571 57.074C10.5571 56.4947 10.6927 55.9703 10.9641 55.501C11.2427 55.0243 11.6204 54.6503 12.0971 54.379C12.5811 54.1077 13.1201 53.972 13.7141 53.972C14.3081 53.972 14.8434 54.1077 15.3201 54.379C15.8041 54.6503 16.1817 55.0243 16.4531 55.501C16.7317 55.9703 16.8711 56.4947 16.8711 57.074C16.8711 57.6533 16.7317 58.1813 16.4531 58.658C16.1817 59.1273 15.8041 59.4977 15.3201 59.769C14.8434 60.0403 14.3081 60.176 13.7141 60.176ZM12.1851 57.074C12.1851 57.5873 12.3281 58.0053 12.6141 58.328C12.9001 58.6507 13.2667 58.812 13.7141 58.812C14.1614 58.812 14.5281 58.6507 14.8141 58.328C15.1001 58.0053 15.2431 57.5873 15.2431 57.074C15.2431 56.5607 15.1001 56.1427 14.8141 55.82C14.5281 55.4973 14.1614 55.336 13.7141 55.336C13.2667 55.336 12.9001 55.4973 12.6141 55.82C12.3281 56.1427 12.1851 56.5607 12.1851 57.074ZM19.4202 51.684V54.962C19.5669 54.654 19.8016 54.412 20.1242 54.236C20.4469 54.06 20.8246 53.972 21.2572 53.972C21.7486 53.972 22.2032 54.1077 22.6212 54.379C23.0466 54.6503 23.3839 55.0243 23.6332 55.501C23.8899 55.9703 24.0182 56.4947 24.0182 57.074C24.0182 57.6533 23.8899 58.1813 23.6332 58.658C23.3839 59.1273 23.0466 59.4977 22.6212 59.769C22.2032 60.0403 21.7486 60.176 21.2572 60.176C20.8246 60.176 20.4469 60.088 20.1242 59.912C19.8016 59.736 19.5669 59.494 19.4202 59.186V60H17.8582V51.684H19.4202ZM19.4202 57.074C19.4202 57.4113 19.4826 57.7157 19.6072 57.987C19.7392 58.2583 19.9189 58.471 20.1462 58.625C20.3736 58.779 20.6302 58.856 20.9162 58.856C21.2022 58.856 21.4589 58.779 21.6862 58.625C21.9136 58.471 22.0896 58.2583 22.2142 57.987C22.3462 57.7157 22.4122 57.4113 22.4122 57.074C22.4122 56.7367 22.3462 56.4323 22.2142 56.161C22.0896 55.8897 21.9136 55.677 21.6862 55.523C21.4589 55.369 21.2022 55.292 20.9162 55.292C20.6302 55.292 20.3736 55.369 20.1462 55.523C19.9189 55.677 19.7392 55.8897 19.6072 56.161C19.4826 56.4323 19.4202 56.7367 19.4202 57.074ZM26.55 54.148V60H24.988V54.148H26.55ZM24.812 52.443C24.812 52.179 24.9036 51.959 25.087 51.783C25.2703 51.5997 25.4976 51.508 25.769 51.508C26.0403 51.508 26.2676 51.5997 26.451 51.783C26.6343 51.959 26.726 52.179 26.726 52.443C26.726 52.707 26.6343 52.9307 26.451 53.114C26.2676 53.29 26.0403 53.378 25.769 53.378C25.4976 53.378 25.2703 53.29 25.087 53.114C24.9036 52.9307 24.812 52.707 24.812 52.443ZM29.3465 51.684V60H27.7845V51.684H29.3465ZM35.7229 59.56C35.4956 59.7433 35.1876 59.89 34.7989 60C34.4103 60.1173 34.0033 60.176 33.5779 60.176C32.9619 60.176 32.4083 60.0477 31.9169 59.791C31.4256 59.5343 31.0406 59.1713 30.7619 58.702C30.4906 58.2327 30.3549 57.69 30.3549 57.074C30.3549 56.4727 30.4906 55.9373 30.7619 55.468C31.0406 54.9913 31.4073 54.6247 31.8619 54.368C32.3239 54.104 32.8226 53.972 33.3579 53.972C33.9226 53.972 34.4139 54.093 34.8319 54.335C35.2573 54.5697 35.5799 54.907 35.7999 55.347C36.0273 55.787 36.1409 56.304 36.1409 56.898C36.1409 57.0887 36.1299 57.283 36.1079 57.481H31.9719C32.0526 57.899 32.2469 58.2253 32.5549 58.46C32.8703 58.6873 33.2699 58.801 33.7539 58.801C34.3406 58.801 34.8796 58.6323 35.3709 58.295L35.7229 59.56ZM34.6119 56.403C34.5606 56.0363 34.4249 55.7577 34.2049 55.567C33.9849 55.369 33.7026 55.27 33.3579 55.27C33.0353 55.27 32.7529 55.3653 32.5109 55.556C32.2689 55.7467 32.1039 56.029 32.0159 56.403H34.6119ZM40.6227 55.248V56.612H36.6627V55.248H40.6227ZM45.3032 52.96C45.0172 52.784 44.6908 52.696 44.3242 52.696C44.0455 52.696 43.8328 52.773 43.6862 52.927C43.5468 53.081 43.4772 53.3047 43.4772 53.598C43.4772 53.7373 43.5065 53.8657 43.5652 53.983C43.6238 54.093 43.6862 54.148 43.7522 54.148H45.3142V55.424H43.7192V60H42.1572V55.424H41.0352V54.148H42.2782C42.2122 54.148 42.1425 54.0563 42.0692 53.873C41.9958 53.6897 41.9592 53.51 41.9592 53.334C41.9592 52.7327 42.1425 52.2487 42.5092 51.882C42.8832 51.5153 43.3892 51.332 44.0272 51.332C44.5478 51.332 45.0245 51.409 45.4572 51.563L45.3032 52.96ZM45.7542 52.443C45.7542 52.179 45.8458 51.959 46.0292 51.783C46.2125 51.5997 46.4398 51.508 46.7112 51.508C46.9825 51.508 47.2098 51.5997 47.3932 51.783C47.5765 51.959 47.6682 52.179 47.6682 52.443C47.6682 52.707 47.5765 52.9307 47.3932 53.114C47.2098 53.29 46.9825 53.378 46.7112 53.378C46.4398 53.378 46.2125 53.29 46.0292 53.114C45.8458 52.9307 45.7542 52.707 45.7542 52.443ZM45.9302 54.148H47.4922V60H45.9302V54.148ZM51.5025 55.468C51.1652 55.468 50.8755 55.5707 50.6335 55.776C50.3988 55.9813 50.2815 56.2343 50.2815 56.535V60H48.7195V54.148H50.2815V54.984C50.4575 54.6613 50.6958 54.412 50.9965 54.236C51.3045 54.06 51.6528 53.972 52.0415 53.972C52.2762 53.972 52.4668 53.9867 52.6135 54.016L52.5035 55.611C52.3642 55.5597 52.2212 55.523 52.0745 55.501C51.9278 55.479 51.7372 55.468 51.5025 55.468ZM53.156 58.251C53.4347 58.4343 53.761 58.5883 54.135 58.713C54.5164 58.8377 54.8537 58.9 55.147 58.9C55.5504 58.9 55.862 58.8487 56.082 58.746C56.3094 58.636 56.423 58.4893 56.423 58.306C56.423 58.196 56.3827 58.1043 56.302 58.031C56.2287 57.9577 56.093 57.8953 55.895 57.844C55.697 57.7853 55.4074 57.723 55.026 57.657C54.3587 57.547 53.86 57.3417 53.53 57.041C53.2074 56.733 53.046 56.3187 53.046 55.798C53.046 55.446 53.1524 55.1343 53.365 54.863C53.585 54.5843 53.8857 54.368 54.267 54.214C54.6484 54.0527 55.081 53.972 55.565 53.972C55.983 53.972 56.3937 54.0233 56.797 54.126C57.2004 54.2213 57.4937 54.335 57.677 54.467L57.402 55.699C57.1674 55.5597 56.8924 55.446 56.577 55.358C56.2617 55.27 55.9464 55.226 55.631 55.226C55.3084 55.226 55.059 55.2737 54.883 55.369C54.7144 55.457 54.63 55.5817 54.63 55.743C54.63 55.9043 54.7107 56.0327 54.872 56.128C55.0407 56.216 55.3377 56.293 55.763 56.359C56.3204 56.447 56.7604 56.5643 57.083 56.711C57.413 56.8577 57.6514 57.052 57.798 57.294C57.952 57.5287 58.029 57.8293 58.029 58.196C58.029 58.592 57.9117 58.9403 57.677 59.241C57.4497 59.5343 57.1234 59.7653 56.698 59.934C56.2727 60.0953 55.774 60.176 55.202 60.176C54.7914 60.176 54.3477 60.11 53.871 59.978C53.4017 59.8387 53.057 59.681 52.837 59.505L53.156 58.251ZM61.5641 60.154C60.9407 60.154 60.4311 59.9963 60.0351 59.681C59.6464 59.3583 59.4521 58.8413 59.4521 58.13V55.424H58.3301V54.148H59.4521V52.432H61.0141V54.148H62.7081V55.424H61.0141V57.932C61.0141 58.2107 61.0837 58.4197 61.2231 58.559C61.3697 58.6983 61.5567 58.768 61.7841 58.768C62.1654 58.768 62.5174 58.6983 62.8401 58.559L62.9281 59.912C62.5101 60.0733 62.0554 60.154 61.5641 60.154ZM66.5017 57.811C66.839 58.075 67.2387 58.2877 67.7007 58.449C68.1627 58.6103 68.577 58.691 68.9437 58.691C69.5157 58.691 69.952 58.603 70.2527 58.427C70.5534 58.251 70.7037 58.0053 70.7037 57.69C70.7037 57.4333 70.557 57.217 70.2637 57.041C69.9704 56.8577 69.49 56.689 68.8227 56.535C67.9354 56.337 67.2974 56.0583 66.9087 55.699C66.52 55.3397 66.3257 54.8373 66.3257 54.192C66.3257 53.708 66.4577 53.2753 66.7217 52.894C66.9857 52.5127 67.3524 52.2157 67.8217 52.003C68.2984 51.7903 68.841 51.684 69.4497 51.684C69.9704 51.684 70.4837 51.75 70.9897 51.882C71.503 52.0067 71.866 52.1533 72.0787 52.322L71.7377 53.785C71.459 53.6017 71.118 53.4513 70.7147 53.334C70.3114 53.2093 69.9117 53.147 69.5157 53.147C69.0684 53.147 68.7164 53.235 68.4597 53.411C68.2104 53.5797 68.0857 53.807 68.0857 54.093C68.0857 54.269 68.137 54.412 68.2397 54.522C68.3497 54.632 68.522 54.7273 68.7567 54.808C68.9987 54.8887 69.3544 54.984 69.8237 55.094C70.7697 55.314 71.4444 55.611 71.8477 55.985C72.2584 56.359 72.4637 56.865 72.4637 57.503C72.4637 58.339 72.1557 58.9953 71.5397 59.472C70.931 59.9413 70.0914 60.176 69.0207 60.176C68.5 60.176 67.95 60.0917 67.3707 59.923C66.7914 59.7543 66.3697 59.549 66.1057 59.307L66.5017 57.811ZM75.9049 60.154C75.2816 60.154 74.7719 59.9963 74.3759 59.681C73.9872 59.3583 73.7929 58.8413 73.7929 58.13V55.424H72.6709V54.148H73.7929V52.432H75.3549V54.148H77.0489V55.424H75.3549V57.932C75.3549 58.2107 75.4246 58.4197 75.5639 58.559C75.7106 58.6983 75.8976 58.768 76.1249 58.768C76.5062 58.768 76.8582 58.6983 77.1809 58.559L77.2689 59.912C76.8509 60.0733 76.3962 60.154 75.9049 60.154ZM80.3601 60.176C79.8687 60.176 79.4104 60.0403 78.9851 59.769C78.5671 59.4977 78.2297 59.1273 77.9731 58.658C77.7237 58.1813 77.5991 57.6533 77.5991 57.074C77.5991 56.4947 77.7237 55.9703 77.9731 55.501C78.2297 55.0243 78.5671 54.6503 78.9851 54.379C79.4104 54.1077 79.8687 53.972 80.3601 53.972C80.7927 53.972 81.1704 54.06 81.4931 54.236C81.8157 54.412 82.0504 54.654 82.1971 54.962V54.148H83.7371V60H82.1971V59.186C82.0504 59.494 81.8157 59.736 81.4931 59.912C81.1704 60.088 80.7927 60.176 80.3601 60.176ZM79.2051 57.074C79.2051 57.4113 79.2674 57.7157 79.3921 57.987C79.5241 58.2583 79.7037 58.471 79.9311 58.625C80.1584 58.779 80.4151 58.856 80.7011 58.856C80.9871 58.856 81.2437 58.779 81.4711 58.625C81.6984 58.471 81.8744 58.2583 81.9991 57.987C82.1311 57.7157 82.1971 57.4113 82.1971 57.074C82.1971 56.7367 82.1311 56.4323 81.9991 56.161C81.8744 55.8897 81.6984 55.677 81.4711 55.523C81.2437 55.369 80.9871 55.292 80.7011 55.292C80.4151 55.292 80.1584 55.369 79.9311 55.523C79.7037 55.677 79.5241 55.8897 79.3921 56.161C79.2674 56.4323 79.2051 56.7367 79.2051 57.074ZM87.8784 60.176C87.2697 60.176 86.7234 60.0403 86.2394 59.769C85.7627 59.4977 85.3887 59.1273 85.1174 58.658C84.8461 58.1887 84.7104 57.6607 84.7104 57.074C84.7104 56.48 84.8424 55.9483 85.1064 55.479C85.3777 55.0023 85.7481 54.632 86.2174 54.368C86.6941 54.104 87.2331 53.972 87.8344 53.972C88.4724 53.972 88.9894 54.093 89.3854 54.335C89.7887 54.577 90.0784 54.863 90.2544 55.193C90.4304 55.523 90.5257 55.8347 90.5404 56.128L89.0994 56.502C89.0627 56.1867 88.9307 55.919 88.7034 55.699C88.4834 55.4717 88.1827 55.358 87.8014 55.358C87.3687 55.358 87.0204 55.512 86.7564 55.82C86.4924 56.1207 86.3604 56.5387 86.3604 57.074C86.3604 57.5873 86.5144 58.0017 86.8224 58.317C87.1377 58.6323 87.5631 58.79 88.0984 58.79C88.4137 58.79 88.7364 58.7313 89.0664 58.614C89.3964 58.4967 89.6677 58.35 89.8804 58.174L90.2544 59.461C89.9757 59.6737 89.6237 59.846 89.1984 59.978C88.7731 60.11 88.3331 60.176 87.8784 60.176ZM91.4207 51.684H92.9827V56.249C93.3861 56.0877 93.7931 55.8127 94.2037 55.424C94.6217 55.028 94.9444 54.6027 95.1717 54.148H96.9537C96.7044 54.72 96.3597 55.2517 95.9197 55.743C95.4797 56.2343 94.9921 56.634 94.4567 56.942L97.2947 60H95.1497L93.0487 57.481L92.9827 57.492V60H91.4207V51.684ZM102.181 54.324V60H100.553V51.816H102.335L105.965 57.492V51.816H107.593V60H105.811L102.181 54.324ZM111.384 60.176C110.892 60.176 110.434 60.0403 110.009 59.769C109.591 59.4977 109.253 59.1273 108.997 58.658C108.747 58.1813 108.623 57.6533 108.623 57.074C108.623 56.4947 108.747 55.9703 108.997 55.501C109.253 55.0243 109.591 54.6503 110.009 54.379C110.434 54.1077 110.892 53.972 111.384 53.972C111.816 53.972 112.194 54.06 112.517 54.236C112.839 54.412 113.074 54.654 113.221 54.962V54.148H114.761V60H113.221V59.186C113.074 59.494 112.839 59.736 112.517 59.912C112.194 60.088 111.816 60.176 111.384 60.176ZM110.229 57.074C110.229 57.4113 110.291 57.7157 110.416 57.987C110.548 58.2583 110.727 58.471 110.955 58.625C111.182 58.779 111.439 58.856 111.725 58.856C112.011 58.856 112.267 58.779 112.495 58.625C112.722 58.471 112.898 58.2583 113.023 57.987C113.155 57.7157 113.221 57.4113 113.221 57.074C113.221 56.7367 113.155 56.4323 113.023 56.161C112.898 55.8897 112.722 55.677 112.495 55.523C112.267 55.369 112.011 55.292 111.725 55.292C111.439 55.292 111.182 55.369 110.955 55.523C110.727 55.677 110.548 55.8897 110.416 56.161C110.291 56.4323 110.229 56.7367 110.229 57.074ZM115.382 54.148H117.098L118.627 58.174L120.134 54.148H121.784L119.32 60H117.868L115.382 54.148ZM123.96 54.148V60H122.398V54.148H123.96ZM122.222 52.443C122.222 52.179 122.314 51.959 122.497 51.783C122.68 51.5997 122.908 51.508 123.179 51.508C123.45 51.508 123.678 51.5997 123.861 51.783C124.044 51.959 124.136 52.179 124.136 52.443C124.136 52.707 124.044 52.9307 123.861 53.114C123.678 53.29 123.45 53.378 123.179 53.378C122.908 53.378 122.68 53.29 122.497 53.114C122.314 52.9307 122.222 52.707 122.222 52.443ZM127.613 62.398C127.276 62.398 126.935 62.354 126.59 62.266C126.245 62.1853 125.948 62.0827 125.699 61.958L125.908 60.539C126.084 60.6783 126.326 60.7957 126.634 60.891C126.949 60.9863 127.265 61.034 127.58 61.034C128.108 61.034 128.548 60.8873 128.9 60.594C129.252 60.308 129.428 59.9047 129.428 59.384V58.988C129.274 59.296 129.032 59.5343 128.702 59.703C128.379 59.8717 127.994 59.956 127.547 59.956C127.034 59.956 126.579 59.8277 126.183 59.571C125.787 59.3143 125.479 58.9587 125.259 58.504C125.039 58.0493 124.929 57.536 124.929 56.964C124.929 56.392 125.039 55.8787 125.259 55.424C125.479 54.9693 125.787 54.6137 126.183 54.357C126.579 54.1003 127.034 53.972 127.547 53.972C127.994 53.972 128.379 54.0563 128.702 54.225C129.032 54.3937 129.274 54.632 129.428 54.94V54.148H130.99V59.428C130.99 60.374 130.686 61.1037 130.077 61.617C129.476 62.1377 128.654 62.398 127.613 62.398ZM126.557 56.964C126.557 57.47 126.682 57.877 126.931 58.185C127.188 58.4857 127.54 58.636 127.987 58.636C128.434 58.636 128.786 58.482 129.043 58.174C129.3 57.866 129.428 57.4627 129.428 56.964C129.428 56.4653 129.3 56.062 129.043 55.754C128.786 55.446 128.434 55.292 127.987 55.292C127.54 55.292 127.188 55.446 126.931 55.754C126.682 56.0547 126.557 56.458 126.557 56.964ZM134.716 60.176C134.224 60.176 133.766 60.0403 133.341 59.769C132.923 59.4977 132.585 59.1273 132.329 58.658C132.079 58.1813 131.955 57.6533 131.955 57.074C131.955 56.4947 132.079 55.9703 132.329 55.501C132.585 55.0243 132.923 54.6503 133.341 54.379C133.766 54.1077 134.224 53.972 134.716 53.972C135.148 53.972 135.526 54.06 135.849 54.236C136.171 54.412 136.406 54.654 136.553 54.962V54.148H138.093V60H136.553V59.186C136.406 59.494 136.171 59.736 135.849 59.912C135.526 60.088 135.148 60.176 134.716 60.176ZM133.561 57.074C133.561 57.4113 133.623 57.7157 133.748 57.987C133.88 58.2583 134.059 58.471 134.287 58.625C134.514 58.779 134.771 58.856 135.057 58.856C135.343 58.856 135.599 58.779 135.827 58.625C136.054 58.471 136.23 58.2583 136.355 57.987C136.487 57.7157 136.553 57.4113 136.553 57.074C136.553 56.7367 136.487 56.4323 136.355 56.161C136.23 55.8897 136.054 55.677 135.827 55.523C135.599 55.369 135.343 55.292 135.057 55.292C134.771 55.292 134.514 55.369 134.287 55.523C134.059 55.677 133.88 55.8897 133.748 56.161C133.623 56.4323 133.561 56.7367 133.561 57.074ZM141.948 60.154C141.325 60.154 140.815 59.9963 140.419 59.681C140.03 59.3583 139.836 58.8413 139.836 58.13V55.424H138.714V54.148H139.836V52.432H141.398V54.148H143.092V55.424H141.398V57.932C141.398 58.2107 141.468 58.4197 141.607 58.559C141.754 58.6983 141.941 58.768 142.168 58.768C142.549 58.768 142.901 58.6983 143.224 58.559L143.312 59.912C142.894 60.0733 142.439 60.154 141.948 60.154ZM146.767 60.176C146.173 60.176 145.634 60.0403 145.15 59.769C144.673 59.4977 144.295 59.1273 144.017 58.658C143.745 58.1813 143.61 57.6533 143.61 57.074C143.61 56.4947 143.745 55.9703 144.017 55.501C144.295 55.0243 144.673 54.6503 145.15 54.379C145.634 54.1077 146.173 53.972 146.767 53.972C147.361 53.972 147.896 54.1077 148.373 54.379C148.857 54.6503 149.234 55.0243 149.506 55.501C149.784 55.9703 149.924 56.4947 149.924 57.074C149.924 57.6533 149.784 58.1813 149.506 58.658C149.234 59.1273 148.857 59.4977 148.373 59.769C147.896 60.0403 147.361 60.176 146.767 60.176ZM145.238 57.074C145.238 57.5873 145.381 58.0053 145.667 58.328C145.953 58.6507 146.319 58.812 146.767 58.812C147.214 58.812 147.581 58.6507 147.867 58.328C148.153 58.0053 148.296 57.5873 148.296 57.074C148.296 56.5607 148.153 56.1427 147.867 55.82C147.581 55.4973 147.214 55.336 146.767 55.336C146.319 55.336 145.953 55.4973 145.667 55.82C145.381 56.1427 145.238 56.5607 145.238 57.074ZM153.671 55.468C153.334 55.468 153.044 55.5707 152.802 55.776C152.568 55.9813 152.45 56.2343 152.45 56.535V60H150.888V54.148H152.45V54.984C152.626 54.6613 152.865 54.412 153.165 54.236C153.473 54.06 153.822 53.972 154.21 53.972C154.445 53.972 154.636 53.9867 154.782 54.016L154.672 55.611C154.533 55.5597 154.39 55.523 154.243 55.501C154.097 55.479 153.906 55.468 153.671 55.468ZM158.217 51.816H164.003V53.29H159.867V55.248H163.563V56.678H159.867V60H158.217V51.816ZM167.475 55.468C167.138 55.468 166.848 55.5707 166.606 55.776C166.372 55.9813 166.254 56.2343 166.254 56.535V60H164.692V54.148H166.254V54.984C166.43 54.6613 166.669 54.412 166.969 54.236C167.277 54.06 167.626 53.972 168.014 53.972C168.249 53.972 168.44 53.9867 168.586 54.016L168.476 55.611C168.337 55.5597 168.194 55.523 168.047 55.501C167.901 55.479 167.71 55.468 167.475 55.468ZM171.497 60.176C171.005 60.176 170.547 60.0403 170.122 59.769C169.704 59.4977 169.366 59.1273 169.11 58.658C168.86 58.1813 168.736 57.6533 168.736 57.074C168.736 56.4947 168.86 55.9703 169.11 55.501C169.366 55.0243 169.704 54.6503 170.122 54.379C170.547 54.1077 171.005 53.972 171.497 53.972C171.929 53.972 172.307 54.06 172.63 54.236C172.952 54.412 173.187 54.654 173.334 54.962V54.148H174.874V60H173.334V59.186C173.187 59.494 172.952 59.736 172.63 59.912C172.307 60.088 171.929 60.176 171.497 60.176ZM170.342 57.074C170.342 57.4113 170.404 57.7157 170.529 57.987C170.661 58.2583 170.84 58.471 171.068 58.625C171.295 58.779 171.552 58.856 171.838 58.856C172.124 58.856 172.38 58.779 172.608 58.625C172.835 58.471 173.011 58.2583 173.136 57.987C173.268 57.7157 173.334 57.4113 173.334 57.074C173.334 56.7367 173.268 56.4323 173.136 56.161C173.011 55.8897 172.835 55.677 172.608 55.523C172.38 55.369 172.124 55.292 171.838 55.292C171.552 55.292 171.295 55.369 171.068 55.523C170.84 55.677 170.661 55.8897 170.529 56.161C170.404 56.4323 170.342 56.7367 170.342 57.074ZM179.917 56.48C179.917 56.106 179.829 55.8163 179.653 55.611C179.484 55.3983 179.25 55.292 178.949 55.292C178.736 55.292 178.531 55.3507 178.333 55.468C178.135 55.5853 177.974 55.7393 177.849 55.93C177.732 56.1133 177.673 56.3077 177.673 56.513V60H176.111V54.148H177.673V55.061C177.842 54.7163 178.091 54.4487 178.421 54.258C178.751 54.0673 179.136 53.972 179.576 53.972C180.038 53.972 180.423 54.0857 180.731 54.313C181.046 54.5403 181.263 54.8593 181.38 55.27C181.549 54.852 181.805 54.533 182.15 54.313C182.495 54.0857 182.905 53.972 183.382 53.972C183.961 53.972 184.423 54.1553 184.768 54.522C185.113 54.8813 185.285 55.369 185.285 55.985V60H183.723V56.48C183.723 56.106 183.635 55.8163 183.459 55.611C183.29 55.3983 183.056 55.292 182.755 55.292C182.542 55.292 182.337 55.3507 182.139 55.468C181.941 55.5853 181.78 55.7393 181.655 55.93C181.538 56.1133 181.479 56.3077 181.479 56.513V60H179.917V56.48ZM191.624 59.56C191.397 59.7433 191.089 59.89 190.7 60C190.312 60.1173 189.905 60.176 189.479 60.176C188.863 60.176 188.31 60.0477 187.818 59.791C187.327 59.5343 186.942 59.1713 186.663 58.702C186.392 58.2327 186.256 57.69 186.256 57.074C186.256 56.4727 186.392 55.9373 186.663 55.468C186.942 54.9913 187.309 54.6247 187.763 54.368C188.225 54.104 188.724 53.972 189.259 53.972C189.824 53.972 190.315 54.093 190.733 54.335C191.159 54.5697 191.481 54.907 191.701 55.347C191.929 55.787 192.042 56.304 192.042 56.898C192.042 57.0887 192.031 57.283 192.009 57.481H187.873C187.954 57.899 188.148 58.2253 188.456 58.46C188.772 58.6873 189.171 58.801 189.655 58.801C190.242 58.801 190.781 58.6323 191.272 58.295L191.624 59.56ZM190.513 56.403C190.462 56.0363 190.326 55.7577 190.106 55.567C189.886 55.369 189.604 55.27 189.259 55.27C188.937 55.27 188.654 55.3653 188.412 55.556C188.17 55.7467 188.005 56.029 187.917 56.403H190.513ZM193.936 54.148L195.234 58.218L196.51 54.148H197.786L199.084 58.218L200.36 54.148H201.944L199.766 60H198.314L197.115 56.403L195.916 60H194.464L192.264 54.148H193.936ZM205.28 60.176C204.686 60.176 204.147 60.0403 203.663 59.769C203.186 59.4977 202.808 59.1273 202.53 58.658C202.258 58.1813 202.123 57.6533 202.123 57.074C202.123 56.4947 202.258 55.9703 202.53 55.501C202.808 55.0243 203.186 54.6503 203.663 54.379C204.147 54.1077 204.686 53.972 205.28 53.972C205.874 53.972 206.409 54.1077 206.886 54.379C207.37 54.6503 207.747 55.0243 208.019 55.501C208.297 55.9703 208.437 56.4947 208.437 57.074C208.437 57.6533 208.297 58.1813 208.019 58.658C207.747 59.1273 207.37 59.4977 206.886 59.769C206.409 60.0403 205.874 60.176 205.28 60.176ZM203.751 57.074C203.751 57.5873 203.894 58.0053 204.18 58.328C204.466 58.6507 204.832 58.812 205.28 58.812C205.727 58.812 206.094 58.6507 206.38 58.328C206.666 58.0053 206.809 57.5873 206.809 57.074C206.809 56.5607 206.666 56.1427 206.38 55.82C206.094 55.4973 205.727 55.336 205.28 55.336C204.832 55.336 204.466 55.4973 204.18 55.82C203.894 56.1427 203.751 56.5607 203.751 57.074ZM212.184 55.468C211.847 55.468 211.557 55.5707 211.315 55.776C211.08 55.9813 210.963 56.2343 210.963 56.535V60H209.401V54.148H210.963V54.984C211.139 54.6613 211.377 54.412 211.678 54.236C211.986 54.06 212.334 53.972 212.723 53.972C212.958 53.972 213.148 53.9867 213.295 54.016L213.185 55.611C213.046 55.5597 212.903 55.523 212.756 55.501C212.609 55.479 212.419 55.468 212.184 55.468ZM214.043 51.684H215.605V56.249C216.008 56.0877 216.415 55.8127 216.826 55.424C217.244 55.028 217.566 54.6027 217.794 54.148H219.576C219.326 54.72 218.982 55.2517 218.542 55.743C218.102 56.2343 217.614 56.634 217.079 56.942L219.917 60H217.772L215.671 57.481L215.605 57.492V60H214.043V51.684ZM224.143 54.148L225.441 58.218L226.717 54.148H227.993L229.291 58.218L230.567 54.148H232.151L229.973 60H228.521L227.322 56.403L226.123 60H224.671L222.471 54.148H224.143ZM234.325 54.148V60H232.763V54.148H234.325ZM232.587 52.443C232.587 52.179 232.679 51.959 232.862 51.783C233.046 51.5997 233.273 51.508 233.544 51.508C233.816 51.508 234.043 51.5997 234.226 51.783C234.41 51.959 234.501 52.179 234.501 52.443C234.501 52.707 234.41 52.9307 234.226 53.114C234.043 53.29 233.816 53.378 233.544 53.378C233.273 53.378 233.046 53.29 232.862 53.114C232.679 52.9307 232.587 52.707 232.587 52.443ZM238.09 60.154C237.467 60.154 236.957 59.9963 236.561 59.681C236.173 59.3583 235.978 58.8413 235.978 58.13V55.424H234.856V54.148H235.978V52.432H237.54V54.148H239.234V55.424H237.54V57.932C237.54 58.2107 237.61 58.4197 237.749 58.559C237.896 58.6983 238.083 58.768 238.31 58.768C238.692 58.768 239.044 58.6983 239.366 58.559L239.454 59.912C239.036 60.0733 238.582 60.154 238.09 60.154ZM241.826 51.684V55.105C242.017 54.731 242.288 54.4487 242.64 54.258C242.992 54.0673 243.392 53.972 243.839 53.972C244.455 53.972 244.943 54.159 245.302 54.533C245.669 54.8997 245.852 55.3983 245.852 56.029V60H244.29V56.524C244.29 56.1353 244.195 55.8347 244.004 55.622C243.814 55.402 243.55 55.292 243.212 55.292C243 55.292 242.783 55.3507 242.563 55.468C242.351 55.578 242.175 55.7283 242.035 55.919C241.896 56.1097 241.826 56.3223 241.826 56.557V60H240.264V51.684H241.826ZM253.886 60.176C253.094 60.176 252.368 59.989 251.708 59.615C251.056 59.241 250.539 58.7277 250.157 58.075C249.783 57.4223 249.596 56.7 249.596 55.908C249.596 55.116 249.783 54.3937 250.157 53.741C250.539 53.0883 251.056 52.575 251.708 52.201C252.368 51.827 253.098 51.64 253.897 51.64C254.491 51.64 255.038 51.7573 255.536 51.992C256.042 52.2267 256.457 52.5567 256.779 52.982C257.102 53.4 257.304 53.8803 257.384 54.423L255.932 54.852C255.815 54.3313 255.562 53.917 255.173 53.609C254.785 53.2937 254.323 53.136 253.787 53.136C253.333 53.136 252.915 53.257 252.533 53.499C252.159 53.7337 251.862 54.0637 251.642 54.489C251.422 54.907 251.312 55.38 251.312 55.908C251.312 56.4433 251.43 56.92 251.664 57.338C251.899 57.756 252.225 58.086 252.643 58.328C253.061 58.5627 253.534 58.68 254.062 58.68C254.539 58.68 254.99 58.6067 255.415 58.46C255.848 58.3133 256.233 58.1007 256.57 57.822L257.01 59.23C256.592 59.5527 256.127 59.791 255.613 59.945C255.1 60.099 254.524 60.176 253.886 60.176ZM260.784 60.176C260.19 60.176 259.651 60.0403 259.167 59.769C258.691 59.4977 258.313 59.1273 258.034 58.658C257.763 58.1813 257.627 57.6533 257.627 57.074C257.627 56.4947 257.763 55.9703 258.034 55.501C258.313 55.0243 258.691 54.6503 259.167 54.379C259.651 54.1077 260.19 53.972 260.784 53.972C261.378 53.972 261.914 54.1077 262.39 54.379C262.874 54.6503 263.252 55.0243 263.523 55.501C263.802 55.9703 263.941 56.4947 263.941 57.074C263.941 57.6533 263.802 58.1813 263.523 58.658C263.252 59.1273 262.874 59.4977 262.39 59.769C261.914 60.0403 261.378 60.176 260.784 60.176ZM259.255 57.074C259.255 57.5873 259.398 58.0053 259.684 58.328C259.97 58.6507 260.337 58.812 260.784 58.812C261.232 58.812 261.598 58.6507 261.884 58.328C262.17 58.0053 262.313 57.5873 262.313 57.074C262.313 56.5607 262.17 56.1427 261.884 55.82C261.598 55.4973 261.232 55.336 260.784 55.336C260.337 55.336 259.97 55.4973 259.684 55.82C259.398 56.1427 259.255 56.5607 259.255 57.074ZM268.712 56.48C268.712 56.106 268.624 55.8163 268.448 55.611C268.279 55.3983 268.045 55.292 267.744 55.292C267.531 55.292 267.326 55.3507 267.128 55.468C266.93 55.5853 266.769 55.7393 266.644 55.93C266.527 56.1133 266.468 56.3077 266.468 56.513V60H264.906V54.148H266.468V55.061C266.637 54.7163 266.886 54.4487 267.216 54.258C267.546 54.0673 267.931 53.972 268.371 53.972C268.833 53.972 269.218 54.0857 269.526 54.313C269.841 54.5403 270.058 54.8593 270.175 55.27C270.344 54.852 270.6 54.533 270.945 54.313C271.29 54.0857 271.7 53.972 272.177 53.972C272.756 53.972 273.218 54.1553 273.563 54.522C273.908 54.8813 274.08 55.369 274.08 55.985V60H272.518V56.48C272.518 56.106 272.43 55.8163 272.254 55.611C272.085 55.3983 271.851 55.292 271.55 55.292C271.337 55.292 271.132 55.3507 270.934 55.468C270.736 55.5853 270.575 55.7393 270.45 55.93C270.333 56.1133 270.274 56.3077 270.274 56.513V60H268.712V56.48ZM276.877 54.148V54.962C277.024 54.654 277.259 54.412 277.581 54.236C277.904 54.06 278.282 53.972 278.714 53.972C279.206 53.972 279.66 54.1077 280.078 54.379C280.504 54.6503 280.841 55.0243 281.09 55.501C281.347 55.9703 281.475 56.4947 281.475 57.074C281.475 57.6533 281.347 58.1813 281.09 58.658C280.841 59.1273 280.504 59.4977 280.078 59.769C279.66 60.0403 279.206 60.176 278.714 60.176C278.282 60.176 277.904 60.088 277.581 59.912C277.259 59.736 277.024 59.494 276.877 59.186V62.288H275.315V54.148H276.877ZM276.877 57.074C276.877 57.4113 276.94 57.7157 277.064 57.987C277.196 58.2583 277.376 58.471 277.603 58.625C277.831 58.779 278.087 58.856 278.373 58.856C278.659 58.856 278.916 58.779 279.143 58.625C279.371 58.471 279.547 58.2583 279.671 57.987C279.803 57.7157 279.869 57.4113 279.869 57.074C279.869 56.7367 279.803 56.4323 279.671 56.161C279.547 55.8897 279.371 55.677 279.143 55.523C278.916 55.369 278.659 55.292 278.373 55.292C278.087 55.292 277.831 55.369 277.603 55.523C277.376 55.677 277.196 55.8897 277.064 56.161C276.94 56.4323 276.877 56.7367 276.877 57.074ZM285.341 60.176C284.747 60.176 284.208 60.0403 283.724 59.769C283.247 59.4977 282.87 59.1273 282.591 58.658C282.32 58.1813 282.184 57.6533 282.184 57.074C282.184 56.4947 282.32 55.9703 282.591 55.501C282.87 55.0243 283.247 54.6503 283.724 54.379C284.208 54.1077 284.747 53.972 285.341 53.972C285.935 53.972 286.47 54.1077 286.947 54.379C287.431 54.6503 287.809 55.0243 288.08 55.501C288.359 55.9703 288.498 56.4947 288.498 57.074C288.498 57.6533 288.359 58.1813 288.08 58.658C287.809 59.1273 287.431 59.4977 286.947 59.769C286.47 60.0403 285.935 60.176 285.341 60.176ZM283.812 57.074C283.812 57.5873 283.955 58.0053 284.241 58.328C284.527 58.6507 284.894 58.812 285.341 58.812C285.788 58.812 286.155 58.6507 286.441 58.328C286.727 58.0053 286.87 57.5873 286.87 57.074C286.87 56.5607 286.727 56.1427 286.441 55.82C286.155 55.4973 285.788 55.336 285.341 55.336C284.894 55.336 284.527 55.4973 284.241 55.82C283.955 56.1427 283.812 56.5607 283.812 57.074ZM289.42 58.251C289.698 58.4343 290.025 58.5883 290.399 58.713C290.78 58.8377 291.117 58.9 291.411 58.9C291.814 58.9 292.126 58.8487 292.346 58.746C292.573 58.636 292.687 58.4893 292.687 58.306C292.687 58.196 292.646 58.1043 292.566 58.031C292.492 57.9577 292.357 57.8953 292.159 57.844C291.961 57.7853 291.671 57.723 291.29 57.657C290.622 57.547 290.124 57.3417 289.794 57.041C289.471 56.733 289.31 56.3187 289.31 55.798C289.31 55.446 289.416 55.1343 289.629 54.863C289.849 54.5843 290.149 54.368 290.531 54.214C290.912 54.0527 291.345 53.972 291.829 53.972C292.247 53.972 292.657 54.0233 293.061 54.126C293.464 54.2213 293.757 54.335 293.941 54.467L293.666 55.699C293.431 55.5597 293.156 55.446 292.841 55.358C292.525 55.27 292.21 55.226 291.895 55.226C291.572 55.226 291.323 55.2737 291.147 55.369C290.978 55.457 290.894 55.5817 290.894 55.743C290.894 55.9043 290.974 56.0327 291.136 56.128C291.304 56.216 291.601 56.293 292.027 56.359C292.584 56.447 293.024 56.5643 293.347 56.711C293.677 56.8577 293.915 57.052 294.062 57.294C294.216 57.5287 294.293 57.8293 294.293 58.196C294.293 58.592 294.175 58.9403 293.941 59.241C293.713 59.5343 293.387 59.7653 292.962 59.934C292.536 60.0953 292.038 60.176 291.466 60.176C291.055 60.176 290.611 60.11 290.135 59.978C289.665 59.8387 289.321 59.681 289.101 59.505L289.42 58.251ZM297.707 60.176C297.215 60.176 296.757 60.0403 296.332 59.769C295.914 59.4977 295.576 59.1273 295.32 58.658C295.07 58.1813 294.946 57.6533 294.946 57.074C294.946 56.4947 295.07 55.9703 295.32 55.501C295.576 55.0243 295.914 54.6503 296.332 54.379C296.757 54.1077 297.215 53.972 297.707 53.972C298.139 53.972 298.517 54.06 298.84 54.236C299.162 54.412 299.397 54.654 299.544 54.962V54.148H301.084V60H299.544V59.186C299.397 59.494 299.162 59.736 298.84 59.912C298.517 60.088 298.139 60.176 297.707 60.176ZM296.552 57.074C296.552 57.4113 296.614 57.7157 296.739 57.987C296.871 58.2583 297.05 58.471 297.278 58.625C297.505 58.779 297.762 58.856 298.048 58.856C298.334 58.856 298.59 58.779 298.818 58.625C299.045 58.471 299.221 58.2583 299.346 57.987C299.478 57.7157 299.544 57.4113 299.544 57.074C299.544 56.7367 299.478 56.4323 299.346 56.161C299.221 55.8897 299.045 55.677 298.818 55.523C298.59 55.369 298.334 55.292 298.048 55.292C297.762 55.292 297.505 55.369 297.278 55.523C297.05 55.677 296.871 55.8897 296.739 56.161C296.614 56.4323 296.552 56.7367 296.552 57.074ZM303.906 51.684V54.962C304.052 54.654 304.287 54.412 304.61 54.236C304.932 54.06 305.31 53.972 305.743 53.972C306.234 53.972 306.689 54.1077 307.107 54.379C307.532 54.6503 307.869 55.0243 308.119 55.501C308.375 55.9703 308.504 56.4947 308.504 57.074C308.504 57.6533 308.375 58.1813 308.119 58.658C307.869 59.1273 307.532 59.4977 307.107 59.769C306.689 60.0403 306.234 60.176 305.743 60.176C305.31 60.176 304.932 60.088 304.61 59.912C304.287 59.736 304.052 59.494 303.906 59.186V60H302.344V51.684H303.906ZM303.906 57.074C303.906 57.4113 303.968 57.7157 304.093 57.987C304.225 58.2583 304.404 58.471 304.632 58.625C304.859 58.779 305.116 58.856 305.402 58.856C305.688 58.856 305.944 58.779 306.172 58.625C306.399 58.471 306.575 58.2583 306.7 57.987C306.832 57.7157 306.898 57.4113 306.898 57.074C306.898 56.7367 306.832 56.4323 306.7 56.161C306.575 55.8897 306.399 55.677 306.172 55.523C305.944 55.369 305.688 55.292 305.402 55.292C305.116 55.292 304.859 55.369 304.632 55.523C304.404 55.677 304.225 55.8897 304.093 56.161C303.968 56.4323 303.906 56.7367 303.906 57.074ZM311.082 51.684V60H309.52V51.684H311.082ZM317.458 59.56C317.231 59.7433 316.923 59.89 316.534 60C316.146 60.1173 315.739 60.176 315.313 60.176C314.697 60.176 314.144 60.0477 313.652 59.791C313.161 59.5343 312.776 59.1713 312.497 58.702C312.226 58.2327 312.09 57.69 312.09 57.074C312.09 56.4727 312.226 55.9373 312.497 55.468C312.776 54.9913 313.143 54.6247 313.597 54.368C314.059 54.104 314.558 53.972 315.093 53.972C315.658 53.972 316.149 54.093 316.567 54.335C316.993 54.5697 317.315 54.907 317.535 55.347C317.763 55.787 317.876 56.304 317.876 56.898C317.876 57.0887 317.865 57.283 317.843 57.481H313.707C313.788 57.899 313.982 58.2253 314.29 58.46C314.606 58.6873 315.005 58.801 315.489 58.801C316.076 58.801 316.615 58.6323 317.106 58.295L317.458 59.56ZM316.347 56.403C316.296 56.0363 316.16 55.7577 315.94 55.567C315.72 55.369 315.438 55.27 315.093 55.27C314.771 55.27 314.488 55.3653 314.246 55.556C314.004 55.7467 313.839 56.029 313.751 56.403H316.347ZM321.573 51.816H324.774C325.317 51.816 325.801 51.926 326.226 52.146C326.659 52.3587 326.992 52.6593 327.227 53.048C327.469 53.4367 327.59 53.8767 327.59 54.368C327.59 54.8593 327.469 55.2993 327.227 55.688C326.992 56.0767 326.659 56.381 326.226 56.601C325.801 56.8137 325.317 56.92 324.774 56.92H323.201V60H321.573V51.816ZM324.708 55.512C325.06 55.512 325.35 55.4057 325.577 55.193C325.804 54.973 325.918 54.698 325.918 54.368C325.918 54.038 325.804 53.7667 325.577 53.554C325.35 53.334 325.06 53.224 324.708 53.224H323.201V55.512H324.708ZM330.117 51.684V60H328.555V51.684H330.117ZM336.933 60H335.371V59.043C335.188 59.4023 334.92 59.681 334.568 59.879C334.224 60.077 333.82 60.176 333.358 60.176C332.742 60.176 332.251 59.9927 331.884 59.626C331.525 59.252 331.345 58.7497 331.345 58.119V54.148H332.907V57.624C332.907 58.0127 333.003 58.317 333.193 58.537C333.384 58.7497 333.648 58.856 333.985 58.856C334.227 58.856 334.455 58.801 334.667 58.691C334.88 58.581 335.049 58.4343 335.173 58.251C335.305 58.0603 335.371 57.8623 335.371 57.657V54.148H336.933V60ZM340.588 62.398C340.25 62.398 339.909 62.354 339.565 62.266C339.22 62.1853 338.923 62.0827 338.674 61.958L338.883 60.539C339.059 60.6783 339.301 60.7957 339.609 60.891C339.924 60.9863 340.239 61.034 340.555 61.034C341.083 61.034 341.523 60.8873 341.875 60.594C342.227 60.308 342.403 59.9047 342.403 59.384V58.988C342.249 59.296 342.007 59.5343 341.677 59.703C341.354 59.8717 340.969 59.956 340.522 59.956C340.008 59.956 339.554 59.8277 339.158 59.571C338.762 59.3143 338.454 58.9587 338.234 58.504C338.014 58.0493 337.904 57.536 337.904 56.964C337.904 56.392 338.014 55.8787 338.234 55.424C338.454 54.9693 338.762 54.6137 339.158 54.357C339.554 54.1003 340.008 53.972 340.522 53.972C340.969 53.972 341.354 54.0563 341.677 54.225C342.007 54.3937 342.249 54.632 342.403 54.94V54.148H343.965V59.428C343.965 60.374 343.66 61.1037 343.052 61.617C342.45 62.1377 341.629 62.398 340.588 62.398ZM339.532 56.964C339.532 57.47 339.656 57.877 339.906 58.185C340.162 58.4857 340.514 58.636 340.962 58.636C341.409 58.636 341.761 58.482 342.018 58.174C342.274 57.866 342.403 57.4627 342.403 56.964C342.403 56.4653 342.274 56.062 342.018 55.754C341.761 55.446 341.409 55.292 340.962 55.292C340.514 55.292 340.162 55.446 339.906 55.754C339.656 56.0547 339.532 56.458 339.532 56.964ZM346.753 54.148V60H345.191V54.148H346.753ZM345.015 52.443C345.015 52.179 345.107 51.959 345.29 51.783C345.473 51.5997 345.701 51.508 345.972 51.508C346.243 51.508 346.471 51.5997 346.654 51.783C346.837 51.959 346.929 52.179 346.929 52.443C346.929 52.707 346.837 52.9307 346.654 53.114C346.471 53.29 346.243 53.378 345.972 53.378C345.701 53.378 345.473 53.29 345.29 53.114C345.107 52.9307 345.015 52.707 345.015 52.443ZM347.986 54.148H349.548V55.105C349.731 54.7457 349.995 54.467 350.34 54.269C350.692 54.071 351.099 53.972 351.561 53.972C352.177 53.972 352.665 54.159 353.024 54.533C353.391 54.8997 353.574 55.3983 353.574 56.029V60H352.012V56.524C352.012 56.1353 351.917 55.8347 351.726 55.622C351.535 55.402 351.271 55.292 350.934 55.292C350.692 55.292 350.465 55.347 350.252 55.457C350.039 55.567 349.867 55.7173 349.735 55.908C349.61 56.0913 349.548 56.2857 349.548 56.491V60H347.986V54.148ZM357.572 57.811C357.909 58.075 358.309 58.2877 358.771 58.449C359.233 58.6103 359.647 58.691 360.014 58.691C360.586 58.691 361.022 58.603 361.323 58.427C361.624 58.251 361.774 58.0053 361.774 57.69C361.774 57.4333 361.627 57.217 361.334 57.041C361.041 56.8577 360.56 56.689 359.893 56.535C359.006 56.337 358.368 56.0583 357.979 55.699C357.59 55.3397 357.396 54.8373 357.396 54.192C357.396 53.708 357.528 53.2753 357.792 52.894C358.056 52.5127 358.423 52.2157 358.892 52.003C359.369 51.7903 359.911 51.684 360.52 51.684C361.041 51.684 361.554 51.75 362.06 51.882C362.573 52.0067 362.936 52.1533 363.149 52.322L362.808 53.785C362.529 53.6017 362.188 53.4513 361.785 53.334C361.382 53.2093 360.982 53.147 360.586 53.147C360.139 53.147 359.787 53.235 359.53 53.411C359.281 53.5797 359.156 53.807 359.156 54.093C359.156 54.269 359.207 54.412 359.31 54.522C359.42 54.632 359.592 54.7273 359.827 54.808C360.069 54.8887 360.425 54.984 360.894 55.094C361.84 55.314 362.515 55.611 362.918 55.985C363.329 56.359 363.534 56.865 363.534 57.503C363.534 58.339 363.226 58.9953 362.61 59.472C362.001 59.9413 361.162 60.176 360.091 60.176C359.57 60.176 359.02 60.0917 358.441 59.923C357.862 59.7543 357.44 59.549 357.176 59.307L357.572 57.811ZM364.998 62.398C364.763 62.398 364.492 62.3577 364.184 62.277L364.283 60.913C364.459 60.9643 364.627 60.99 364.789 60.99C365.111 60.99 365.364 60.8983 365.548 60.715C365.731 60.5317 365.903 60.2457 366.065 59.857L363.634 54.148H365.394L366.89 58.075L368.342 54.148H369.97L367.616 60C367.293 60.792 366.93 61.3897 366.527 61.793C366.123 62.1963 365.614 62.398 364.998 62.398ZM370.491 58.251C370.77 58.4343 371.096 58.5883 371.47 58.713C371.851 58.8377 372.189 58.9 372.482 58.9C372.885 58.9 373.197 58.8487 373.417 58.746C373.644 58.636 373.758 58.4893 373.758 58.306C373.758 58.196 373.718 58.1043 373.637 58.031C373.564 57.9577 373.428 57.8953 373.23 57.844C373.032 57.7853 372.742 57.723 372.361 57.657C371.694 57.547 371.195 57.3417 370.865 57.041C370.542 56.733 370.381 56.3187 370.381 55.798C370.381 55.446 370.487 55.1343 370.7 54.863C370.92 54.5843 371.221 54.368 371.602 54.214C371.983 54.0527 372.416 53.972 372.9 53.972C373.318 53.972 373.729 54.0233 374.132 54.126C374.535 54.2213 374.829 54.335 375.012 54.467L374.737 55.699C374.502 55.5597 374.227 55.446 373.912 55.358C373.597 55.27 373.281 55.226 372.966 55.226C372.643 55.226 372.394 55.2737 372.218 55.369C372.049 55.457 371.965 55.5817 371.965 55.743C371.965 55.9043 372.046 56.0327 372.207 56.128C372.376 56.216 372.673 56.293 373.098 56.359C373.655 56.447 374.095 56.5643 374.418 56.711C374.748 56.8577 374.986 57.052 375.133 57.294C375.287 57.5287 375.364 57.8293 375.364 58.196C375.364 58.592 375.247 58.9403 375.012 59.241C374.785 59.5343 374.458 59.7653 374.033 59.934C373.608 60.0953 373.109 60.176 372.537 60.176C372.126 60.176 371.683 60.11 371.206 59.978C370.737 59.8387 370.392 59.681 370.172 59.505L370.491 58.251ZM378.899 60.154C378.276 60.154 377.766 59.9963 377.37 59.681C376.981 59.3583 376.787 58.8413 376.787 58.13V55.424H375.665V54.148H376.787V52.432H378.349V54.148H380.043V55.424H378.349V57.932C378.349 58.2107 378.419 58.4197 378.558 58.559C378.705 58.6983 378.892 58.768 379.119 58.768C379.5 58.768 379.852 58.6983 380.175 58.559L380.263 59.912C379.845 60.0733 379.39 60.154 378.899 60.154ZM385.94 59.56C385.712 59.7433 385.404 59.89 385.016 60C384.627 60.1173 384.22 60.176 383.795 60.176C383.179 60.176 382.625 60.0477 382.134 59.791C381.642 59.5343 381.257 59.1713 380.979 58.702C380.707 58.2327 380.572 57.69 380.572 57.074C380.572 56.4727 380.707 55.9373 380.979 55.468C381.257 54.9913 381.624 54.6247 382.079 54.368C382.541 54.104 383.039 53.972 383.575 53.972C384.139 53.972 384.631 54.093 385.049 54.335C385.474 54.5697 385.797 54.907 386.017 55.347C386.244 55.787 386.358 56.304 386.358 56.898C386.358 57.0887 386.347 57.283 386.325 57.481H382.189C382.269 57.899 382.464 58.2253 382.772 58.46C383.087 58.6873 383.487 58.801 383.971 58.801C384.557 58.801 385.096 58.6323 385.588 58.295L385.94 59.56ZM384.829 56.403C384.777 56.0363 384.642 55.7577 384.422 55.567C384.202 55.369 383.919 55.27 383.575 55.27C383.252 55.27 382.97 55.3653 382.728 55.556C382.486 55.7467 382.321 56.029 382.233 56.403H384.829ZM391.13 56.48C391.13 56.106 391.042 55.8163 390.866 55.611C390.697 55.3983 390.463 55.292 390.162 55.292C389.949 55.292 389.744 55.3507 389.546 55.468C389.348 55.5853 389.187 55.7393 389.062 55.93C388.945 56.1133 388.886 56.3077 388.886 56.513V60H387.324V54.148H388.886V55.061C389.055 54.7163 389.304 54.4487 389.634 54.258C389.964 54.0673 390.349 53.972 390.789 53.972C391.251 53.972 391.636 54.0857 391.944 54.313C392.259 54.5403 392.476 54.8593 392.593 55.27C392.762 54.852 393.018 54.533 393.363 54.313C393.708 54.0857 394.118 53.972 394.595 53.972C395.174 53.972 395.636 54.1553 395.981 54.522C396.326 54.8813 396.498 55.369 396.498 55.985V60H394.936V56.48C394.936 56.106 394.848 55.8163 394.672 55.611C394.503 55.3983 394.269 55.292 393.968 55.292C393.755 55.292 393.55 55.3507 393.352 55.468C393.154 55.5853 392.993 55.7393 392.868 55.93C392.751 56.1133 392.692 56.3077 392.692 56.513V60H391.13V56.48Z" fill="white"/>
</svg>
