<?xml version="1.0" encoding="UTF-8"?>
<svg width="1012px" height="337px" viewBox="0 0 1012 337" version="1.1" xmlns="http://www.w3.org/2000/svg" xmlns:xlink="http://www.w3.org/1999/xlink">
    <title>GitHub Cover - Pull To Refresh</title>
    <defs>
        <rect id="path-1" x="0" y="0" width="144.793846" height="224.196923" rx="8"></rect>
        <path d="M-1.42108547e-14,68 L144.793846,68 L144.793846,216 C144.793846,220.418278 141.212124,224 136.793846,224 L8,224 C3.581722,224 -1.36697717e-14,220.418278 -1.42108547e-14,216 L-1.42108547e-14,68 L-1.42108547e-14,68 Z" id="path-3"></path>
        <filter x="-20.7%" y="-19.2%" width="141.4%" height="138.5%" filterUnits="objectBoundingBox" id="filter-4">
            <feOffset dx="0" dy="0" in="SourceAlpha" result="shadowOffsetOuter1"></feOffset>
            <feGaussianBlur stdDeviation="10" in="shadowOffsetOuter1" result="shadowBlurOuter1"></feGaussianBlur>
            <feColorMatrix values="0 0 0 0 0.91372549   0 0 0 0 0.925490196   0 0 0 0 0.937254902  0 0 0 0.5 0" type="matrix" in="shadowBlurOuter1"></feColorMatrix>
        </filter>
    </defs>
    <g id="GitHub-Cover---Pull-To-Refresh" stroke="none" stroke-width="1" fill="none" fill-rule="evenodd">
        <rect fill="#F7F7F7" x="0" y="0" width="1012" height="337"></rect>
        <path d="M638.410923,173.195231 L638.410923,171.297231 L632.638923,171.297231 C627.724923,171.297231 624.500923,167.969231 624.500923,163.133231 L624.500923,161.833231 C624.500923,157.075231 627.802923,153.513231 632.742923,153.513231 C637.188923,153.513231 640.516923,156.373231 640.516923,160.871231 L640.516923,161.885231 C640.516923,164.667231 639.684923,166.253231 638.254923,166.253231 C637.396923,166.253231 636.954923,165.863231 636.954923,164.719231 L636.954923,157.179231 L634.692923,157.179231 L634.692923,158.947231 L634.562923,158.947231 C634.172923,157.829231 633.314923,156.945231 631.728923,156.945231 C629.362923,156.945231 627.438923,158.791231 627.438923,162.535231 C627.438923,166.279231 629.362923,168.125231 631.728923,168.125231 C633.314923,168.125231 634.328923,167.215231 634.848923,165.811231 L634.978923,165.811231 C635.108923,167.189231 636.122923,168.125231 637.864923,168.125231 C641.010923,168.125231 642.544923,165.343231 642.544923,161.521231 C642.544923,154.891231 638.098923,151.641231 632.768923,151.641231 C626.502923,151.641231 622.472923,156.139231 622.472923,162.535231 C622.472923,168.931231 626.398923,173.195231 632.612923,173.195231 L638.410923,173.195231 Z M632.404923,166.123231 C630.818923,166.123231 629.960923,165.083231 629.960923,163.523231 L629.960923,161.521231 C629.960923,159.961231 630.818923,158.921231 632.404923,158.921231 C633.834923,158.921231 634.692923,159.779231 634.692923,160.871231 L634.692923,163.991231 C634.692923,165.239231 633.834923,166.123231 632.404923,166.123231 Z M648.992923,170.049231 L648.992923,165.629231 L650.864923,163.601231 L654.738923,170.049231 L658.118923,170.049231 L652.814923,161.755231 L657.546923,156.529231 L654.244923,156.529231 L650.994923,160.195231 L649.122923,162.613231 L648.992923,162.613231 L648.992923,150.809231 L646.158923,150.809231 L646.158923,170.049231 L648.992923,170.049231 Z M663.760923,170.361231 C665.736923,170.361231 667.192923,169.477231 667.712923,167.787231 L667.842923,167.787231 C668.024923,169.113231 668.804923,170.049231 670.286923,170.049231 L671.872923,170.049231 L671.872923,167.735231 L670.442923,167.735231 L670.442923,160.949231 C670.442923,157.933231 668.492923,156.217231 665.008923,156.217231 C662.382923,156.217231 660.796923,157.335231 659.912923,158.843231 L661.602923,160.377231 C662.278923,159.311231 663.240923,158.531231 664.826923,158.531231 C666.724923,158.531231 667.608923,159.493231 667.608923,161.131231 L667.608923,162.275231 L665.164923,162.275231 C661.394923,162.275231 659.392923,163.653231 659.392923,166.331231 C659.392923,168.775231 660.978923,170.361231 663.760923,170.361231 Z M664.566923,168.203231 C663.162923,168.203231 662.278923,167.579231 662.278923,166.383231 L662.278923,165.915231 C662.278923,164.745231 663.240923,164.095231 665.216923,164.095231 L667.608923,164.095231 L667.608923,166.045231 C667.608923,167.371231 666.308923,168.203231 664.566923,168.203231 Z M677.488923,170.049231 L677.488923,161.417231 C677.488923,160.013231 678.736923,159.259231 680.972923,159.259231 L682.090923,159.259231 L682.090923,156.529231 L681.336923,156.529231 C679.178923,156.529231 678.008923,157.751231 677.618923,159.129231 L677.488923,159.129231 L677.488923,156.529231 L674.654923,156.529231 L674.654923,170.049231 L677.488923,170.049231 Z M687.446923,170.049231 L687.446923,161.417231 C687.446923,160.013231 688.694923,159.259231 690.930923,159.259231 L692.048923,159.259231 L692.048923,156.529231 L691.294923,156.529231 C689.136923,156.529231 687.966923,157.751231 687.576923,159.129231 L687.446923,159.129231 L687.446923,156.529231 L684.612923,156.529231 L684.612923,170.049231 L687.446923,170.049231 Z M699.874923,170.361231 C703.644923,170.361231 706.088923,167.605231 706.088923,163.289231 C706.088923,158.973231 703.644923,156.217231 699.874923,156.217231 C696.104923,156.217231 693.660923,158.973231 693.660923,163.289231 C693.660923,167.605231 696.104923,170.361231 699.874923,170.361231 Z M699.874923,168.021231 C697.950923,168.021231 696.650923,166.825231 696.650923,164.433231 L696.650923,162.145231 C696.650923,159.753231 697.950923,158.557231 699.874923,158.557231 C701.798923,158.557231 703.098923,159.753231 703.098923,162.145231 L703.098923,164.433231 C703.098923,166.825231 701.798923,168.021231 699.874923,168.021231 Z M715.448923,170.049231 L715.448923,167.735231 L712.822923,167.735231 L712.822923,158.843231 L715.656923,158.843231 L715.656923,156.529231 L712.822923,156.529231 L712.822923,152.837231 L710.274923,152.837231 L710.274923,155.203231 C710.274923,156.139231 709.962923,156.529231 709.026923,156.529231 L707.882923,156.529231 L707.882923,158.843231 L709.988923,158.843231 L709.988923,167.111231 C709.988923,168.957231 711.028923,170.049231 712.978923,170.049231 L715.448923,170.049231 Z M722.260923,170.049231 L722.260923,158.843231 L725.094923,158.843231 L725.094923,156.529231 L722.260923,156.529231 L722.260923,153.123231 L725.094923,153.123231 L725.094923,150.809231 L722.858923,150.809231 C720.596923,150.809231 719.426923,152.109231 719.426923,154.293231 L719.426923,156.529231 L717.372923,156.529231 L717.372923,158.843231 L719.426923,158.843231 L719.426923,170.049231 L722.260923,170.049231 Z M730.398923,170.049231 L730.398923,161.417231 C730.398923,160.013231 731.646923,159.259231 733.882923,159.259231 L735.000923,159.259231 L735.000923,156.529231 L734.246923,156.529231 C732.088923,156.529231 730.918923,157.751231 730.528923,159.129231 L730.398923,159.129231 L730.398923,156.529231 L727.564923,156.529231 L727.564923,170.049231 L730.398923,170.049231 Z M740.902923,170.361231 C742.878923,170.361231 744.334923,169.477231 744.854923,167.787231 L744.984923,167.787231 C745.166923,169.113231 745.946923,170.049231 747.428923,170.049231 L749.014923,170.049231 L749.014923,167.735231 L747.584923,167.735231 L747.584923,160.949231 C747.584923,157.933231 745.634923,156.217231 742.150923,156.217231 C739.524923,156.217231 737.938923,157.335231 737.054923,158.843231 L738.744923,160.377231 C739.420923,159.311231 740.382923,158.531231 741.968923,158.531231 C743.866923,158.531231 744.750923,159.493231 744.750923,161.131231 L744.750923,162.275231 L742.306923,162.275231 C738.536923,162.275231 736.534923,163.653231 736.534923,166.331231 C736.534923,168.775231 738.120923,170.361231 740.902923,170.361231 Z M741.708923,168.203231 C740.304923,168.203231 739.420923,167.579231 739.420923,166.383231 L739.420923,165.915231 C739.420923,164.745231 740.382923,164.095231 742.358923,164.095231 L744.750923,164.095231 L744.750923,166.045231 C744.750923,167.371231 743.450923,168.203231 741.708923,168.203231 Z M754.630923,170.049231 L754.630923,160.975231 C754.630923,159.415231 756.008923,158.661231 757.412923,158.661231 C759.076923,158.661231 759.882923,159.701231 759.882923,161.807231 L759.882923,170.049231 L762.716923,170.049231 L762.716923,160.975231 C762.716923,159.415231 764.042923,158.661231 765.472923,158.661231 C767.188923,158.661231 767.968923,159.727231 767.968923,161.807231 L767.968923,170.049231 L770.802923,170.049231 L770.802923,161.469231 C770.802923,158.141231 769.216923,156.217231 766.538923,156.217231 C764.354923,156.217231 762.950923,157.465231 762.456923,158.973231 L762.378923,158.973231 C761.728923,157.101231 760.194923,156.217231 758.374923,156.217231 C756.320923,156.217231 755.306923,157.361231 754.760923,158.765231 L754.630923,158.765231 L754.630923,156.529231 L751.796923,156.529231 L751.796923,170.049231 L754.630923,170.049231 Z M780.032923,170.361231 C782.554923,170.361231 784.530923,169.269231 785.544923,167.631231 L783.880923,165.993231 C783.100923,167.241231 781.982923,168.021231 780.318923,168.021231 C778.030923,168.021231 776.756923,166.539231 776.756923,164.459231 L776.756923,164.017231 L786.038923,164.017231 L786.038923,162.951231 C786.038923,159.207231 784.010923,156.217231 780.032923,156.217231 C776.184923,156.217231 773.818923,158.973231 773.818923,163.289231 C773.818923,167.605231 776.184923,170.361231 780.032923,170.361231 Z M783.048923,162.145231 L776.756923,162.145231 L776.756923,161.963231 C776.756923,159.883231 778.082923,158.427231 780.032923,158.427231 C781.904923,158.427231 783.048923,159.805231 783.048923,161.885231 L783.048923,162.145231 Z M789.782923,173.975231 L796.984923,150.809231 L794.540923,150.809231 L787.338923,173.975231 L789.782923,173.975231 Z M802.860923,175.249231 L802.860923,167.813231 L802.990923,167.813231 C803.562923,169.399231 804.992923,170.361231 806.786923,170.361231 C810.192923,170.361231 812.168923,167.735231 812.168923,163.289231 C812.168923,158.843231 810.192923,156.217231 806.786923,156.217231 C804.992923,156.217231 803.562923,157.153231 802.990923,158.765231 L802.860923,158.765231 L802.860923,156.529231 L800.026923,156.529231 L800.026923,175.249231 L802.860923,175.249231 Z M805.928923,167.917231 C804.212923,167.917231 802.860923,166.981231 802.860923,165.603231 L802.860923,160.975231 C802.860923,159.597231 804.212923,158.661231 805.928923,158.661231 C807.878923,158.661231 809.178923,160.039231 809.178923,162.119231 L809.178923,164.459231 C809.178923,166.539231 807.878923,167.917231 805.928923,167.917231 Z M819.708923,170.361231 C821.944923,170.361231 823.010923,169.139231 823.504923,167.813231 L823.608923,167.813231 L823.608923,170.049231 L826.442923,170.049231 L826.442923,156.529231 L823.608923,156.529231 L823.608923,165.577231 C823.608923,167.163231 822.178923,167.917231 820.722923,167.917231 C818.980923,167.917231 818.122923,166.825231 818.122923,164.771231 L818.122923,156.529231 L815.288923,156.529231 L815.288923,165.135231 C815.288923,168.463231 816.926923,170.361231 819.708923,170.361231 Z M835.204923,170.049231 L835.204923,167.735231 L833.332923,167.735231 L833.332923,150.809231 L830.498923,150.809231 L830.498923,167.241231 C830.498923,168.983231 831.460923,170.049231 833.384923,170.049231 L835.204923,170.049231 Z M842.614923,170.049231 L842.614923,167.735231 L840.742923,167.735231 L840.742923,150.809231 L837.908923,150.809231 L837.908923,167.241231 C837.908923,168.983231 838.870923,170.049231 840.794923,170.049231 L842.614923,170.049231 Z M851.532923,170.049231 L851.532923,167.735231 L848.906923,167.735231 L848.906923,158.843231 L851.740923,158.843231 L851.740923,156.529231 L848.906923,156.529231 L848.906923,152.837231 L846.358923,152.837231 L846.358923,155.203231 C846.358923,156.139231 846.046923,156.529231 845.110923,156.529231 L843.966923,156.529231 L843.966923,158.843231 L846.072923,158.843231 L846.072923,167.111231 C846.072923,168.957231 847.112923,170.049231 849.062923,170.049231 L851.532923,170.049231 Z M860.112923,170.361231 C863.882923,170.361231 866.326923,167.605231 866.326923,163.289231 C866.326923,158.973231 863.882923,156.217231 860.112923,156.217231 C856.342923,156.217231 853.898923,158.973231 853.898923,163.289231 C853.898923,167.605231 856.342923,170.361231 860.112923,170.361231 Z M860.112923,168.021231 C858.188923,168.021231 856.888923,166.825231 856.888923,164.433231 L856.888923,162.145231 C856.888923,159.753231 858.188923,158.557231 860.112923,158.557231 C862.036923,158.557231 863.336923,159.753231 863.336923,162.145231 L863.336923,164.433231 C863.336923,166.825231 862.036923,168.021231 860.112923,168.021231 Z M872.306923,170.049231 L872.306923,161.417231 C872.306923,160.013231 873.554923,159.259231 875.790923,159.259231 L876.908923,159.259231 L876.908923,156.529231 L876.154923,156.529231 C873.996923,156.529231 872.826923,157.751231 872.436923,159.129231 L872.306923,159.129231 L872.306923,156.529231 L869.472923,156.529231 L869.472923,170.049231 L872.306923,170.049231 Z M884.734923,170.361231 C887.256923,170.361231 889.232923,169.269231 890.246923,167.631231 L888.582923,165.993231 C887.802923,167.241231 886.684923,168.021231 885.020923,168.021231 C882.732923,168.021231 881.458923,166.539231 881.458923,164.459231 L881.458923,164.017231 L890.740923,164.017231 L890.740923,162.951231 C890.740923,159.207231 888.712923,156.217231 884.734923,156.217231 C880.886923,156.217231 878.520923,158.973231 878.520923,163.289231 C878.520923,167.605231 880.886923,170.361231 884.734923,170.361231 Z M887.750923,162.145231 L881.458923,162.145231 L881.458923,161.963231 C881.458923,159.883231 882.784923,158.427231 884.734923,158.427231 C886.606923,158.427231 887.750923,159.805231 887.750923,161.885231 L887.750923,162.145231 Z M897.422923,170.049231 L897.422923,158.843231 L900.256923,158.843231 L900.256923,156.529231 L897.422923,156.529231 L897.422923,153.123231 L900.256923,153.123231 L900.256923,150.809231 L898.020923,150.809231 C895.758923,150.809231 894.588923,152.109231 894.588923,154.293231 L894.588923,156.529231 L892.534923,156.529231 L892.534923,158.843231 L894.588923,158.843231 L894.588923,170.049231 L897.422923,170.049231 Z M905.560923,170.049231 L905.560923,161.417231 C905.560923,160.013231 906.808923,159.259231 909.044923,159.259231 L910.162923,159.259231 L910.162923,156.529231 L909.408923,156.529231 C907.250923,156.529231 906.080923,157.751231 905.690923,159.129231 L905.560923,159.129231 L905.560923,156.529231 L902.726923,156.529231 L902.726923,170.049231 L905.560923,170.049231 Z M917.988923,170.361231 C920.510923,170.361231 922.486923,169.269231 923.500923,167.631231 L921.836923,165.993231 C921.056923,167.241231 919.938923,168.021231 918.274923,168.021231 C915.986923,168.021231 914.712923,166.539231 914.712923,164.459231 L914.712923,164.017231 L923.994923,164.017231 L923.994923,162.951231 C923.994923,159.207231 921.966923,156.217231 917.988923,156.217231 C914.140923,156.217231 911.774923,158.973231 911.774923,163.289231 C911.774923,167.605231 914.140923,170.361231 917.988923,170.361231 Z M921.004923,162.145231 L914.712923,162.145231 L914.712923,161.963231 C914.712923,159.883231 916.038923,158.427231 917.988923,158.427231 C919.860923,158.427231 921.004923,159.805231 921.004923,161.885231 L921.004923,162.145231 Z M931.430923,170.361231 C934.680923,170.361231 936.786923,168.619231 936.786923,166.019231 C936.786923,163.835231 935.460923,162.535231 932.496923,162.093231 L931.248923,161.937231 C929.818923,161.703231 929.168923,161.235231 929.168923,160.195231 C929.168923,159.181231 929.896923,158.505231 931.456923,158.505231 C932.912923,158.505231 934.056923,159.207231 934.758923,160.039231 L936.500923,158.375231 C935.278923,157.023231 933.900923,156.217231 931.456923,156.217231 C928.492923,156.217231 926.438923,157.751231 926.438923,160.377231 C926.438923,162.873231 928.128923,164.069231 930.884923,164.407231 L932.132923,164.563231 C933.536923,164.745231 934.056923,165.395231 934.056923,166.253231 C934.056923,167.397231 933.224923,168.073231 931.586923,168.073231 C929.974923,168.073231 928.752923,167.345231 927.764923,166.149231 L925.944923,167.813231 C927.218923,169.399231 928.882923,170.361231 931.430923,170.361231 Z M942.818923,170.049231 L942.818923,160.975231 C942.818923,159.415231 944.274923,158.661231 945.756923,158.661231 C947.498923,158.661231 948.304923,159.727231 948.304923,161.807231 L948.304923,170.049231 L951.138923,170.049231 L951.138923,161.469231 C951.138923,158.141231 949.500923,156.217231 946.744923,156.217231 C944.664923,156.217231 943.520923,157.309231 942.948923,158.765231 L942.818923,158.765231 L942.818923,150.809231 L939.984923,150.809231 L939.984923,170.049231 L942.818923,170.049231 Z" id="@karrotframe/pulltorefresh" fill="#000000" fill-rule="nonzero"></path>
        <path d="M834.821923,195.049231 L834.821923,190.879231 L837.626923,190.879231 C839.546923,190.879231 840.671923,189.634231 840.671923,187.729231 C840.671923,185.824231 839.546923,184.579231 837.626923,184.579231 L833.126923,184.579231 L833.126923,195.049231 L834.821923,195.049231 Z M837.521923,189.394231 L834.821923,189.394231 L834.821923,186.064231 L837.521923,186.064231 C838.376923,186.064231 838.886923,186.529231 838.886923,187.369231 L838.886923,188.089231 C838.886923,188.929231 838.376923,189.394231 837.521923,189.394231 Z M844.886923,195.229231 C846.176923,195.229231 846.791923,194.524231 847.076923,193.759231 L847.136923,193.759231 L847.136923,195.049231 L848.771923,195.049231 L848.771923,187.249231 L847.136923,187.249231 L847.136923,192.469231 C847.136923,193.384231 846.311923,193.819231 845.471923,193.819231 C844.466923,193.819231 843.971923,193.189231 843.971923,192.004231 L843.971923,187.249231 L842.336923,187.249231 L842.336923,192.214231 C842.336923,194.134231 843.281923,195.229231 844.886923,195.229231 Z M853.826923,195.049231 L853.826923,193.714231 L852.746923,193.714231 L852.746923,183.949231 L851.111923,183.949231 L851.111923,193.429231 C851.111923,194.434231 851.666923,195.049231 852.776923,195.049231 L853.826923,195.049231 Z M858.101923,195.049231 L858.101923,193.714231 L857.021923,193.714231 L857.021923,183.949231 L855.386923,183.949231 L855.386923,193.429231 C855.386923,194.434231 855.941923,195.049231 857.051923,195.049231 L858.101923,195.049231 Z M866.786923,195.049231 L866.786923,193.714231 L865.271923,193.714231 L865.271923,188.584231 L866.906923,188.584231 L866.906923,187.249231 L865.271923,187.249231 L865.271923,185.119231 L863.801923,185.119231 L863.801923,186.484231 C863.801923,187.024231 863.621923,187.249231 863.081923,187.249231 L862.421923,187.249231 L862.421923,188.584231 L863.636923,188.584231 L863.636923,193.354231 C863.636923,194.419231 864.236923,195.049231 865.361923,195.049231 L866.786923,195.049231 Z M871.736923,195.229231 C873.911923,195.229231 875.321923,193.639231 875.321923,191.149231 C875.321923,188.659231 873.911923,187.069231 871.736923,187.069231 C869.561923,187.069231 868.151923,188.659231 868.151923,191.149231 C868.151923,193.639231 869.561923,195.229231 871.736923,195.229231 Z M871.736923,193.879231 C870.626923,193.879231 869.876923,193.189231 869.876923,191.809231 L869.876923,190.489231 C869.876923,189.109231 870.626923,188.419231 871.736923,188.419231 C872.846923,188.419231 873.596923,189.109231 873.596923,190.489231 L873.596923,191.809231 C873.596923,193.189231 872.846923,193.879231 871.736923,193.879231 Z M882.491923,195.049231 L882.491923,190.819231 L884.576923,190.819231 L886.676923,195.049231 L888.566923,195.049231 L886.301923,190.639231 C887.636923,190.249231 888.341923,189.214231 888.341923,187.729231 C888.341923,185.794231 887.186923,184.579231 885.311923,184.579231 L880.796923,184.579231 L880.796923,195.049231 L882.491923,195.049231 Z M885.191923,189.394231 L882.491923,189.394231 L882.491923,186.064231 L885.191923,186.064231 C886.046923,186.064231 886.556923,186.529231 886.556923,187.369231 L886.556923,188.089231 C886.556923,188.929231 886.046923,189.394231 885.191923,189.394231 Z M893.561923,195.229231 C895.016923,195.229231 896.156923,194.599231 896.741923,193.654231 L895.781923,192.709231 C895.331923,193.429231 894.686923,193.879231 893.726923,193.879231 C892.406923,193.879231 891.671923,193.024231 891.671923,191.824231 L891.671923,191.569231 L897.026923,191.569231 L897.026923,190.954231 C897.026923,188.794231 895.856923,187.069231 893.561923,187.069231 C891.341923,187.069231 889.976923,188.659231 889.976923,191.149231 C889.976923,193.639231 891.341923,195.229231 893.561923,195.229231 Z M895.301923,190.489231 L891.671923,190.489231 L891.671923,190.384231 C891.671923,189.184231 892.436923,188.344231 893.561923,188.344231 C894.641923,188.344231 895.301923,189.139231 895.301923,190.339231 L895.301923,190.489231 Z M900.881923,195.049231 L900.881923,188.584231 L902.516923,188.584231 L902.516923,187.249231 L900.881923,187.249231 L900.881923,185.284231 L902.516923,185.284231 L902.516923,183.949231 L901.226923,183.949231 C899.921923,183.949231 899.246923,184.699231 899.246923,185.959231 L899.246923,187.249231 L898.061923,187.249231 L898.061923,188.584231 L899.246923,188.584231 L899.246923,195.049231 L900.881923,195.049231 Z M905.576923,195.049231 L905.576923,190.069231 C905.576923,189.259231 906.296923,188.824231 907.586923,188.824231 L908.231923,188.824231 L908.231923,187.249231 L907.796923,187.249231 C906.551923,187.249231 905.876923,187.954231 905.651923,188.749231 L905.576923,188.749231 L905.576923,187.249231 L903.941923,187.249231 L903.941923,195.049231 L905.576923,195.049231 Z M912.746923,195.229231 C914.201923,195.229231 915.341923,194.599231 915.926923,193.654231 L914.966923,192.709231 C914.516923,193.429231 913.871923,193.879231 912.911923,193.879231 C911.591923,193.879231 910.856923,193.024231 910.856923,191.824231 L910.856923,191.569231 L916.211923,191.569231 L916.211923,190.954231 C916.211923,188.794231 915.041923,187.069231 912.746923,187.069231 C910.526923,187.069231 909.161923,188.659231 909.161923,191.149231 C909.161923,193.639231 910.526923,195.229231 912.746923,195.229231 Z M914.486923,190.489231 L910.856923,190.489231 L910.856923,190.384231 C910.856923,189.184231 911.621923,188.344231 912.746923,188.344231 C913.826923,188.344231 914.486923,189.139231 914.486923,190.339231 L914.486923,190.489231 Z M920.501923,195.229231 C922.376923,195.229231 923.591923,194.224231 923.591923,192.724231 C923.591923,191.464231 922.826923,190.714231 921.116923,190.459231 L920.396923,190.369231 C919.571923,190.234231 919.196923,189.964231 919.196923,189.364231 C919.196923,188.779231 919.616923,188.389231 920.516923,188.389231 C921.356923,188.389231 922.016923,188.794231 922.421923,189.274231 L923.426923,188.314231 C922.721923,187.534231 921.926923,187.069231 920.516923,187.069231 C918.806923,187.069231 917.621923,187.954231 917.621923,189.469231 C917.621923,190.909231 918.596923,191.599231 920.186923,191.794231 L920.906923,191.884231 C921.716923,191.989231 922.016923,192.364231 922.016923,192.859231 C922.016923,193.519231 921.536923,193.909231 920.591923,193.909231 C919.661923,193.909231 918.956923,193.489231 918.386923,192.799231 L917.336923,193.759231 C918.071923,194.674231 919.031923,195.229231 920.501923,195.229231 Z M927.071923,195.049231 L927.071923,189.814231 C927.071923,188.914231 927.911923,188.479231 928.766923,188.479231 C929.771923,188.479231 930.236923,189.094231 930.236923,190.294231 L930.236923,195.049231 L931.871923,195.049231 L931.871923,190.099231 C931.871923,188.179231 930.926923,187.069231 929.336923,187.069231 C928.136923,187.069231 927.476923,187.699231 927.146923,188.539231 L927.071923,188.539231 L927.071923,183.949231 L925.436923,183.949231 L925.436923,195.049231 L927.071923,195.049231 Z M941.651923,195.229231 C944.516923,195.229231 945.566923,193.819231 945.566923,190.759231 L945.566923,184.579231 L943.901923,184.579231 L943.901923,191.029231 C943.901923,192.799231 943.286923,193.714231 941.651923,193.714231 C940.016923,193.714231 939.401923,192.799231 939.401923,191.029231 L939.401923,184.579231 L937.736923,184.579231 L937.736923,190.759231 C937.736923,193.819231 938.786923,195.229231 941.651923,195.229231 Z M952.196923,195.049231 L952.196923,193.669231 L950.756923,193.669231 L950.756923,185.959231 L952.196923,185.959231 L952.196923,184.579231 L947.636923,184.579231 L947.636923,185.959231 L949.061923,185.959231 L949.061923,193.669231 L947.636923,193.669231 L947.636923,195.049231 L952.196923,195.049231 Z" id="PulltoRefreshUI" fill="#000000" fill-rule="nonzero"></path>
        <g id="Screen-3" transform="translate(434.381538, 56.049231)">
            <g id="ic_window_close_outline_s" transform="translate(119.883077, 10.898462)"></g>
            <mask id="mask-2" fill="white">
                <use xlink:href="#path-1"></use>
            </mask>
            <rect stroke="#DEE2E6" x="-0.5" y="-0.5" width="145.793846" height="225.196923" rx="8"></rect>
            <path d="M8,0 L136.793846,0 C141.212124,-8.11624501e-16 144.793846,3.581722 144.793846,8 L144.793846,35.8092308 L144.793846,35.8092308 L0,35.8092308 L0,8 C-5.41083001e-16,3.581722 3.581722,8.11624501e-16 8,0 Z" id="Rectangle" fill="#FFFFFF" mask="url(#mask-2)"></path>
            <g id="Rectangle" mask="url(#mask-2)">
                <use fill="black" fill-opacity="1" filter="url(#filter-4)" xlink:href="#path-3"></use>
                <use fill="#FFFFFF" fill-rule="evenodd" xlink:href="#path-3"></use>
            </g>
            <path d="M121.779713,11.8042872 C121.506109,11.5306688 121.062507,11.5306688 120.788903,11.8042872 C120.515284,12.0778915 120.515284,12.5214931 120.788903,12.7950974 L125.898406,17.9046154 L120.788903,23.0140633 C120.515284,23.2877236 120.515284,23.7313533 120.788903,24.0050137 C121.062507,24.2785339 121.506109,24.2785339 121.779713,24.0050137 L126.889231,18.8954397 L131.998679,24.0050137 C132.272339,24.2785339 132.715969,24.2785339 132.989629,24.0050137 C133.263149,23.7313533 133.263149,23.2877236 132.989629,23.0140633 L127.880055,17.9046154 L132.989629,12.7950974 C133.263149,12.5214931 133.263149,12.0778915 132.989629,11.8042872 C132.715969,11.5306688 132.272339,11.5306688 131.998679,11.8042872 L126.889231,16.9137911 L121.779713,11.8042872 Z" id="Path" fill="#212529" fill-rule="nonzero" mask="url(#mask-2)"></path>
            <g id="Logo-Copy-2" opacity="0.05" mask="url(#mask-2)">
                <g transform="translate(50.152644, 152.823297)" id="Group">
                    <path d="M22.1740444,0 C9.92313573,0 0,9.91733611 0,22.1610847 C0,27.2952365 1.76589675,32.0082274 4.69568,35.7685924 C4.9264506,36.0493664 5.14718769,36.3401679 5.38799179,36.6209419 C5.73916444,37.0220475 6.09033709,37.4331807 6.47161026,37.8042034 C6.48164376,37.814231 6.49167726,37.8242587 6.50171077,37.8342863 C10.7358496,42.3266691 16.1037744,45.756122 22.1740444,47.5911802 C28.2443145,45.7460944 33.6122393,42.3266691 37.8463781,37.8342863 C37.8564116,37.8242587 37.8664451,37.814231 37.8764786,37.8042034 C38.2577518,37.4231531 38.6089244,37.0220475 38.9600971,36.6209419 C39.2009012,36.3401679 39.4216383,36.059394 39.6524089,35.7685924 C42.5821921,32.0082274 44.3480889,27.2952365 44.3480889,22.1610847 C44.3480889,9.91733611 34.4249532,0 22.1740444,0 Z M22.1740444,30.6344407 C17.4883979,30.6344407 13.6957333,26.8439927 13.6957333,22.1610847 C13.6957333,17.4781768 17.4883979,13.6877288 22.1740444,13.6877288 C26.8596909,13.6877288 30.6523556,17.4781768 30.6523556,22.1610847 C30.6523556,26.8439927 26.8596909,30.6344407 22.1740444,30.6344407 Z" id="Shape" fill="#FF8A3D" fill-rule="nonzero"></path>
                </g>
            </g>
            <g id="Logo-Copy" opacity="0.15" mask="url(#mask-2)">
                <g transform="translate(50.152644, 136.823297)" id="Group">
                    <path d="M22.1740444,0 C9.92313573,0 0,9.91733611 0,22.1610847 C0,27.2952365 1.76589675,32.0082274 4.69568,35.7685924 C4.9264506,36.0493664 5.14718769,36.3401679 5.38799179,36.6209419 C5.73916444,37.0220475 6.09033709,37.4331807 6.47161026,37.8042034 C6.48164376,37.814231 6.49167726,37.8242587 6.50171077,37.8342863 C10.7358496,42.3266691 16.1037744,45.756122 22.1740444,47.5911802 C28.2443145,45.7460944 33.6122393,42.3266691 37.8463781,37.8342863 C37.8564116,37.8242587 37.8664451,37.814231 37.8764786,37.8042034 C38.2577518,37.4231531 38.6089244,37.0220475 38.9600971,36.6209419 C39.2009012,36.3401679 39.4216383,36.059394 39.6524089,35.7685924 C42.5821921,32.0082274 44.3480889,27.2952365 44.3480889,22.1610847 C44.3480889,9.91733611 34.4249532,0 22.1740444,0 Z M22.1740444,30.6344407 C17.4883979,30.6344407 13.6957333,26.8439927 13.6957333,22.1610847 C13.6957333,17.4781768 17.4883979,13.6877288 22.1740444,13.6877288 C26.8596909,13.6877288 30.6523556,17.4781768 30.6523556,22.1610847 C30.6523556,26.8439927 26.8596909,30.6344407 22.1740444,30.6344407 Z" id="Shape" fill="#FF8A3D" fill-rule="nonzero"></path>
                </g>
            </g>
            <g id="Group" mask="url(#mask-2)">
                <g transform="translate(49.821538, 112.301538)" id="Group" fill-rule="nonzero">
                    <path d="M22.5051501,11.5217585 C10.2542414,11.5217585 0.331105641,21.4390947 0.331105641,33.6828433 C0.331105641,38.816995 2.09700239,43.5299859 5.02678564,47.290351 C5.25755624,47.5711249 5.47829333,47.8619265 5.71909744,48.1427004 C6.07027009,48.543806 6.42144274,48.9549392 6.8027159,49.3259619 C6.8127494,49.3359896 6.82278291,49.3460172 6.83281641,49.3560449 C11.0669552,53.8484276 16.43488,57.2778806 22.5051501,59.1129387 C28.5754202,57.2678529 33.943345,53.8484276 38.1774838,49.3560449 C38.1875173,49.3460172 38.1975508,49.3359896 38.2075843,49.3259619 C38.5888574,48.9449116 38.9400301,48.543806 39.2912027,48.1427004 C39.5320068,47.8619265 39.7527439,47.5811525 39.9835145,47.290351 C42.9132978,43.5299859 44.6791945,38.816995 44.6791945,33.6828433 C44.6791945,21.4390947 34.7560588,11.5217585 22.5051501,11.5217585 Z M22.5051501,42.1561992 C17.8195036,42.1561992 14.026839,38.3657512 14.026839,33.6828433 C14.026839,28.9999353 17.8195036,25.2094874 22.5051501,25.2094874 C27.1907966,25.2094874 30.9834612,28.9999353 30.9834612,33.6828433 C30.9834612,38.3657512 27.1907966,42.1561992 22.5051501,42.1561992 Z" id="Shape" fill="#FF8A3D"></path>
                    <path d="M29.7292732,11.0504595 C31.1941648,10.729575 32.2978503,9.42598175 32.2978503,7.87169752 C32.2978503,6.07674993 30.8329586,4.61271447 29.0369614,4.61271447 C28.5352862,4.61271447 28.0637115,4.73304615 27.6322708,4.9436266 C27.1707296,2.52696532 25.0636937,0.701934811 22.5151836,0.701934811 C19.9666735,0.701934811 17.8496041,2.52696532 17.3980964,4.9436266 C16.9766892,4.74307379 16.495081,4.61271447 15.9934058,4.61271447 C14.1974085,4.61271447 12.7325169,6.07674993 12.7325169,7.87169752 C12.7325169,9.43600939 13.8261689,10.729575 15.301094,11.0504595 C17.568666,10.2683035 19.9867405,9.82708735 22.5151836,9.82708735 C25.0436267,9.82708735 27.4617012,10.2683035 29.7292732,11.0504595 Z" id="Path" fill="#56C271"></path>
                </g>
            </g>
        </g>
        <g id="Screen-2" transform="translate(238.209231, 56.049231)">
            <rect id="Rectangle" stroke="#DEE2E6" fill-opacity="0.7" fill="#FFFFFF" x="-0.5" y="-0.5" width="145.793846" height="225.196923" rx="8"></rect>
            <path d="M8,0 L136.793846,0 C141.212124,-8.11624501e-16 144.793846,3.581722 144.793846,8 L144.793846,35.8092308 L144.793846,35.8092308 L0,35.8092308 L0,8 C-5.41083001e-16,3.581722 3.581722,8.11624501e-16 8,0 Z" id="Rectangle" fill="#FFFFFF"></path>
            <g id="ic_window_close_outline_s" transform="translate(119.883077, 10.898462)" fill="#212529" fill-rule="nonzero">
                <path d="M1.89663591,0.905825631 C1.62303159,0.632207298 1.17942995,0.632207298 0.905825631,0.905825631 C0.632207298,1.17942995 0.632207298,1.62303159 0.905825631,1.89663591 L6.01532956,7.00615385 L0.905825631,12.1156017 C0.632207298,12.3892621 0.632207298,12.8328918 0.905825631,13.1065521 C1.17942995,13.3800724 1.62303159,13.3800724 1.89663591,13.1065521 L7.00615385,7.99697814 L12.1156017,13.1065521 C12.3892621,13.3800724 12.8328918,13.3800724 13.1065521,13.1065521 C13.3800724,12.8328918 13.3800724,12.3892621 13.1065521,12.1156017 L7.99697814,7.00615385 L13.1065521,1.89663591 C13.3800724,1.62303159 13.3800724,1.17942995 13.1065521,0.905825631 C12.8328918,0.632207298 12.3892621,0.632207298 12.1156017,0.905825631 L7.00615385,6.01532956 L1.89663591,0.905825631 Z" id="Path"></path>
            </g>
        </g>
        <g id="Screen-1" transform="translate(42.036923, 56.049231)" fill="#FFFFFF">
            <rect id="Rectangle" stroke="#DEE2E6" fill-opacity="0.7" x="-0.5" y="-0.5" width="145.793846" height="225.196923" rx="8"></rect>
            <path d="M8,0 L136.793846,0 C141.212124,-8.11624501e-16 144.793846,3.581722 144.793846,8 L144.793846,35.8092308 L144.793846,35.8092308 L0,35.8092308 L0,8 C-5.41083001e-16,3.581722 3.581722,8.11624501e-16 8,0 Z" id="Rectangle"></path>
        </g>
        <path d="M506.515632,114.640609 C510.521112,114.632152 513.76559,111.382467 513.76559,107.375013 C513.76559,103.987341 511.447051,101.14126 508.310204,100.336857 C507.867491,100.223331 507.43748,100.562219 507.43748,101.019237 L507.43748,101.507298 C507.43748,101.823812 507.650797,102.097898 507.95561,102.18307 C510.226656,102.817415 511.890594,104.899948 511.890594,107.375013 C511.890594,110.35419 509.479616,112.765626 506.499982,112.765626 C503.520806,112.765626 501.10937,110.354647 501.10937,107.375013 C501.10937,104.90032 502.773022,102.817472 505.044269,102.18307 C505.349167,102.097898 505.562484,101.823755 505.562484,101.507212 L505.562484,101.019495 C505.562484,100.559272 505.127896,100.223989 504.682236,100.338802 C501.537178,101.148927 499.216608,104.011918 499.234358,107.414038 C499.255546,111.429216 502.500396,114.649061 506.515632,114.640609 Z" id="circle-notch" fill="#868E96" fill-rule="nonzero" transform="translate(506.499974, 107.477695) rotate(-315.000000) translate(-506.499974, -107.477695) "></path>
    </g>
</svg>