<?xml version="1.0" encoding="UTF-8"?>
<svg width="1012px" height="337px" viewBox="0 0 1012 337" version="1.1" xmlns="http://www.w3.org/2000/svg" xmlns:xlink="http://www.w3.org/1999/xlink">
    <title>cover</title>
    <g id="Page-1" stroke="none" stroke-width="1" fill="none" fill-rule="evenodd">
        <g id="cover" fill-rule="nonzero">
            <rect id="Rectangle" fill="#F7F7F7" x="0" y="0" width="1012" height="336.930788"></rect>
            <g id="Group-2" transform="translate(41.368531, 55.359315)">
                <path d="M744.820224,112.530085 L744.820224,107.244678 L747.05875,104.81961 L751.691254,112.530085 L755.733036,112.530085 L749.390547,102.612175 L755.049042,96.3629576 L751.100532,96.3629576 L747.214203,100.746738 L744.975677,103.638165 L744.820224,103.638165 L744.820224,89.5230199 L741.431345,89.5230199 L741.431345,112.530085 L744.820224,112.530085 Z M762.479703,112.903174 C764.84259,112.903174 766.583666,111.846091 767.205478,109.825201 L767.360931,109.825201 C767.578566,111.410823 768.511284,112.530085 770.283451,112.530085 L772.179979,112.530085 L772.179979,109.76302 L770.469995,109.76302 L770.469995,101.648366 C770.469995,98.0418523 768.138197,95.9898702 763.972053,95.9898702 C760.831899,95.9898702 758.935371,97.3267681 757.878289,99.130024 L759.89918,100.964372 C760.707536,99.6896552 761.857889,98.7569366 763.754418,98.7569366 C766.024034,98.7569366 767.081116,99.9072896 767.081116,101.866 L767.081116,103.233987 L764.158596,103.233987 C759.650455,103.233987 757.256476,104.881791 757.256476,108.084125 C757.256476,111.006645 759.153005,112.903174 762.479703,112.903174 Z M763.443512,110.322651 C761.764617,110.322651 760.707536,109.576476 760.707536,108.146306 L760.707536,107.586675 C760.707536,106.187597 761.857889,105.410332 764.220778,105.410332 L767.081116,105.410332 L767.081116,107.742128 C767.081116,109.327751 765.526584,110.322651 763.443512,110.322651 Z M778.895555,112.530085 L778.895555,102.207997 C778.895555,100.529103 780.387905,99.627474 783.0617,99.627474 L784.398596,99.627474 L784.398596,96.3629576 L783.496968,96.3629576 C780.916446,96.3629576 779.517368,97.824218 779.051008,99.4720209 L778.895555,99.4720209 L778.895555,96.3629576 L775.506676,96.3629576 L775.506676,112.530085 L778.895555,112.530085 Z M790.803267,112.530085 L790.803267,102.207997 C790.803267,100.529103 792.295616,99.627474 794.969411,99.627474 L796.306308,99.627474 L796.306308,96.3629576 L795.40468,96.3629576 C792.824157,96.3629576 791.425079,97.824218 790.95872,99.4720209 L790.803267,99.4720209 L790.803267,96.3629576 L787.414388,96.3629576 L787.414388,112.530085 L790.803267,112.530085 Z M805.664587,112.903174 C810.172728,112.903174 813.095248,109.607567 813.095248,104.446521 C813.095248,99.2854771 810.172728,95.9898702 805.664587,95.9898702 C801.156446,95.9898702 798.233926,99.2854771 798.233926,104.446521 C798.233926,109.607567 801.156446,112.903174 805.664587,112.903174 Z M805.664587,110.105017 C803.363881,110.105017 801.809349,108.674848 801.809349,105.81451 L801.809349,103.078534 C801.809349,100.218196 803.363881,98.7880272 805.664587,98.7880272 C807.965294,98.7880272 809.519825,100.218196 809.519825,103.078534 L809.519825,105.81451 C809.519825,108.674848 807.965294,110.105017 805.664587,110.105017 Z M824.287875,112.530085 L824.287875,109.76302 L821.147721,109.76302 L821.147721,99.130024 L824.5366,99.130024 L824.5366,96.3629576 L821.147721,96.3629576 L821.147721,91.9480883 L818.100839,91.9480883 L818.100839,94.777336 C818.100839,95.8965983 817.727751,96.3629576 816.608489,96.3629576 L815.240502,96.3629576 L815.240502,99.130024 L817.758842,99.130024 L817.758842,109.016845 C817.758842,111.224279 819.002468,112.530085 821.334264,112.530085 L824.287875,112.530085 Z M832.43362,112.530085 L832.43362,99.130024 L835.822498,99.130024 L835.822498,96.3629576 L832.43362,96.3629576 L832.43362,92.2900851 L835.822498,92.2900851 L835.822498,89.5230199 L833.148704,89.5230199 C830.443819,89.5230199 829.044741,91.0775509 829.044741,93.6891642 L829.044741,96.3629576 L826.58858,96.3629576 L826.58858,99.130024 L829.044741,99.130024 L829.044741,112.530085 L832.43362,112.530085 Z M842.164986,112.530085 L842.164986,102.207997 C842.164986,100.529103 843.657337,99.627474 846.331131,99.627474 L847.668028,99.627474 L847.668028,96.3629576 L846.766399,96.3629576 C844.185878,96.3629576 842.786799,97.824218 842.320439,99.4720209 L842.164986,99.4720209 L842.164986,96.3629576 L838.776107,96.3629576 L838.776107,112.530085 L842.164986,112.530085 Z M854.7256,112.903174 C857.088489,112.903174 858.829564,111.846091 859.451377,109.825201 L859.60683,109.825201 C859.824465,111.410823 860.757183,112.530085 862.529349,112.530085 L864.425878,112.530085 L864.425878,109.76302 L862.715892,109.76302 L862.715892,101.648366 C862.715892,98.0418523 860.384096,95.9898702 856.217951,95.9898702 C853.077798,95.9898702 851.181269,97.3267681 850.124187,99.130024 L852.145079,100.964372 C852.953435,99.6896552 854.103788,98.7569366 856.000317,98.7569366 C858.269932,98.7569366 859.327015,99.9072896 859.327015,101.866 L859.327015,103.233987 L856.404495,103.233987 C851.896354,103.233987 849.502375,104.881791 849.502375,108.084125 C849.502375,111.006645 851.398904,112.903174 854.7256,112.903174 Z M855.689411,110.322651 C854.010516,110.322651 852.953435,109.576476 852.953435,108.146306 L852.953435,107.586675 C852.953435,106.187597 854.103788,105.410332 856.466676,105.410332 L859.327015,105.410332 L859.327015,107.742128 C859.327015,109.327751 857.772483,110.322651 855.689411,110.322651 Z M871.141453,112.530085 L871.141453,101.679456 C871.141453,99.8140177 872.789257,98.9123897 874.468151,98.9123897 C876.457951,98.9123897 877.421761,100.156015 877.421761,102.674356 L877.421761,112.530085 L880.81064,112.530085 L880.81064,101.679456 C880.81064,99.8140177 882.396261,98.9123897 884.106247,98.9123897 C886.158228,98.9123897 887.090946,100.187105 887.090946,102.674356 L887.090946,112.530085 L890.479825,112.530085 L890.479825,102.270178 C890.479825,98.2905773 888.583297,95.9898702 885.380962,95.9898702 C882.769349,95.9898702 881.090455,97.4822212 880.499733,99.2854771 L880.406461,99.2854771 C879.629196,97.0469525 877.794848,95.9898702 875.618505,95.9898702 C873.162345,95.9898702 871.94981,97.3578587 871.296906,99.0367522 L871.141453,99.0367522 L871.141453,96.3629576 L867.752575,96.3629576 L867.752575,112.530085 L871.141453,112.530085 Z M901.516999,112.903174 C904.53279,112.903174 906.895677,111.597366 908.108213,109.638657 L906.118412,107.679947 C905.185693,109.172298 903.848797,110.105017 901.858996,110.105017 C899.12302,110.105017 897.599579,108.33285 897.599579,105.8456 L897.599579,105.31706 L908.698935,105.31706 L908.698935,104.042343 C908.698935,99.5652927 906.273865,95.9898702 901.516999,95.9898702 C896.915586,95.9898702 894.086338,99.2854771 894.086338,104.446521 C894.086338,109.607567 896.915586,112.903174 901.516999,112.903174 Z M905.123512,103.078534 L897.599579,103.078534 L897.599579,102.8609 C897.599579,100.373649 899.185201,98.6325741 901.516999,98.6325741 C903.755524,98.6325741 905.123512,100.280377 905.123512,102.767628 L905.123512,103.078534 Z" id="karrotframe" fill="#000000"></path>
                <path d="M825.173958,140.698196 C828.143113,140.698196 829.231284,139.236937 829.231284,136.065692 L829.231284,129.661023 L827.505754,129.661023 L827.505754,136.345508 C827.505754,138.179855 826.868396,139.12812 825.173958,139.12812 C823.479518,139.12812 822.84216,138.179855 822.84216,136.345508 L822.84216,129.661023 L821.11663,129.661023 L821.11663,136.065692 C821.11663,139.236937 822.204802,140.698196 825.173958,140.698196 Z M832.775616,140.511652 L835.371684,136.190055 L835.41832,136.190055 L838.045478,140.511652 L840.113005,140.511652 L836.553127,134.94643 L839.973097,129.661023 L838.029932,129.661023 L835.527137,133.702805 L835.496046,133.702805 L833.024341,129.661023 L830.956814,129.661023 L834.345693,134.961976 L830.832452,140.511652 L832.775616,140.511652 Z M852.393804,140.511652 L852.393804,138.957121 L847.201669,138.957121 L847.201669,135.785877 L851.911899,135.785877 L851.911899,134.231345 L847.201669,134.231345 L847.201669,131.215554 L852.393804,131.215554 L852.393804,129.661023 L845.445048,129.661023 L845.445048,140.511652 L852.393804,140.511652 Z M856.233496,140.511652 L856.233496,135.101883 C856.233496,134.153618 857.104034,133.702805 857.990117,133.702805 C859.031653,133.702805 859.513558,134.340162 859.513558,135.599333 L859.513558,140.511652 L861.207997,140.511652 L861.207997,135.381698 C861.207997,133.391899 860.228643,132.241545 858.580839,132.241545 C857.337214,132.241545 856.65322,132.894449 856.311223,133.764986 L856.233496,133.764986 L856.233496,132.428088 L854.539057,132.428088 L854.539057,140.511652 L856.233496,140.511652 Z M865.249779,140.511652 L865.249779,135.086338 C865.249779,134.153618 866.120317,133.702805 867.006399,133.702805 C868.047936,133.702805 868.529841,134.340162 868.529841,135.583788 L868.529841,140.511652 L870.22428,140.511652 L870.22428,135.381698 C870.22428,133.391899 869.244925,132.241545 867.597122,132.241545 C866.353496,132.241545 865.669503,132.894449 865.327506,133.764986 L865.249779,133.764986 L865.249779,129.00812 L863.55534,129.00812 L863.55534,140.511652 L865.249779,140.511652 Z M874.592513,140.698196 C875.773958,140.698196 876.644495,140.169655 876.955401,139.159211 L877.033127,139.159211 C877.141945,139.952021 877.608304,140.511652 878.494388,140.511652 L879.442651,140.511652 L879.442651,139.12812 L878.58766,139.12812 L878.58766,135.070792 C878.58766,133.267536 877.421761,132.241545 875.338688,132.241545 C873.768612,132.241545 872.820348,132.909994 872.291807,133.811622 L873.302252,134.728795 C873.706431,134.091437 874.281607,133.625078 875.229871,133.625078 C876.36468,133.625078 876.89322,134.200255 876.89322,135.17961 L876.89322,135.863604 L875.43196,135.863604 C873.177889,135.863604 871.980901,136.687505 871.980901,138.288672 C871.980901,139.749932 872.929164,140.698196 874.592513,140.698196 Z M875.074418,139.407936 C874.234972,139.407936 873.706431,139.034848 873.706431,138.319763 L873.706431,138.039947 C873.706431,137.340409 874.281607,136.951775 875.46305,136.951775 L876.89322,136.951775 L876.89322,138.117674 C876.89322,138.910484 876.115955,139.407936 875.074418,139.407936 Z M882.800439,140.511652 L882.800439,135.101883 C882.800439,134.153618 883.670978,133.702805 884.55706,133.702805 C885.598596,133.702805 886.080502,134.340162 886.080502,135.599333 L886.080502,140.511652 L887.774941,140.511652 L887.774941,135.381698 C887.774941,133.391899 886.795586,132.241545 885.147782,132.241545 C883.904157,132.241545 883.220163,132.894449 882.878166,133.764986 L882.800439,133.764986 L882.800439,132.428088 L881.106,132.428088 L881.106,140.511652 L882.800439,140.511652 Z M893.246891,140.698196 C894.801422,140.698196 895.90514,139.967567 896.433681,138.646215 L895.143419,137.962221 C894.801422,138.770577 894.226247,139.299118 893.246891,139.299118 C892.003267,139.299118 891.365908,138.444125 891.365908,137.2005 L891.365908,135.754786 C891.365908,134.511161 892.003267,133.656168 893.246891,133.656168 C894.164065,133.656168 894.739241,134.138074 894.972421,134.884249 L896.371499,134.231345 C895.889595,133.034356 894.863604,132.241545 893.246891,132.241545 C890.915094,132.241545 889.578197,133.889349 889.578197,136.46987 C889.578197,139.050393 890.915094,140.698196 893.246891,140.698196 Z M901.221637,140.698196 C902.729533,140.698196 903.910978,140.045293 904.517244,139.065939 L903.522345,138.086584 C903.055985,138.832759 902.387536,139.299118 901.392636,139.299118 C900.024649,139.299118 899.262928,138.413035 899.262928,137.16941 L899.262928,136.905139 L904.812606,136.905139 L904.812606,136.267782 C904.812606,134.029256 903.60007,132.241545 901.221637,132.241545 C898.920931,132.241545 897.506308,133.889349 897.506308,136.46987 C897.506308,139.050393 898.920931,140.698196 901.221637,140.698196 Z M903.024895,135.785877 L899.262928,135.785877 L899.262928,135.67706 C899.262928,134.433434 900.05574,133.562897 901.221637,133.562897 C902.340901,133.562897 903.024895,134.386799 903.024895,135.630423 L903.024895,135.785877 Z M908.388028,140.511652 L908.388028,135.350608 C908.388028,134.511161 909.134203,134.060346 910.4711,134.060346 L911.139549,134.060346 L911.139549,132.428088 L910.688734,132.428088 C909.398473,132.428088 908.698935,133.158718 908.465754,133.982621 L908.388028,133.982621 L908.388028,132.428088 L906.693589,132.428088 L906.693589,140.511652 L908.388028,140.511652 Z" id="UXEnhancer" fill="#000000"></path>
                <g id="Group" transform="translate(391.741936, 0.000000)">
                    <rect id="Rectangle" stroke="#DEE2E6" fill-opacity="0.8" fill="#FFFFFF" x="0" y="0" width="145.779066" height="225.060171" rx="8"></rect>
                    <path d="M10.2649165,0.603818616 L135.51415,0.603818616 C140.849827,0.603818616 145.175248,4.92923946 145.175248,10.2649165 L145.175248,36.3580428 L145.175248,36.3580428 L0.603818616,36.3580428 L0.603818616,10.2649165 C0.603818616,4.92923946 4.92923946,0.603818616 10.2649165,0.603818616 Z" id="Rectangle" fill="#FFFFFF"></path>
                    <g id="ic_backward_outline_s" transform="translate(9.931007, 11.485539)" fill="#212529">
                        <path d="M7.69960226,12.9050989 C7.95645505,13.1534989 7.95645505,13.5561789 7.69960226,13.8045788 C7.44276261,14.0528515 7.02634198,14.0528515 6.76950233,13.8045788 L0.192639598,7.44506969 C-0.0642131993,7.19672062 -0.0642131993,6.79406597 0.192639598,6.5457169 L6.76950233,0.186271341 C7.02634198,-0.0620904468 7.44276261,-0.0620904468 7.69960226,0.186271341 C7.95645505,0.434620408 7.95645505,0.837275064 7.69960226,1.08562413 L2.24548892,6.35944873 L16.4421601,6.35944873 C16.8053344,6.35944873 17.0998464,6.64417383 17.0998464,6.99539329 C17.0998464,7.34661276 16.8053344,7.63133785 16.4421601,7.63133785 L2.24548892,7.63133785 L7.69960226,12.9050989 Z" id="Path"></path>
                    </g>
                    <g id="ic_window_close_outline_s" transform="translate(121.002280, 12.185075)" fill="#212529">
                        <path d="M1.19418681,0.204898521 C0.921002776,-0.0682995071 0.478082558,-0.0682995071 0.204898521,0.204898521 C-0.0682995071,0.478082558 -0.0682995071,0.921002776 0.204898521,1.19418681 L5.30655375,6.29585603 L0.204898521,11.3974552 C-0.0682995071,11.6706952 -0.0682995071,12.1136435 0.204898521,12.3868835 C0.478082558,12.6599836 0.921002776,12.6599836 1.19418681,12.3868835 L6.29585603,7.28515832 L11.3974552,12.3868835 C11.6706952,12.6599836 12.1136435,12.6599836 12.3868835,12.3868835 C12.6599836,12.1136435 12.6599836,11.6706952 12.3868835,11.3974552 L7.28515832,6.29585603 L12.3868835,1.19418681 C12.6599836,0.921002776 12.6599836,0.478082558 12.3868835,0.204898521 C12.1136435,-0.0682995071 11.6706952,-0.0682995071 11.3974552,0.204898521 L6.29585603,5.30655375 L1.19418681,0.204898521 Z" id="Path"></path>
                    </g>
                </g>
                <g id="Group" transform="translate(195.870968, 0.000000)">
                    <rect id="Rectangle" stroke="#DEE2E6" fill-opacity="0.8" fill="#FFFFFF" x="0" y="0" width="145.779066" height="225.060171" rx="8"></rect>
                    <path d="M10.2649165,0.603818616 L135.51415,0.603818616 C140.849827,0.603818616 145.175248,4.92923946 145.175248,10.2649165 L145.175248,36.3580428 L145.175248,36.3580428 L0.603818616,36.3580428 L0.603818616,10.2649165 C0.603818616,4.92923946 4.92923946,0.603818616 10.2649165,0.603818616 Z" id="Rectangle" fill="#FFFFFF"></path>
                    <g id="ic_window_close_outline_s" transform="translate(121.002280, 12.185075)" fill="#212529">
                        <path d="M1.19418681,0.204898521 C0.921002776,-0.0682995071 0.478082558,-0.0682995071 0.204898521,0.204898521 C-0.0682995071,0.478082558 -0.0682995071,0.921002776 0.204898521,1.19418681 L5.30655375,6.29585603 L0.204898521,11.3974552 C-0.0682995071,11.6706952 -0.0682995071,12.1136435 0.204898521,12.3868835 C0.478082558,12.6599836 0.921002776,12.6599836 1.19418681,12.3868835 L6.29585603,7.28515832 L11.3974552,12.3868835 C11.6706952,12.6599836 12.1136435,12.6599836 12.3868835,12.3868835 C12.6599836,12.1136435 12.6599836,11.6706952 12.3868835,11.3974552 L7.28515832,6.29585603 L12.3868835,1.19418681 C12.6599836,0.921002776 12.6599836,0.478082558 12.3868835,0.204898521 C12.1136435,-0.0682995071 11.6706952,-0.0682995071 11.3974552,0.204898521 L6.29585603,5.30655375 L1.19418681,0.204898521 Z" id="Path"></path>
                    </g>
                </g>
                <g id="Group-Copy" transform="translate(-0.000000, 0.000000)" fill="#FFFFFF">
                    <rect id="Rectangle" stroke="#DEE2E6" fill-opacity="0.8" x="0" y="0" width="145.779066" height="225.060171" rx="8"></rect>
                    <path d="M10.2649165,0.603818616 L135.51415,0.603818616 C140.849827,0.603818616 145.175248,4.92923946 145.175248,10.2649165 L145.175248,36.3580428 L145.175248,36.3580428 L0.603818616,36.3580428 L0.603818616,10.2649165 C0.603818616,4.92923946 4.92923946,0.603818616 10.2649165,0.603818616 Z" id="Rectangle"></path>
                </g>
                <g id="Group" transform="translate(442.421359, 91.467501)">
                    <path d="M22.139983,10.8032034 C9.90789281,10.8032034 -6.03335997e-16,20.7053056 -6.03335997e-16,32.9302466 C-6.03335997e-16,38.0565117 1.76318416,42.762263 4.68846698,46.5168518 C4.91888309,46.7971944 5.13928111,47.0875492 5.37971531,47.367892 C5.73034852,47.7683814 6.08098173,48.178883 6.46166923,48.5493358 C6.47168731,48.5593481 6.48170541,48.5693603 6.4917235,48.5793725 C10.7193583,53.0648545 16.0790374,56.4890395 22.139983,58.3212789 C28.2009285,56.4790273 33.5606077,53.0648545 37.7882424,48.5793725 C37.7982604,48.5693603 37.8082785,48.5593481 37.8182966,48.5493358 C38.1989842,48.1688709 38.5496173,47.7683814 38.9002506,47.367892 C39.1406847,47.0875492 39.3610827,46.8072066 39.5914988,46.5168518 C42.5167817,42.762263 44.2799659,38.0565117 44.2799659,32.9302466 C44.2799659,20.7053056 34.3720731,10.8032034 22.139983,10.8032034 Z M22.139983,41.3905865 C17.461534,41.3905865 13.6746953,37.6059611 13.6746953,32.9302466 C13.6746953,28.254532 17.461534,24.4699066 22.139983,24.4699066 C26.8184318,24.4699066 30.6052706,28.254532 30.6052706,32.9302466 C30.6052706,37.6059611 26.8184318,41.3905865 22.139983,41.3905865 Z" id="Shape" fill="#FF8A3D"></path>
                    <path d="M29.3530091,10.3326283 C30.8156504,10.0122367 31.9176405,8.71064594 31.9176405,7.15874925 C31.9176405,5.36655888 30.4549991,3.90477232 28.6617607,3.90477232 C28.1608561,3.90477232 27.6900058,4.02491916 27.2592278,4.23517613 C26.7983956,1.82222709 24.6945963,9.38522662e-16 22.150001,9.38522662e-16 C19.6054057,9.38522662e-16 17.4915884,1.82222709 17.0407742,4.23517613 C16.6200144,4.03493139 16.1391459,3.90477232 15.6382414,3.90477232 C13.8450029,3.90477232 12.3823614,5.36655888 12.3823614,7.15874925 C12.3823614,8.72065818 13.4743335,10.0122367 14.946993,10.3326283 C17.2110818,9.55167383 19.6254419,9.11113541 22.150001,9.11113541 C24.6745602,9.11113541 27.0889203,9.55167383 29.3530091,10.3326283 Z" id="Path" fill="#56C271"></path>
                </g>
            </g>
        </g>
    </g>
</svg>