<?xml version="1.0" encoding="UTF-8"?>
<svg width="1012px" height="337px" viewBox="0 0 1012 337" version="1.1" xmlns="http://www.w3.org/2000/svg" xmlns:xlink="http://www.w3.org/1999/xlink">
    <title>GitHub Cover - Navigator Copy</title>
    <g id="GitHub-Cover---Navigator-Copy" stroke="none" stroke-width="1" fill="none" fill-rule="evenodd">
        <rect fill="#F7F7F7" x="0" y="0" width="1012" height="337"></rect>
        <path d="M681.544923,173.195231 L681.544923,171.297231 L675.772923,171.297231 C670.858923,171.297231 667.634923,167.969231 667.634923,163.133231 L667.634923,161.833231 C667.634923,157.075231 670.936923,153.513231 675.876923,153.513231 C680.322923,153.513231 683.650923,156.373231 683.650923,160.871231 L683.650923,161.885231 C683.650923,164.667231 682.818923,166.253231 681.388923,166.253231 C680.530923,166.253231 680.088923,165.863231 680.088923,164.719231 L680.088923,157.179231 L677.826923,157.179231 L677.826923,158.947231 L677.696923,158.947231 C677.306923,157.829231 676.448923,156.945231 674.862923,156.945231 C672.496923,156.945231 670.572923,158.791231 670.572923,162.535231 C670.572923,166.279231 672.496923,168.125231 674.862923,168.125231 C676.448923,168.125231 677.462923,167.215231 677.982923,165.811231 L678.112923,165.811231 C678.242923,167.189231 679.256923,168.125231 680.998923,168.125231 C684.144923,168.125231 685.678923,165.343231 685.678923,161.521231 C685.678923,154.891231 681.232923,151.641231 675.902923,151.641231 C669.636923,151.641231 665.606923,156.139231 665.606923,162.535231 C665.606923,168.931231 669.532923,173.195231 675.746923,173.195231 L681.544923,173.195231 Z M675.538923,166.123231 C673.952923,166.123231 673.094923,165.083231 673.094923,163.523231 L673.094923,161.521231 C673.094923,159.961231 673.952923,158.921231 675.538923,158.921231 C676.968923,158.921231 677.826923,159.779231 677.826923,160.871231 L677.826923,163.991231 C677.826923,165.239231 676.968923,166.123231 675.538923,166.123231 Z M692.126923,170.049231 L692.126923,165.629231 L693.998923,163.601231 L697.872923,170.049231 L701.252923,170.049231 L695.948923,161.755231 L700.680923,156.529231 L697.378923,156.529231 L694.128923,160.195231 L692.256923,162.613231 L692.126923,162.613231 L692.126923,150.809231 L689.292923,150.809231 L689.292923,170.049231 L692.126923,170.049231 Z M706.894923,170.361231 C708.870923,170.361231 710.326923,169.477231 710.846923,167.787231 L710.976923,167.787231 C711.158923,169.113231 711.938923,170.049231 713.420923,170.049231 L715.006923,170.049231 L715.006923,167.735231 L713.576923,167.735231 L713.576923,160.949231 C713.576923,157.933231 711.626923,156.217231 708.142923,156.217231 C705.516923,156.217231 703.930923,157.335231 703.046923,158.843231 L704.736923,160.377231 C705.412923,159.311231 706.374923,158.531231 707.960923,158.531231 C709.858923,158.531231 710.742923,159.493231 710.742923,161.131231 L710.742923,162.275231 L708.298923,162.275231 C704.528923,162.275231 702.526923,163.653231 702.526923,166.331231 C702.526923,168.775231 704.112923,170.361231 706.894923,170.361231 Z M707.700923,168.203231 C706.296923,168.203231 705.412923,167.579231 705.412923,166.383231 L705.412923,165.915231 C705.412923,164.745231 706.374923,164.095231 708.350923,164.095231 L710.742923,164.095231 L710.742923,166.045231 C710.742923,167.371231 709.442923,168.203231 707.700923,168.203231 Z M720.622923,170.049231 L720.622923,161.417231 C720.622923,160.013231 721.870923,159.259231 724.106923,159.259231 L725.224923,159.259231 L725.224923,156.529231 L724.470923,156.529231 C722.312923,156.529231 721.142923,157.751231 720.752923,159.129231 L720.622923,159.129231 L720.622923,156.529231 L717.788923,156.529231 L717.788923,170.049231 L720.622923,170.049231 Z M730.580923,170.049231 L730.580923,161.417231 C730.580923,160.013231 731.828923,159.259231 734.064923,159.259231 L735.182923,159.259231 L735.182923,156.529231 L734.428923,156.529231 C732.270923,156.529231 731.100923,157.751231 730.710923,159.129231 L730.580923,159.129231 L730.580923,156.529231 L727.746923,156.529231 L727.746923,170.049231 L730.580923,170.049231 Z M743.008923,170.361231 C746.778923,170.361231 749.222923,167.605231 749.222923,163.289231 C749.222923,158.973231 746.778923,156.217231 743.008923,156.217231 C739.238923,156.217231 736.794923,158.973231 736.794923,163.289231 C736.794923,167.605231 739.238923,170.361231 743.008923,170.361231 Z M743.008923,168.021231 C741.084923,168.021231 739.784923,166.825231 739.784923,164.433231 L739.784923,162.145231 C739.784923,159.753231 741.084923,158.557231 743.008923,158.557231 C744.932923,158.557231 746.232923,159.753231 746.232923,162.145231 L746.232923,164.433231 C746.232923,166.825231 744.932923,168.021231 743.008923,168.021231 Z M758.582923,170.049231 L758.582923,167.735231 L755.956923,167.735231 L755.956923,158.843231 L758.790923,158.843231 L758.790923,156.529231 L755.956923,156.529231 L755.956923,152.837231 L753.408923,152.837231 L753.408923,155.203231 C753.408923,156.139231 753.096923,156.529231 752.160923,156.529231 L751.016923,156.529231 L751.016923,158.843231 L753.122923,158.843231 L753.122923,167.111231 C753.122923,168.957231 754.162923,170.049231 756.112923,170.049231 L758.582923,170.049231 Z M765.394923,170.049231 L765.394923,158.843231 L768.228923,158.843231 L768.228923,156.529231 L765.394923,156.529231 L765.394923,153.123231 L768.228923,153.123231 L768.228923,150.809231 L765.992923,150.809231 C763.730923,150.809231 762.560923,152.109231 762.560923,154.293231 L762.560923,156.529231 L760.506923,156.529231 L760.506923,158.843231 L762.560923,158.843231 L762.560923,170.049231 L765.394923,170.049231 Z M773.532923,170.049231 L773.532923,161.417231 C773.532923,160.013231 774.780923,159.259231 777.016923,159.259231 L778.134923,159.259231 L778.134923,156.529231 L777.380923,156.529231 C775.222923,156.529231 774.052923,157.751231 773.662923,159.129231 L773.532923,159.129231 L773.532923,156.529231 L770.698923,156.529231 L770.698923,170.049231 L773.532923,170.049231 Z M784.036923,170.361231 C786.012923,170.361231 787.468923,169.477231 787.988923,167.787231 L788.118923,167.787231 C788.300923,169.113231 789.080923,170.049231 790.562923,170.049231 L792.148923,170.049231 L792.148923,167.735231 L790.718923,167.735231 L790.718923,160.949231 C790.718923,157.933231 788.768923,156.217231 785.284923,156.217231 C782.658923,156.217231 781.072923,157.335231 780.188923,158.843231 L781.878923,160.377231 C782.554923,159.311231 783.516923,158.531231 785.102923,158.531231 C787.000923,158.531231 787.884923,159.493231 787.884923,161.131231 L787.884923,162.275231 L785.440923,162.275231 C781.670923,162.275231 779.668923,163.653231 779.668923,166.331231 C779.668923,168.775231 781.254923,170.361231 784.036923,170.361231 Z M784.842923,168.203231 C783.438923,168.203231 782.554923,167.579231 782.554923,166.383231 L782.554923,165.915231 C782.554923,164.745231 783.516923,164.095231 785.492923,164.095231 L787.884923,164.095231 L787.884923,166.045231 C787.884923,167.371231 786.584923,168.203231 784.842923,168.203231 Z M797.764923,170.049231 L797.764923,160.975231 C797.764923,159.415231 799.142923,158.661231 800.546923,158.661231 C802.210923,158.661231 803.016923,159.701231 803.016923,161.807231 L803.016923,170.049231 L805.850923,170.049231 L805.850923,160.975231 C805.850923,159.415231 807.176923,158.661231 808.606923,158.661231 C810.322923,158.661231 811.102923,159.727231 811.102923,161.807231 L811.102923,170.049231 L813.936923,170.049231 L813.936923,161.469231 C813.936923,158.141231 812.350923,156.217231 809.672923,156.217231 C807.488923,156.217231 806.084923,157.465231 805.590923,158.973231 L805.512923,158.973231 C804.862923,157.101231 803.328923,156.217231 801.508923,156.217231 C799.454923,156.217231 798.440923,157.361231 797.894923,158.765231 L797.764923,158.765231 L797.764923,156.529231 L794.930923,156.529231 L794.930923,170.049231 L797.764923,170.049231 Z M823.166923,170.361231 C825.688923,170.361231 827.664923,169.269231 828.678923,167.631231 L827.014923,165.993231 C826.234923,167.241231 825.116923,168.021231 823.452923,168.021231 C821.164923,168.021231 819.890923,166.539231 819.890923,164.459231 L819.890923,164.017231 L829.172923,164.017231 L829.172923,162.951231 C829.172923,159.207231 827.144923,156.217231 823.166923,156.217231 C819.318923,156.217231 816.952923,158.973231 816.952923,163.289231 C816.952923,167.605231 819.318923,170.361231 823.166923,170.361231 Z M826.182923,162.145231 L819.890923,162.145231 L819.890923,161.963231 C819.890923,159.883231 821.216923,158.427231 823.166923,158.427231 C825.038923,158.427231 826.182923,159.805231 826.182923,161.885231 L826.182923,162.145231 Z M832.916923,173.975231 L840.118923,150.809231 L837.674923,150.809231 L830.472923,173.975231 L832.916923,173.975231 Z M845.994923,170.049231 L845.994923,161.001231 C845.994923,159.415231 847.450923,158.661231 848.932923,158.661231 C850.674923,158.661231 851.480923,159.727231 851.480923,161.833231 L851.480923,170.049231 L854.314923,170.049231 L854.314923,161.469231 C854.314923,158.141231 852.676923,156.217231 849.920923,156.217231 C847.840923,156.217231 846.696923,157.309231 846.124923,158.765231 L845.994923,158.765231 L845.994923,156.529231 L843.160923,156.529231 L843.160923,170.049231 L845.994923,170.049231 Z M861.620923,170.361231 C863.596923,170.361231 865.052923,169.477231 865.572923,167.787231 L865.702923,167.787231 C865.884923,169.113231 866.664923,170.049231 868.146923,170.049231 L869.732923,170.049231 L869.732923,167.735231 L868.302923,167.735231 L868.302923,160.949231 C868.302923,157.933231 866.352923,156.217231 862.868923,156.217231 C860.242923,156.217231 858.656923,157.335231 857.772923,158.843231 L859.462923,160.377231 C860.138923,159.311231 861.100923,158.531231 862.686923,158.531231 C864.584923,158.531231 865.468923,159.493231 865.468923,161.131231 L865.468923,162.275231 L863.024923,162.275231 C859.254923,162.275231 857.252923,163.653231 857.252923,166.331231 C857.252923,168.775231 858.838923,170.361231 861.620923,170.361231 Z M862.426923,168.203231 C861.022923,168.203231 860.138923,167.579231 860.138923,166.383231 L860.138923,165.915231 C860.138923,164.745231 861.100923,164.095231 863.076923,164.095231 L865.468923,164.095231 L865.468923,166.045231 C865.468923,167.371231 864.168923,168.203231 862.426923,168.203231 Z M878.780923,170.049231 L883.434923,156.529231 L880.730923,156.529231 L878.624923,162.691231 L877.246923,167.423231 L877.090923,167.423231 L875.712923,162.691231 L873.658923,156.529231 L870.850923,156.529231 L875.452923,170.049231 L878.780923,170.049231 Z M887.256923,154.111231 C888.426923,154.111231 888.920923,153.487231 888.920923,152.629231 L888.920923,152.187231 C888.920923,151.329231 888.426923,150.705231 887.256923,150.705231 C886.086923,150.705231 885.566923,151.329231 885.566923,152.187231 L885.566923,152.629231 C885.566923,153.487231 886.086923,154.111231 887.256923,154.111231 Z M888.660923,170.049231 L888.660923,156.529231 L885.826923,156.529231 L885.826923,170.049231 L888.660923,170.049231 Z M897.708923,175.561231 C902.570923,175.561231 904.572923,174.131231 904.572923,171.323231 C904.572923,168.983231 903.168923,167.579231 899.840923,167.579231 L896.512923,167.579231 C895.316923,167.579231 894.614923,167.293231 894.614923,166.565231 C894.614923,165.889231 895.238923,165.447231 895.914923,165.213231 C896.408923,165.343231 897.032923,165.421231 897.682923,165.421231 C901.114923,165.421231 903.090923,163.575231 903.090923,160.845231 C903.090923,159.285231 902.414923,157.985231 901.192923,157.179231 L901.192923,156.633231 L903.948923,156.633231 L903.948923,154.345231 L901.868923,154.345231 C900.672923,154.345231 900.100923,155.073231 900.100923,156.269231 L900.100923,156.633231 C899.398923,156.347231 898.566923,156.217231 897.656923,156.217231 C894.224923,156.217231 892.274923,158.089231 892.274923,160.845231 C892.274923,162.665231 893.158923,164.095231 894.744923,164.849231 L894.744923,164.953231 C893.444923,165.265231 892.352923,165.941231 892.352923,167.345231 C892.352923,168.359231 892.898923,169.113231 893.886923,169.425231 L893.886923,169.711231 C892.456923,170.023231 891.572923,170.829231 891.572923,172.311231 C891.572923,174.365231 893.288923,175.561231 897.708923,175.561231 Z M897.682923,163.367231 C896.018923,163.367231 895.056923,162.613231 895.056923,161.079231 L895.056923,160.559231 C895.056923,159.025231 896.018923,158.271231 897.682923,158.271231 C899.346923,158.271231 900.308923,159.025231 900.308923,160.559231 L900.308923,161.079231 C900.308923,162.613231 899.346923,163.367231 897.682923,163.367231 Z M898.618923,173.507231 L896.850923,173.507231 C894.744923,173.507231 893.938923,172.753231 893.938923,171.661231 C893.938923,171.011231 894.250923,170.465231 894.874923,170.101231 L899.450923,170.101231 C901.296923,170.101231 901.920923,170.699231 901.920923,171.635231 C901.920923,172.883231 900.828923,173.507231 898.618923,173.507231 Z M910.058923,170.361231 C912.034923,170.361231 913.490923,169.477231 914.010923,167.787231 L914.140923,167.787231 C914.322923,169.113231 915.102923,170.049231 916.584923,170.049231 L918.170923,170.049231 L918.170923,167.735231 L916.740923,167.735231 L916.740923,160.949231 C916.740923,157.933231 914.790923,156.217231 911.306923,156.217231 C908.680923,156.217231 907.094923,157.335231 906.210923,158.843231 L907.900923,160.377231 C908.576923,159.311231 909.538923,158.531231 911.124923,158.531231 C913.022923,158.531231 913.906923,159.493231 913.906923,161.131231 L913.906923,162.275231 L911.462923,162.275231 C907.692923,162.275231 905.690923,163.653231 905.690923,166.331231 C905.690923,168.775231 907.276923,170.361231 910.058923,170.361231 Z M910.864923,168.203231 C909.460923,168.203231 908.576923,167.579231 908.576923,166.383231 L908.576923,165.915231 C908.576923,164.745231 909.538923,164.095231 911.514923,164.095231 L913.906923,164.095231 L913.906923,166.045231 C913.906923,167.371231 912.606923,168.203231 910.864923,168.203231 Z M927.166923,170.049231 L927.166923,167.735231 L924.540923,167.735231 L924.540923,158.843231 L927.374923,158.843231 L927.374923,156.529231 L924.540923,156.529231 L924.540923,152.837231 L921.992923,152.837231 L921.992923,155.203231 C921.992923,156.139231 921.680923,156.529231 920.744923,156.529231 L919.600923,156.529231 L919.600923,158.843231 L921.706923,158.843231 L921.706923,167.111231 C921.706923,168.957231 922.746923,170.049231 924.696923,170.049231 L927.166923,170.049231 Z M935.746923,170.361231 C939.516923,170.361231 941.960923,167.605231 941.960923,163.289231 C941.960923,158.973231 939.516923,156.217231 935.746923,156.217231 C931.976923,156.217231 929.532923,158.973231 929.532923,163.289231 C929.532923,167.605231 931.976923,170.361231 935.746923,170.361231 Z M935.746923,168.021231 C933.822923,168.021231 932.522923,166.825231 932.522923,164.433231 L932.522923,162.145231 C932.522923,159.753231 933.822923,158.557231 935.746923,158.557231 C937.670923,158.557231 938.970923,159.753231 938.970923,162.145231 L938.970923,164.433231 C938.970923,166.825231 937.670923,168.021231 935.746923,168.021231 Z M947.940923,170.049231 L947.940923,161.417231 C947.940923,160.013231 949.188923,159.259231 951.424923,159.259231 L952.542923,159.259231 L952.542923,156.529231 L951.788923,156.529231 C949.630923,156.529231 948.460923,157.751231 948.070923,159.129231 L947.940923,159.129231 L947.940923,156.529231 L945.106923,156.529231 L945.106923,170.049231 L947.940923,170.049231 Z" id="@karrotframe/navigator" fill="#000000" fill-rule="nonzero"></path>
        <path d="M848.816923,195.229231 C851.216923,195.229231 852.611923,193.924231 852.611923,191.974231 C852.611923,190.309231 851.666923,189.379231 849.581923,188.974231 L848.651923,188.779231 C847.526923,188.554231 846.986923,188.179231 846.986923,187.309231 C846.986923,186.394231 847.676923,185.899231 848.876923,185.899231 C850.031923,185.899231 850.781923,186.349231 851.321923,187.054231 L852.506923,186.004231 C851.696923,184.969231 850.541923,184.399231 848.966923,184.399231 C846.746923,184.399231 845.306923,185.539231 845.306923,187.399231 C845.306923,189.064231 846.341923,190.009231 848.366923,190.384231 L849.296923,190.549231 C850.511923,190.789231 850.931923,191.254231 850.931923,192.064231 C850.931923,193.069231 850.241923,193.729231 848.906923,193.729231 C847.766923,193.729231 846.896923,193.264231 846.161923,192.364231 L844.991923,193.459231 C845.861923,194.539231 847.061923,195.229231 848.816923,195.229231 Z M858.116923,195.049231 L858.116923,193.714231 L856.601923,193.714231 L856.601923,188.584231 L858.236923,188.584231 L858.236923,187.249231 L856.601923,187.249231 L856.601923,185.119231 L855.131923,185.119231 L855.131923,186.484231 C855.131923,187.024231 854.951923,187.249231 854.411923,187.249231 L853.751923,187.249231 L853.751923,188.584231 L854.966923,188.584231 L854.966923,193.354231 C854.966923,194.419231 855.566923,195.049231 856.691923,195.049231 L858.116923,195.049231 Z M861.956923,195.229231 C863.096923,195.229231 863.936923,194.719231 864.236923,193.744231 L864.311923,193.744231 C864.416923,194.509231 864.866923,195.049231 865.721923,195.049231 L866.636923,195.049231 L866.636923,193.714231 L865.811923,193.714231 L865.811923,189.799231 C865.811923,188.059231 864.686923,187.069231 862.676923,187.069231 C861.161923,187.069231 860.246923,187.714231 859.736923,188.584231 L860.711923,189.469231 C861.101923,188.854231 861.656923,188.404231 862.571923,188.404231 C863.666923,188.404231 864.176923,188.959231 864.176923,189.904231 L864.176923,190.564231 L862.766923,190.564231 C860.591923,190.564231 859.436923,191.359231 859.436923,192.904231 C859.436923,194.314231 860.351923,195.229231 861.956923,195.229231 Z M862.421923,193.984231 C861.611923,193.984231 861.101923,193.624231 861.101923,192.934231 L861.101923,192.664231 C861.101923,191.989231 861.656923,191.614231 862.796923,191.614231 L864.176923,191.614231 L864.176923,192.739231 C864.176923,193.504231 863.426923,193.984231 862.421923,193.984231 Z M871.256923,195.229231 C872.756923,195.229231 873.821923,194.524231 874.331923,193.249231 L873.086923,192.589231 C872.756923,193.369231 872.201923,193.879231 871.256923,193.879231 C870.056923,193.879231 869.441923,193.054231 869.441923,191.854231 L869.441923,190.459231 C869.441923,189.259231 870.056923,188.434231 871.256923,188.434231 C872.141923,188.434231 872.696923,188.899231 872.921923,189.619231 L874.271923,188.989231 C873.806923,187.834231 872.816923,187.069231 871.256923,187.069231 C869.006923,187.069231 867.716923,188.659231 867.716923,191.149231 C867.716923,193.639231 869.006923,195.229231 871.256923,195.229231 Z M877.526923,195.049231 L877.526923,192.499231 L878.606923,191.329231 L880.841923,195.049231 L882.791923,195.049231 L879.731923,190.264231 L882.461923,187.249231 L880.556923,187.249231 L878.681923,189.364231 L877.601923,190.759231 L877.526923,190.759231 L877.526923,183.949231 L875.891923,183.949231 L875.891923,195.049231 L877.526923,195.049231 Z M889.376923,195.049231 L889.376923,187.039231 L889.421923,187.039231 L890.576923,189.259231 L893.996923,195.049231 L895.886923,195.049231 L895.886923,184.579231 L894.266923,184.579231 L894.266923,192.589231 L894.221923,192.589231 L893.066923,190.369231 L889.646923,184.579231 L887.756923,184.579231 L887.756923,195.049231 L889.376923,195.049231 Z M900.296923,195.229231 C901.436923,195.229231 902.276923,194.719231 902.576923,193.744231 L902.651923,193.744231 C902.756923,194.509231 903.206923,195.049231 904.061923,195.049231 L904.976923,195.049231 L904.976923,193.714231 L904.151923,193.714231 L904.151923,189.799231 C904.151923,188.059231 903.026923,187.069231 901.016923,187.069231 C899.501923,187.069231 898.586923,187.714231 898.076923,188.584231 L899.051923,189.469231 C899.441923,188.854231 899.996923,188.404231 900.911923,188.404231 C902.006923,188.404231 902.516923,188.959231 902.516923,189.904231 L902.516923,190.564231 L901.106923,190.564231 C898.931923,190.564231 897.776923,191.359231 897.776923,192.904231 C897.776923,194.314231 898.691923,195.229231 900.296923,195.229231 Z M900.761923,193.984231 C899.951923,193.984231 899.441923,193.624231 899.441923,192.934231 L899.441923,192.664231 C899.441923,191.989231 899.996923,191.614231 901.136923,191.614231 L902.516923,191.614231 L902.516923,192.739231 C902.516923,193.504231 901.766923,193.984231 900.761923,193.984231 Z M910.196923,195.049231 L912.881923,187.249231 L911.321923,187.249231 L910.106923,190.804231 L909.311923,193.534231 L909.221923,193.534231 L908.426923,190.804231 L907.241923,187.249231 L905.621923,187.249231 L908.276923,195.049231 L910.196923,195.049231 Z M915.086923,185.854231 C915.761923,185.854231 916.046923,185.494231 916.046923,184.999231 L916.046923,184.744231 C916.046923,184.249231 915.761923,183.889231 915.086923,183.889231 C914.411923,183.889231 914.111923,184.249231 914.111923,184.744231 L914.111923,184.999231 C914.111923,185.494231 914.411923,185.854231 915.086923,185.854231 Z M915.896923,195.049231 L915.896923,187.249231 L914.261923,187.249231 L914.261923,195.049231 L915.896923,195.049231 Z M921.116923,198.229231 C923.921923,198.229231 925.076923,197.404231 925.076923,195.784231 C925.076923,194.434231 924.266923,193.624231 922.346923,193.624231 L920.426923,193.624231 C919.736923,193.624231 919.331923,193.459231 919.331923,193.039231 C919.331923,192.649231 919.691923,192.394231 920.081923,192.259231 C920.366923,192.334231 920.726923,192.379231 921.101923,192.379231 C923.081923,192.379231 924.221923,191.314231 924.221923,189.739231 C924.221923,188.839231 923.831923,188.089231 923.126923,187.624231 L923.126923,187.309231 L924.716923,187.309231 L924.716923,185.989231 L923.516923,185.989231 C922.826923,185.989231 922.496923,186.409231 922.496923,187.099231 L922.496923,187.309231 C922.091923,187.144231 921.611923,187.069231 921.086923,187.069231 C919.106923,187.069231 917.981923,188.149231 917.981923,189.739231 C917.981923,190.789231 918.491923,191.614231 919.406923,192.049231 L919.406923,192.109231 C918.656923,192.289231 918.026923,192.679231 918.026923,193.489231 C918.026923,194.074231 918.341923,194.509231 918.911923,194.689231 L918.911923,194.854231 C918.086923,195.034231 917.576923,195.499231 917.576923,196.354231 C917.576923,197.539231 918.566923,198.229231 921.116923,198.229231 Z M921.101923,191.194231 C920.141923,191.194231 919.586923,190.759231 919.586923,189.874231 L919.586923,189.574231 C919.586923,188.689231 920.141923,188.254231 921.101923,188.254231 C922.061923,188.254231 922.616923,188.689231 922.616923,189.574231 L922.616923,189.874231 C922.616923,190.759231 922.061923,191.194231 921.101923,191.194231 Z M921.641923,197.044231 L920.621923,197.044231 C919.406923,197.044231 918.941923,196.609231 918.941923,195.979231 C918.941923,195.604231 919.121923,195.289231 919.481923,195.079231 L922.121923,195.079231 C923.186923,195.079231 923.546923,195.424231 923.546923,195.964231 C923.546923,196.684231 922.916923,197.044231 921.641923,197.044231 Z M928.241923,195.229231 C929.381923,195.229231 930.221923,194.719231 930.521923,193.744231 L930.596923,193.744231 C930.701923,194.509231 931.151923,195.049231 932.006923,195.049231 L932.921923,195.049231 L932.921923,193.714231 L932.096923,193.714231 L932.096923,189.799231 C932.096923,188.059231 930.971923,187.069231 928.961923,187.069231 C927.446923,187.069231 926.531923,187.714231 926.021923,188.584231 L926.996923,189.469231 C927.386923,188.854231 927.941923,188.404231 928.856923,188.404231 C929.951923,188.404231 930.461923,188.959231 930.461923,189.904231 L930.461923,190.564231 L929.051923,190.564231 C926.876923,190.564231 925.721923,191.359231 925.721923,192.904231 C925.721923,194.314231 926.636923,195.229231 928.241923,195.229231 Z M928.706923,193.984231 C927.896923,193.984231 927.386923,193.624231 927.386923,192.934231 L927.386923,192.664231 C927.386923,191.989231 927.941923,191.614231 929.081923,191.614231 L930.461923,191.614231 L930.461923,192.739231 C930.461923,193.504231 929.711923,193.984231 928.706923,193.984231 Z M938.111923,195.049231 L938.111923,193.714231 L936.596923,193.714231 L936.596923,188.584231 L938.231923,188.584231 L938.231923,187.249231 L936.596923,187.249231 L936.596923,185.119231 L935.126923,185.119231 L935.126923,186.484231 C935.126923,187.024231 934.946923,187.249231 934.406923,187.249231 L933.746923,187.249231 L933.746923,188.584231 L934.961923,188.584231 L934.961923,193.354231 C934.961923,194.419231 935.561923,195.049231 936.686923,195.049231 L938.111923,195.049231 Z M943.061923,195.229231 C945.236923,195.229231 946.646923,193.639231 946.646923,191.149231 C946.646923,188.659231 945.236923,187.069231 943.061923,187.069231 C940.886923,187.069231 939.476923,188.659231 939.476923,191.149231 C939.476923,193.639231 940.886923,195.229231 943.061923,195.229231 Z M943.061923,193.879231 C941.951923,193.879231 941.201923,193.189231 941.201923,191.809231 L941.201923,190.489231 C941.201923,189.109231 941.951923,188.419231 943.061923,188.419231 C944.171923,188.419231 944.921923,189.109231 944.921923,190.489231 L944.921923,191.809231 C944.921923,193.189231 944.171923,193.879231 943.061923,193.879231 Z M950.096923,195.049231 L950.096923,190.069231 C950.096923,189.259231 950.816923,188.824231 952.106923,188.824231 L952.751923,188.824231 L952.751923,187.249231 L952.316923,187.249231 C951.071923,187.249231 950.396923,187.954231 950.171923,188.749231 L950.096923,188.749231 L950.096923,187.249231 L948.461923,187.249231 L948.461923,195.049231 L950.096923,195.049231 Z" id="StackNavigator" fill="#000000" fill-rule="nonzero"></path>
        <g id="Screen-3" transform="translate(434.381538, 56.049231)">
            <g id="ic_window_close_outline_s" transform="translate(119.883077, 10.898462)"></g>
            <rect id="Rectangle" stroke="#DEE2E6" fill-opacity="0.7" fill="#FFFFFF" x="-0.5" y="-0.5" width="145.793846" height="225.196923" rx="8"></rect>
            <path d="M8,0 L136.793846,0 C141.212124,-8.11624501e-16 144.793846,3.581722 144.793846,8 L144.793846,35.8092308 L144.793846,35.8092308 L0,35.8092308 L0,8 C-5.41083001e-16,3.581722 3.581722,8.11624501e-16 8,0 Z" id="Rectangle" fill="#FFFFFF"></path>
            <g id="ic_backward_outline_s" transform="translate(9.341538, 10.898462)" fill="#212529" fill-rule="nonzero">
                <path d="M7.7114478,12.9249529 C7.96869575,13.173735 7.96869575,13.5770346 7.7114478,13.8258167 C7.45421302,14.0744714 7.03715173,14.0744714 6.77991695,13.8258167 L0.192935966,7.45652364 C-0.0643119888,7.2077925 -0.0643119888,6.80451838 0.192935966,6.55578723 L6.77991695,0.186557911 C7.03715173,-0.0621859705 7.45421302,-0.0621859705 7.7114478,0.186557911 C7.96869575,0.435289055 7.96869575,0.838563179 7.7114478,1.08729432 L2.24894351,6.36923251 L16.4674557,6.36923251 C16.8311888,6.36923251 17.1261538,6.65439564 17.1261538,7.00615544 C17.1261538,7.35791524 16.8311888,7.64307837 16.4674557,7.64307837 L2.24894351,7.64307837 L7.7114478,12.9249529 Z" id="Path"></path>
            </g>
            <path d="M121.779713,11.8042872 C121.506109,11.5306688 121.062507,11.5306688 120.788903,11.8042872 C120.515284,12.0778915 120.515284,12.5214931 120.788903,12.7950974 L125.898406,17.9046154 L120.788903,23.0140633 C120.515284,23.2877236 120.515284,23.7313533 120.788903,24.0050137 C121.062507,24.2785339 121.506109,24.2785339 121.779713,24.0050137 L126.889231,18.8954397 L131.998679,24.0050137 C132.272339,24.2785339 132.715969,24.2785339 132.989629,24.0050137 C133.263149,23.7313533 133.263149,23.2877236 132.989629,23.0140633 L127.880055,17.9046154 L132.989629,12.7950974 C133.263149,12.5214931 133.263149,12.0778915 132.989629,11.8042872 C132.715969,11.5306688 132.272339,11.5306688 131.998679,11.8042872 L126.889231,16.9137911 L121.779713,11.8042872 Z" id="Path" fill="#212529" fill-rule="nonzero"></path>
            <g id="Group" transform="translate(49.821538, 90.301538)" fill-rule="nonzero">
                <g id="Group">
                    <path d="M22.5051501,11.5217585 C10.2542414,11.5217585 0.331105641,21.4390947 0.331105641,33.6828433 C0.331105641,38.816995 2.09700239,43.5299859 5.02678564,47.290351 C5.25755624,47.5711249 5.47829333,47.8619265 5.71909744,48.1427004 C6.07027009,48.543806 6.42144274,48.9549392 6.8027159,49.3259619 C6.8127494,49.3359896 6.82278291,49.3460172 6.83281641,49.3560449 C11.0669552,53.8484276 16.43488,57.2778806 22.5051501,59.1129387 C28.5754202,57.2678529 33.943345,53.8484276 38.1774838,49.3560449 C38.1875173,49.3460172 38.1975508,49.3359896 38.2075843,49.3259619 C38.5888574,48.9449116 38.9400301,48.543806 39.2912027,48.1427004 C39.5320068,47.8619265 39.7527439,47.5811525 39.9835145,47.290351 C42.9132978,43.5299859 44.6791945,38.816995 44.6791945,33.6828433 C44.6791945,21.4390947 34.7560588,11.5217585 22.5051501,11.5217585 Z M22.5051501,42.1561992 C17.8195036,42.1561992 14.026839,38.3657512 14.026839,33.6828433 C14.026839,28.9999353 17.8195036,25.2094874 22.5051501,25.2094874 C27.1907966,25.2094874 30.9834612,28.9999353 30.9834612,33.6828433 C30.9834612,38.3657512 27.1907966,42.1561992 22.5051501,42.1561992 Z" id="Shape" fill="#FF8A3D"></path>
                    <path d="M29.7292732,11.0504595 C31.1941648,10.729575 32.2978503,9.42598175 32.2978503,7.87169752 C32.2978503,6.07674993 30.8329586,4.61271447 29.0369614,4.61271447 C28.5352862,4.61271447 28.0637115,4.73304615 27.6322708,4.9436266 C27.1707296,2.52696532 25.0636937,0.701934811 22.5151836,0.701934811 C19.9666735,0.701934811 17.8496041,2.52696532 17.3980964,4.9436266 C16.9766892,4.74307379 16.495081,4.61271447 15.9934058,4.61271447 C14.1974085,4.61271447 12.7325169,6.07674993 12.7325169,7.87169752 C12.7325169,9.43600939 13.8261689,10.729575 15.301094,11.0504595 C17.568666,10.2683035 19.9867405,9.82708735 22.5151836,9.82708735 C25.0436267,9.82708735 27.4617012,10.2683035 29.7292732,11.0504595 Z" id="Path" fill="#56C271"></path>
                </g>
            </g>
        </g>
        <g id="Screen-2" transform="translate(238.209231, 56.049231)">
            <rect id="Rectangle" stroke="#DEE2E6" fill-opacity="0.7" fill="#FFFFFF" x="-0.5" y="-0.5" width="145.793846" height="225.196923" rx="8"></rect>
            <path d="M8,0 L136.793846,0 C141.212124,-8.11624501e-16 144.793846,3.581722 144.793846,8 L144.793846,35.8092308 L144.793846,35.8092308 L0,35.8092308 L0,8 C-5.41083001e-16,3.581722 3.581722,8.11624501e-16 8,0 Z" id="Rectangle" fill="#FFFFFF"></path>
            <g id="ic_window_close_outline_s" transform="translate(119.883077, 10.898462)" fill="#212529" fill-rule="nonzero">
                <path d="M1.89663591,0.905825631 C1.62303159,0.632207298 1.17942995,0.632207298 0.905825631,0.905825631 C0.632207298,1.17942995 0.632207298,1.62303159 0.905825631,1.89663591 L6.01532956,7.00615385 L0.905825631,12.1156017 C0.632207298,12.3892621 0.632207298,12.8328918 0.905825631,13.1065521 C1.17942995,13.3800724 1.62303159,13.3800724 1.89663591,13.1065521 L7.00615385,7.99697814 L12.1156017,13.1065521 C12.3892621,13.3800724 12.8328918,13.3800724 13.1065521,13.1065521 C13.3800724,12.8328918 13.3800724,12.3892621 13.1065521,12.1156017 L7.99697814,7.00615385 L13.1065521,1.89663591 C13.3800724,1.62303159 13.3800724,1.17942995 13.1065521,0.905825631 C12.8328918,0.632207298 12.3892621,0.632207298 12.1156017,0.905825631 L7.00615385,6.01532956 L1.89663591,0.905825631 Z" id="Path"></path>
            </g>
        </g>
        <g id="Screen-1" transform="translate(42.036923, 56.049231)" fill="#FFFFFF">
            <rect id="Rectangle" stroke="#DEE2E6" fill-opacity="0.7" x="-0.5" y="-0.5" width="145.793846" height="225.196923" rx="8"></rect>
            <path d="M8,0 L136.793846,0 C141.212124,-8.11624501e-16 144.793846,3.581722 144.793846,8 L144.793846,35.8092308 L144.793846,35.8092308 L0,35.8092308 L0,8 C-5.41083001e-16,3.581722 3.581722,8.11624501e-16 8,0 Z" id="Rectangle"></path>
        </g>
    </g>
</svg>