<svg width="1531" height="239" viewBox="0 0 1531 239" fill="none" xmlns="http://www.w3.org/2000/svg">
<path d="M22.253 178.547C16.1823 175.69 16.1823 171.057 22.253 168.199L137.67 113.873C143.741 111.015 153.583 111.015 159.654 113.873L275.071 168.199C281.142 171.057 281.142 175.69 275.071 178.547L159.654 232.874C153.583 235.732 143.741 235.732 137.67 232.874L22.253 178.547Z" fill="#A03A03"/>
<path d="M22.253 136.168C16.1823 133.311 16.1823 128.678 22.253 125.82L137.67 71.4934C143.741 68.636 153.583 68.636 159.654 71.4934L275.071 125.82C281.142 128.678 281.142 133.311 275.071 136.168L159.654 190.495C153.583 193.353 143.741 193.353 137.67 190.495L22.253 136.168Z" fill="#CC4700"/>
<path d="M22.2525 66.8182C16.1818 63.9604 16.1818 59.3278 22.2526 56.4699L137.669 2.14314C143.74 -0.714379 153.583 -0.714379 159.653 2.14314L275.07 56.4699C281.141 59.3278 281.141 63.9604 275.07 66.8182L159.653 121.145C153.583 124.002 143.74 124.002 137.669 121.145L22.2525 66.8182Z" fill="#FF6F0F"/>
<path d="M393.262 149.836C400.332 154.738 408.939 158.798 419.083 162.015C429.227 165.232 438.449 166.841 446.749 166.841C467.344 166.841 477.641 161.402 477.641 150.525C477.641 146.082 475.03 142.329 469.805 139.265C464.734 136.201 456.201 133.29 444.213 130.533C424.232 126.09 409.939 119.886 401.331 111.919C392.878 103.8 388.651 92.6169 388.651 78.3694C388.651 67.9521 391.494 58.7604 397.181 50.7942C403.022 42.6747 411.091 36.3937 421.389 31.951C431.84 27.3551 443.675 25.0571 456.893 25.0571C467.805 25.0571 478.951 26.3593 490.323 28.9637C501.695 31.568 509.841 34.7085 514.761 38.3852L507.615 73.5439C501.464 69.5605 493.858 66.3438 484.787 63.8922C475.721 61.4412 466.884 60.2156 458.277 60.2156C451.053 60.2156 445.135 61.5177 440.524 64.1224C436.067 66.7266 433.838 70.1735 433.838 74.4631C433.838 79.059 436.144 82.8122 440.755 85.7231C445.519 88.4805 453.665 90.9315 465.194 93.0764C485.637 96.9061 500.314 103.034 509.226 111.46C518.297 119.886 522.828 131.605 522.828 146.619C522.828 164.083 516.221 177.794 503.004 187.752C489.938 197.556 471.725 202.459 448.363 202.459C436.835 202.459 424.847 200.697 412.397 197.173C399.948 193.65 390.803 189.513 384.962 184.764L393.262 149.836Z" fill="white"/>
<path d="M590.55 201.999C576.103 201.999 564.346 198.628 555.275 191.888C546.208 184.994 541.673 174.041 541.673 159.027V108.702H518.85V76.5313H543.518V40.6831H582.249V76.5313H617.064V108.702H582.249V149.146C582.249 154.968 583.709 159.334 586.63 162.245C589.705 165.155 593.625 166.61 598.391 166.61C605.152 166.61 611.763 165.308 618.219 162.704L620.059 196.943C610.993 200.314 601.156 201.999 590.55 201.999Z" fill="white"/>
<path d="M678.742 202.459C668.135 202.459 658.529 199.701 649.923 194.186C641.316 188.518 634.551 180.781 629.635 170.977C624.714 161.019 622.259 149.912 622.259 137.656C622.259 125.401 624.714 114.371 629.635 104.566C634.551 94.6081 641.316 86.872 649.923 81.3569C658.529 75.6886 668.135 72.8542 678.742 72.8542C687.963 72.8542 696.109 74.8459 703.18 78.8293C710.247 82.8121 715.322 88.1741 718.393 94.9148V76.5313H758.969V198.782H718.393V180.398C716.397 187.139 711.787 192.501 704.561 196.484C697.339 200.467 688.729 202.459 678.742 202.459ZM664.675 137.656C664.675 146.695 667.135 154.125 672.056 159.947C676.972 165.615 683.428 168.449 691.419 168.449C699.415 168.449 705.866 165.615 710.787 159.947C715.857 154.125 718.393 146.695 718.393 137.656C718.393 128.618 715.857 121.265 710.787 115.596C705.866 109.775 699.415 106.864 691.419 106.864C683.428 106.864 676.972 109.698 672.056 115.367C667.135 121.034 664.675 128.465 664.675 137.656Z" fill="white"/>
<path d="M836.762 202.459C822.926 202.459 810.709 199.701 800.102 194.186C789.651 188.518 781.584 180.781 775.898 170.977C770.208 161.019 767.367 149.912 767.367 137.656C767.367 125.401 770.288 114.371 776.128 104.566C781.969 94.6081 790.111 86.872 800.562 81.3569C811.014 75.6886 822.926 72.8542 836.298 72.8542C849.67 72.8542 860.586 75.3053 869.037 80.2079C877.489 85.1101 883.559 90.9315 887.25 97.6722C891.091 104.413 893.166 110.924 893.476 117.205L854.745 127.316C853.665 121.801 851.439 117.358 848.059 113.987C844.829 110.464 840.373 108.702 834.687 108.702C828.076 108.702 822.466 111.383 817.855 116.745C813.399 121.954 811.169 128.924 811.169 137.656C811.169 146.542 813.784 153.589 819.01 158.798C824.386 164.006 831.612 166.61 840.678 166.61C847.289 166.61 853.59 165.385 859.586 162.934C865.577 160.33 871.037 156.883 875.953 152.593L888.175 184.305C882.179 189.973 874.803 194.416 866.041 197.633C857.431 200.85 847.674 202.459 836.762 202.459Z" fill="white"/>
<path d="M902.719 25.0571H943.295V116.745C950.211 113.528 957.437 108.09 964.968 100.43C972.654 92.6169 978.34 84.6507 982.03 76.5314H1028.83C1023.6 88.9399 1016.61 100.2 1007.85 110.311C999.088 120.269 989.407 128.541 978.8 135.129L1036.21 198.782H982.721L943.525 149.376H943.295V198.782H902.719V25.0571Z" fill="white"/>
<path d="M1117.21 55.6196C1111.67 52.7091 1104.43 51.7133 1097.82 51.7133C1092.28 51.7133 1088.13 53.0154 1085.37 55.6196C1082.6 58.2238 1081.22 62.054 1081.22 67.1093C1081.22 69.5604 1081.76 71.7818 1082.83 73.7735C1084.06 75.612 1085.29 76.5312 1086.52 76.5312H1117.21V108.702H1086.29V198.782H1045.71V108.702H1028.83V76.5312H1048.25C1046.87 76.5312 1045.41 74.6161 1043.87 70.786C1042.33 66.9562 1041.56 63.203 1041.56 59.5264C1041.56 46.9643 1045.79 36.8532 1054.24 29.1934C1062.85 21.5335 1071.01 17.7036 1085.92 17.7036C1096.67 17.7036 1110 21.05 1117.21 25.057V55.6196ZM1122.95 25.057H1163.98V198.782H1122.95V25.057Z" fill="white"/>
<path d="M1242.37 202.459C1229.3 202.459 1217.47 199.624 1206.87 193.956C1196.41 188.288 1188.11 180.552 1181.97 170.747C1175.97 160.789 1172.98 149.759 1172.98 137.656C1172.98 125.554 1175.97 114.6 1181.97 104.796C1188.11 94.8383 1196.41 87.0252 1206.87 81.3569C1217.47 75.6886 1229.3 72.8542 1242.37 72.8542C1255.28 72.8542 1266.96 75.6886 1277.41 81.3569C1288.02 87.0252 1296.32 94.8383 1302.31 104.796C1308.46 114.6 1311.54 125.554 1311.54 137.656C1311.54 149.759 1308.46 160.789 1302.31 170.747C1296.32 180.552 1288.02 188.288 1277.41 193.956C1266.96 199.624 1255.28 202.459 1242.37 202.459ZM1215.4 137.656C1215.4 146.542 1217.86 153.819 1222.77 159.487C1227.84 165.155 1234.38 167.99 1242.37 167.99C1250.21 167.99 1256.59 165.155 1261.5 159.487C1266.58 153.665 1269.11 146.389 1269.11 137.656C1269.11 128.771 1266.65 121.494 1261.73 115.826C1256.82 110.158 1250.36 107.323 1242.37 107.323C1234.38 107.323 1227.84 110.158 1222.77 115.826C1217.86 121.494 1215.4 128.771 1215.4 137.656Z" fill="white"/>
<path d="M1346.39 76.5312L1369.67 149.606L1392.72 76.5312H1425.92L1449.21 149.606L1472.26 76.5312H1513.3L1467.65 198.782H1430.53L1408.63 133.29L1386.73 198.782H1349.61L1303.5 76.5312H1346.39Z" fill="white"/>
</svg>
