<?xml version="1.0" encoding="UTF-8"?>
<svg width="1012px" height="337px" viewBox="0 0 1012 337" version="1.1" xmlns="http://www.w3.org/2000/svg" xmlns:xlink="http://www.w3.org/1999/xlink">
    <title>GitHub Cover - Tabs Copy</title>
    <g id="GitHub-Cover---Tabs-Copy" stroke="none" stroke-width="1" fill="none" fill-rule="evenodd">
        <rect fill="#F7F7F7" x="0" y="0" width="1012" height="337"></rect>
        <path d="M741.448923,173.195231 L741.448923,171.297231 L735.676923,171.297231 C730.762923,171.297231 727.538923,167.969231 727.538923,163.133231 L727.538923,161.833231 C727.538923,157.075231 730.840923,153.513231 735.780923,153.513231 C740.226923,153.513231 743.554923,156.373231 743.554923,160.871231 L743.554923,161.885231 C743.554923,164.667231 742.722923,166.253231 741.292923,166.253231 C740.434923,166.253231 739.992923,165.863231 739.992923,164.719231 L739.992923,157.179231 L737.730923,157.179231 L737.730923,158.947231 L737.600923,158.947231 C737.210923,157.829231 736.352923,156.945231 734.766923,156.945231 C732.400923,156.945231 730.476923,158.791231 730.476923,162.535231 C730.476923,166.279231 732.400923,168.125231 734.766923,168.125231 C736.352923,168.125231 737.366923,167.215231 737.886923,165.811231 L738.016923,165.811231 C738.146923,167.189231 739.160923,168.125231 740.902923,168.125231 C744.048923,168.125231 745.582923,165.343231 745.582923,161.521231 C745.582923,154.891231 741.136923,151.641231 735.806923,151.641231 C729.540923,151.641231 725.510923,156.139231 725.510923,162.535231 C725.510923,168.931231 729.436923,173.195231 735.650923,173.195231 L741.448923,173.195231 Z M735.442923,166.123231 C733.856923,166.123231 732.998923,165.083231 732.998923,163.523231 L732.998923,161.521231 C732.998923,159.961231 733.856923,158.921231 735.442923,158.921231 C736.872923,158.921231 737.730923,159.779231 737.730923,160.871231 L737.730923,163.991231 C737.730923,165.239231 736.872923,166.123231 735.442923,166.123231 Z M752.030923,170.049231 L752.030923,165.629231 L753.902923,163.601231 L757.776923,170.049231 L761.156923,170.049231 L755.852923,161.755231 L760.584923,156.529231 L757.282923,156.529231 L754.032923,160.195231 L752.160923,162.613231 L752.030923,162.613231 L752.030923,150.809231 L749.196923,150.809231 L749.196923,170.049231 L752.030923,170.049231 Z M766.798923,170.361231 C768.774923,170.361231 770.230923,169.477231 770.750923,167.787231 L770.880923,167.787231 C771.062923,169.113231 771.842923,170.049231 773.324923,170.049231 L774.910923,170.049231 L774.910923,167.735231 L773.480923,167.735231 L773.480923,160.949231 C773.480923,157.933231 771.530923,156.217231 768.046923,156.217231 C765.420923,156.217231 763.834923,157.335231 762.950923,158.843231 L764.640923,160.377231 C765.316923,159.311231 766.278923,158.531231 767.864923,158.531231 C769.762923,158.531231 770.646923,159.493231 770.646923,161.131231 L770.646923,162.275231 L768.202923,162.275231 C764.432923,162.275231 762.430923,163.653231 762.430923,166.331231 C762.430923,168.775231 764.016923,170.361231 766.798923,170.361231 Z M767.604923,168.203231 C766.200923,168.203231 765.316923,167.579231 765.316923,166.383231 L765.316923,165.915231 C765.316923,164.745231 766.278923,164.095231 768.254923,164.095231 L770.646923,164.095231 L770.646923,166.045231 C770.646923,167.371231 769.346923,168.203231 767.604923,168.203231 Z M780.526923,170.049231 L780.526923,161.417231 C780.526923,160.013231 781.774923,159.259231 784.010923,159.259231 L785.128923,159.259231 L785.128923,156.529231 L784.374923,156.529231 C782.216923,156.529231 781.046923,157.751231 780.656923,159.129231 L780.526923,159.129231 L780.526923,156.529231 L777.692923,156.529231 L777.692923,170.049231 L780.526923,170.049231 Z M790.484923,170.049231 L790.484923,161.417231 C790.484923,160.013231 791.732923,159.259231 793.968923,159.259231 L795.086923,159.259231 L795.086923,156.529231 L794.332923,156.529231 C792.174923,156.529231 791.004923,157.751231 790.614923,159.129231 L790.484923,159.129231 L790.484923,156.529231 L787.650923,156.529231 L787.650923,170.049231 L790.484923,170.049231 Z M802.912923,170.361231 C806.682923,170.361231 809.126923,167.605231 809.126923,163.289231 C809.126923,158.973231 806.682923,156.217231 802.912923,156.217231 C799.142923,156.217231 796.698923,158.973231 796.698923,163.289231 C796.698923,167.605231 799.142923,170.361231 802.912923,170.361231 Z M802.912923,168.021231 C800.988923,168.021231 799.688923,166.825231 799.688923,164.433231 L799.688923,162.145231 C799.688923,159.753231 800.988923,158.557231 802.912923,158.557231 C804.836923,158.557231 806.136923,159.753231 806.136923,162.145231 L806.136923,164.433231 C806.136923,166.825231 804.836923,168.021231 802.912923,168.021231 Z M818.486923,170.049231 L818.486923,167.735231 L815.860923,167.735231 L815.860923,158.843231 L818.694923,158.843231 L818.694923,156.529231 L815.860923,156.529231 L815.860923,152.837231 L813.312923,152.837231 L813.312923,155.203231 C813.312923,156.139231 813.000923,156.529231 812.064923,156.529231 L810.920923,156.529231 L810.920923,158.843231 L813.026923,158.843231 L813.026923,167.111231 C813.026923,168.957231 814.066923,170.049231 816.016923,170.049231 L818.486923,170.049231 Z M825.298923,170.049231 L825.298923,158.843231 L828.132923,158.843231 L828.132923,156.529231 L825.298923,156.529231 L825.298923,153.123231 L828.132923,153.123231 L828.132923,150.809231 L825.896923,150.809231 C823.634923,150.809231 822.464923,152.109231 822.464923,154.293231 L822.464923,156.529231 L820.410923,156.529231 L820.410923,158.843231 L822.464923,158.843231 L822.464923,170.049231 L825.298923,170.049231 Z M833.436923,170.049231 L833.436923,161.417231 C833.436923,160.013231 834.684923,159.259231 836.920923,159.259231 L838.038923,159.259231 L838.038923,156.529231 L837.284923,156.529231 C835.126923,156.529231 833.956923,157.751231 833.566923,159.129231 L833.436923,159.129231 L833.436923,156.529231 L830.602923,156.529231 L830.602923,170.049231 L833.436923,170.049231 Z M843.940923,170.361231 C845.916923,170.361231 847.372923,169.477231 847.892923,167.787231 L848.022923,167.787231 C848.204923,169.113231 848.984923,170.049231 850.466923,170.049231 L852.052923,170.049231 L852.052923,167.735231 L850.622923,167.735231 L850.622923,160.949231 C850.622923,157.933231 848.672923,156.217231 845.188923,156.217231 C842.562923,156.217231 840.976923,157.335231 840.092923,158.843231 L841.782923,160.377231 C842.458923,159.311231 843.420923,158.531231 845.006923,158.531231 C846.904923,158.531231 847.788923,159.493231 847.788923,161.131231 L847.788923,162.275231 L845.344923,162.275231 C841.574923,162.275231 839.572923,163.653231 839.572923,166.331231 C839.572923,168.775231 841.158923,170.361231 843.940923,170.361231 Z M844.746923,168.203231 C843.342923,168.203231 842.458923,167.579231 842.458923,166.383231 L842.458923,165.915231 C842.458923,164.745231 843.420923,164.095231 845.396923,164.095231 L847.788923,164.095231 L847.788923,166.045231 C847.788923,167.371231 846.488923,168.203231 844.746923,168.203231 Z M857.668923,170.049231 L857.668923,160.975231 C857.668923,159.415231 859.046923,158.661231 860.450923,158.661231 C862.114923,158.661231 862.920923,159.701231 862.920923,161.807231 L862.920923,170.049231 L865.754923,170.049231 L865.754923,160.975231 C865.754923,159.415231 867.080923,158.661231 868.510923,158.661231 C870.226923,158.661231 871.006923,159.727231 871.006923,161.807231 L871.006923,170.049231 L873.840923,170.049231 L873.840923,161.469231 C873.840923,158.141231 872.254923,156.217231 869.576923,156.217231 C867.392923,156.217231 865.988923,157.465231 865.494923,158.973231 L865.416923,158.973231 C864.766923,157.101231 863.232923,156.217231 861.412923,156.217231 C859.358923,156.217231 858.344923,157.361231 857.798923,158.765231 L857.668923,158.765231 L857.668923,156.529231 L854.834923,156.529231 L854.834923,170.049231 L857.668923,170.049231 Z M883.070923,170.361231 C885.592923,170.361231 887.568923,169.269231 888.582923,167.631231 L886.918923,165.993231 C886.138923,167.241231 885.020923,168.021231 883.356923,168.021231 C881.068923,168.021231 879.794923,166.539231 879.794923,164.459231 L879.794923,164.017231 L889.076923,164.017231 L889.076923,162.951231 C889.076923,159.207231 887.048923,156.217231 883.070923,156.217231 C879.222923,156.217231 876.856923,158.973231 876.856923,163.289231 C876.856923,167.605231 879.222923,170.361231 883.070923,170.361231 Z M886.086923,162.145231 L879.794923,162.145231 L879.794923,161.963231 C879.794923,159.883231 881.120923,158.427231 883.070923,158.427231 C884.942923,158.427231 886.086923,159.805231 886.086923,161.885231 L886.086923,162.145231 Z M892.820923,173.975231 L900.022923,150.809231 L897.578923,150.809231 L890.376923,173.975231 L892.820923,173.975231 Z M909.278923,170.049231 L909.278923,167.735231 L906.652923,167.735231 L906.652923,158.843231 L909.486923,158.843231 L909.486923,156.529231 L906.652923,156.529231 L906.652923,152.837231 L904.104923,152.837231 L904.104923,155.203231 C904.104923,156.139231 903.792923,156.529231 902.856923,156.529231 L901.712923,156.529231 L901.712923,158.843231 L903.818923,158.843231 L903.818923,167.111231 C903.818923,168.957231 904.858923,170.049231 906.808923,170.049231 L909.278923,170.049231 Z M915.934923,170.361231 C917.910923,170.361231 919.366923,169.477231 919.886923,167.787231 L920.016923,167.787231 C920.198923,169.113231 920.978923,170.049231 922.460923,170.049231 L924.046923,170.049231 L924.046923,167.735231 L922.616923,167.735231 L922.616923,160.949231 C922.616923,157.933231 920.666923,156.217231 917.182923,156.217231 C914.556923,156.217231 912.970923,157.335231 912.086923,158.843231 L913.776923,160.377231 C914.452923,159.311231 915.414923,158.531231 917.000923,158.531231 C918.898923,158.531231 919.782923,159.493231 919.782923,161.131231 L919.782923,162.275231 L917.338923,162.275231 C913.568923,162.275231 911.566923,163.653231 911.566923,166.331231 C911.566923,168.775231 913.152923,170.361231 915.934923,170.361231 Z M916.740923,168.203231 C915.336923,168.203231 914.452923,167.579231 914.452923,166.383231 L914.452923,165.915231 C914.452923,164.745231 915.414923,164.095231 917.390923,164.095231 L919.782923,164.095231 L919.782923,166.045231 C919.782923,167.371231 918.482923,168.203231 916.740923,168.203231 Z M933.588923,170.361231 C936.994923,170.361231 938.970923,167.735231 938.970923,163.289231 C938.970923,158.843231 936.994923,156.217231 933.588923,156.217231 C931.794923,156.217231 930.364923,157.153231 929.792923,158.765231 L929.662923,158.765231 L929.662923,150.809231 L926.828923,150.809231 L926.828923,170.049231 L929.662923,170.049231 L929.662923,167.813231 L929.792923,167.813231 C930.364923,169.399231 931.794923,170.361231 933.588923,170.361231 Z M932.730923,167.917231 C931.014923,167.917231 929.662923,166.981231 929.662923,165.603231 L929.662923,160.975231 C929.662923,159.597231 931.014923,158.661231 932.730923,158.661231 C934.680923,158.661231 935.980923,160.039231 935.980923,162.119231 L935.980923,164.459231 C935.980923,166.539231 934.680923,167.917231 932.730923,167.917231 Z M946.510923,170.361231 C949.760923,170.361231 951.866923,168.619231 951.866923,166.019231 C951.866923,163.835231 950.540923,162.535231 947.576923,162.093231 L946.328923,161.937231 C944.898923,161.703231 944.248923,161.235231 944.248923,160.195231 C944.248923,159.181231 944.976923,158.505231 946.536923,158.505231 C947.992923,158.505231 949.136923,159.207231 949.838923,160.039231 L951.580923,158.375231 C950.358923,157.023231 948.980923,156.217231 946.536923,156.217231 C943.572923,156.217231 941.518923,157.751231 941.518923,160.377231 C941.518923,162.873231 943.208923,164.069231 945.964923,164.407231 L947.212923,164.563231 C948.616923,164.745231 949.136923,165.395231 949.136923,166.253231 C949.136923,167.397231 948.304923,168.073231 946.666923,168.073231 C945.054923,168.073231 943.832923,167.345231 942.844923,166.149231 L941.024923,167.813231 C942.298923,169.399231 943.962923,170.361231 946.510923,170.361231 Z" id="@karrotframe/tabs" fill="#000000" fill-rule="nonzero"></path>
        <path d="M844.541923,195.229231 C846.941923,195.229231 848.336923,193.924231 848.336923,191.974231 C848.336923,190.309231 847.391923,189.379231 845.306923,188.974231 L844.376923,188.779231 C843.251923,188.554231 842.711923,188.179231 842.711923,187.309231 C842.711923,186.394231 843.401923,185.899231 844.601923,185.899231 C845.756923,185.899231 846.506923,186.349231 847.046923,187.054231 L848.231923,186.004231 C847.421923,184.969231 846.266923,184.399231 844.691923,184.399231 C842.471923,184.399231 841.031923,185.539231 841.031923,187.399231 C841.031923,189.064231 842.066923,190.009231 844.091923,190.384231 L845.021923,190.549231 C846.236923,190.789231 846.656923,191.254231 846.656923,192.064231 C846.656923,193.069231 845.966923,193.729231 844.631923,193.729231 C843.491923,193.729231 842.621923,193.264231 841.886923,192.364231 L840.716923,193.459231 C841.586923,194.539231 842.786923,195.229231 844.541923,195.229231 Z M853.406923,195.049231 L854.441923,191.494231 L855.056923,189.304231 L855.086923,189.304231 L855.716923,191.494231 L856.736923,195.049231 L858.581923,195.049231 L860.681923,187.249231 L859.166923,187.249231 L858.356923,190.519231 L857.666923,193.474231 L857.621923,193.474231 L856.796923,190.519231 L855.836923,187.249231 L854.366923,187.249231 L853.421923,190.519231 L852.611923,193.474231 L852.566923,193.474231 L851.861923,190.519231 L851.066923,187.249231 L849.476923,187.249231 L851.606923,195.049231 L853.406923,195.049231 Z M863.066923,185.854231 C863.741923,185.854231 864.026923,185.494231 864.026923,184.999231 L864.026923,184.744231 C864.026923,184.249231 863.741923,183.889231 863.066923,183.889231 C862.391923,183.889231 862.091923,184.249231 862.091923,184.744231 L862.091923,184.999231 C862.091923,185.494231 862.391923,185.854231 863.066923,185.854231 Z M863.876923,195.049231 L863.876923,187.249231 L862.241923,187.249231 L862.241923,195.049231 L863.876923,195.049231 Z M867.851923,198.049231 L867.851923,193.759231 L867.926923,193.759231 C868.256923,194.674231 869.081923,195.229231 870.116923,195.229231 C872.081923,195.229231 873.221923,193.714231 873.221923,191.149231 C873.221923,188.584231 872.081923,187.069231 870.116923,187.069231 C869.081923,187.069231 868.256923,187.609231 867.926923,188.539231 L867.851923,188.539231 L867.851923,187.249231 L866.216923,187.249231 L866.216923,198.049231 L867.851923,198.049231 Z M869.621923,193.819231 C868.631923,193.819231 867.851923,193.279231 867.851923,192.484231 L867.851923,189.814231 C867.851923,189.019231 868.631923,188.479231 869.621923,188.479231 C870.746923,188.479231 871.496923,189.274231 871.496923,190.474231 L871.496923,191.824231 C871.496923,193.024231 870.746923,193.819231 869.621923,193.819231 Z M877.046923,195.229231 C878.186923,195.229231 879.026923,194.719231 879.326923,193.744231 L879.401923,193.744231 C879.506923,194.509231 879.956923,195.049231 880.811923,195.049231 L881.726923,195.049231 L881.726923,193.714231 L880.901923,193.714231 L880.901923,189.799231 C880.901923,188.059231 879.776923,187.069231 877.766923,187.069231 C876.251923,187.069231 875.336923,187.714231 874.826923,188.584231 L875.801923,189.469231 C876.191923,188.854231 876.746923,188.404231 877.661923,188.404231 C878.756923,188.404231 879.266923,188.959231 879.266923,189.904231 L879.266923,190.564231 L877.856923,190.564231 C875.681923,190.564231 874.526923,191.359231 874.526923,192.904231 C874.526923,194.314231 875.441923,195.229231 877.046923,195.229231 Z M877.511923,193.984231 C876.701923,193.984231 876.191923,193.624231 876.191923,192.934231 L876.191923,192.664231 C876.191923,191.989231 876.746923,191.614231 877.886923,191.614231 L879.266923,191.614231 L879.266923,192.739231 C879.266923,193.504231 878.516923,193.984231 877.511923,193.984231 Z M887.231923,195.229231 C889.196923,195.229231 890.336923,193.714231 890.336923,191.149231 C890.336923,188.584231 889.196923,187.069231 887.231923,187.069231 C886.196923,187.069231 885.371923,187.609231 885.041923,188.539231 L884.966923,188.539231 L884.966923,183.949231 L883.331923,183.949231 L883.331923,195.049231 L884.966923,195.049231 L884.966923,193.759231 L885.041923,193.759231 C885.371923,194.674231 886.196923,195.229231 887.231923,195.229231 Z M886.736923,193.819231 C885.746923,193.819231 884.966923,193.279231 884.966923,192.484231 L884.966923,189.814231 C884.966923,189.019231 885.746923,188.479231 886.736923,188.479231 C887.861923,188.479231 888.611923,189.274231 888.611923,190.474231 L888.611923,191.824231 C888.611923,193.024231 887.861923,193.819231 886.736923,193.819231 Z M894.926923,195.049231 L894.926923,193.714231 L893.846923,193.714231 L893.846923,183.949231 L892.211923,183.949231 L892.211923,193.429231 C892.211923,194.434231 892.766923,195.049231 893.876923,195.049231 L894.926923,195.049231 Z M899.546923,195.229231 C901.001923,195.229231 902.141923,194.599231 902.726923,193.654231 L901.766923,192.709231 C901.316923,193.429231 900.671923,193.879231 899.711923,193.879231 C898.391923,193.879231 897.656923,193.024231 897.656923,191.824231 L897.656923,191.569231 L903.011923,191.569231 L903.011923,190.954231 C903.011923,188.794231 901.841923,187.069231 899.546923,187.069231 C897.326923,187.069231 895.961923,188.659231 895.961923,191.149231 C895.961923,193.639231 897.326923,195.229231 899.546923,195.229231 Z M901.286923,190.489231 L897.656923,190.489231 L897.656923,190.384231 C897.656923,189.184231 898.421923,188.344231 899.546923,188.344231 C900.626923,188.344231 901.286923,189.139231 901.286923,190.339231 L901.286923,190.489231 Z M912.371923,195.049231 L912.371923,186.079231 L915.491923,186.079231 L915.491923,184.579231 L907.556923,184.579231 L907.556923,186.079231 L910.676923,186.079231 L910.676923,195.049231 L912.371923,195.049231 Z M918.971923,195.229231 C920.111923,195.229231 920.951923,194.719231 921.251923,193.744231 L921.326923,193.744231 C921.431923,194.509231 921.881923,195.049231 922.736923,195.049231 L923.651923,195.049231 L923.651923,193.714231 L922.826923,193.714231 L922.826923,189.799231 C922.826923,188.059231 921.701923,187.069231 919.691923,187.069231 C918.176923,187.069231 917.261923,187.714231 916.751923,188.584231 L917.726923,189.469231 C918.116923,188.854231 918.671923,188.404231 919.586923,188.404231 C920.681923,188.404231 921.191923,188.959231 921.191923,189.904231 L921.191923,190.564231 L919.781923,190.564231 C917.606923,190.564231 916.451923,191.359231 916.451923,192.904231 C916.451923,194.314231 917.366923,195.229231 918.971923,195.229231 Z M919.436923,193.984231 C918.626923,193.984231 918.116923,193.624231 918.116923,192.934231 L918.116923,192.664231 C918.116923,191.989231 918.671923,191.614231 919.811923,191.614231 L921.191923,191.614231 L921.191923,192.739231 C921.191923,193.504231 920.441923,193.984231 919.436923,193.984231 Z M929.156923,195.229231 C931.121923,195.229231 932.261923,193.714231 932.261923,191.149231 C932.261923,188.584231 931.121923,187.069231 929.156923,187.069231 C928.121923,187.069231 927.296923,187.609231 926.966923,188.539231 L926.891923,188.539231 L926.891923,183.949231 L925.256923,183.949231 L925.256923,195.049231 L926.891923,195.049231 L926.891923,193.759231 L926.966923,193.759231 C927.296923,194.674231 928.121923,195.229231 929.156923,195.229231 Z M928.661923,193.819231 C927.671923,193.819231 926.891923,193.279231 926.891923,192.484231 L926.891923,189.814231 C926.891923,189.019231 927.671923,188.479231 928.661923,188.479231 C929.786923,188.479231 930.536923,189.274231 930.536923,190.474231 L930.536923,191.824231 C930.536923,193.024231 929.786923,193.819231 928.661923,193.819231 Z M941.651923,195.229231 C944.516923,195.229231 945.566923,193.819231 945.566923,190.759231 L945.566923,184.579231 L943.901923,184.579231 L943.901923,191.029231 C943.901923,192.799231 943.286923,193.714231 941.651923,193.714231 C940.016923,193.714231 939.401923,192.799231 939.401923,191.029231 L939.401923,184.579231 L937.736923,184.579231 L937.736923,190.759231 C937.736923,193.819231 938.786923,195.229231 941.651923,195.229231 Z M952.196923,195.049231 L952.196923,193.669231 L950.756923,193.669231 L950.756923,185.959231 L952.196923,185.959231 L952.196923,184.579231 L947.636923,184.579231 L947.636923,185.959231 L949.061923,185.959231 L949.061923,193.669231 L947.636923,193.669231 L947.636923,195.049231 L952.196923,195.049231 Z" id="SwipableTabUI" fill="#000000" fill-rule="nonzero"></path>
        <g id="Screen-3" transform="translate(434.381538, 56.049231)">
            <g id="ic_window_close_outline_s" transform="translate(119.883077, 10.898462)"></g>
            <rect id="Rectangle" stroke="#DEE2E6" fill-opacity="0.7" fill="#FFFFFF" x="-0.5" y="-0.5" width="145.793846" height="225.196923" rx="8"></rect>
            <path d="M8,0 L136.793846,0 C141.212124,-8.11624501e-16 144.793846,3.581722 144.793846,8 L144.793846,56 L144.793846,56 L0,56 L0,8 C-5.41083001e-16,3.581722 3.581722,8.11624501e-16 8,0 Z" id="Rectangle" fill="#FFFFFF"></path>
            <g id="Group" transform="translate(0.000000, 39.000000)">
                <rect id="Rectangle" fill="#DEE2E6" x="0" y="17" width="145" height="1"></rect>
                <rect id="Rectangle" fill="#212429" x="0" y="17" width="48" height="1"></rect>
                <text id="Tab-1" font-family="IBMPlexSans-Medium, IBM Plex Sans" font-size="9" font-weight="400" fill="#000000">
                    <tspan x="12.1623846" y="9">Tab 1</tspan>
                </text>
                <text id="Tab-2" font-family="IBMPlexSans-Medium, IBM Plex Sans" font-size="9" font-weight="400" fill="#ADB5BD">
                    <tspan x="60.507" y="9">Tab 2</tspan>
                </text>
                <text id="Tab-3" font-family="IBMPlexSans-Medium, IBM Plex Sans" font-size="9" font-weight="400" fill="#ADB5BD">
                    <tspan x="108.507" y="9">Tab 3</tspan>
                </text>
            </g>
            <path d="M121.779713,11.8042872 C121.506109,11.5306688 121.062507,11.5306688 120.788903,11.8042872 C120.515284,12.0778915 120.515284,12.5214931 120.788903,12.7950974 L125.898406,17.9046154 L120.788903,23.0140633 C120.515284,23.2877236 120.515284,23.7313533 120.788903,24.0050137 C121.062507,24.2785339 121.506109,24.2785339 121.779713,24.0050137 L126.889231,18.8954397 L131.998679,24.0050137 C132.272339,24.2785339 132.715969,24.2785339 132.989629,24.0050137 C133.263149,23.7313533 133.263149,23.2877236 132.989629,23.0140633 L127.880055,17.9046154 L132.989629,12.7950974 C133.263149,12.5214931 133.263149,12.0778915 132.989629,11.8042872 C132.715969,11.5306688 132.272339,11.5306688 131.998679,11.8042872 L126.889231,16.9137911 L121.779713,11.8042872 Z" id="Path" fill="#212529" fill-rule="nonzero"></path>
            <g id="Group" transform="translate(49.821538, 102.301538)" fill-rule="nonzero">
                <g id="Group">
                    <path d="M22.5051501,11.5217585 C10.2542414,11.5217585 0.331105641,21.4390947 0.331105641,33.6828433 C0.331105641,38.816995 2.09700239,43.5299859 5.02678564,47.290351 C5.25755624,47.5711249 5.47829333,47.8619265 5.71909744,48.1427004 C6.07027009,48.543806 6.42144274,48.9549392 6.8027159,49.3259619 C6.8127494,49.3359896 6.82278291,49.3460172 6.83281641,49.3560449 C11.0669552,53.8484276 16.43488,57.2778806 22.5051501,59.1129387 C28.5754202,57.2678529 33.943345,53.8484276 38.1774838,49.3560449 C38.1875173,49.3460172 38.1975508,49.3359896 38.2075843,49.3259619 C38.5888574,48.9449116 38.9400301,48.543806 39.2912027,48.1427004 C39.5320068,47.8619265 39.7527439,47.5811525 39.9835145,47.290351 C42.9132978,43.5299859 44.6791945,38.816995 44.6791945,33.6828433 C44.6791945,21.4390947 34.7560588,11.5217585 22.5051501,11.5217585 Z M22.5051501,42.1561992 C17.8195036,42.1561992 14.026839,38.3657512 14.026839,33.6828433 C14.026839,28.9999353 17.8195036,25.2094874 22.5051501,25.2094874 C27.1907966,25.2094874 30.9834612,28.9999353 30.9834612,33.6828433 C30.9834612,38.3657512 27.1907966,42.1561992 22.5051501,42.1561992 Z" id="Shape" fill="#FF8A3D"></path>
                    <path d="M29.7292732,11.0504595 C31.1941648,10.729575 32.2978503,9.42598175 32.2978503,7.87169752 C32.2978503,6.07674993 30.8329586,4.61271447 29.0369614,4.61271447 C28.5352862,4.61271447 28.0637115,4.73304615 27.6322708,4.9436266 C27.1707296,2.52696532 25.0636937,0.701934811 22.5151836,0.701934811 C19.9666735,0.701934811 17.8496041,2.52696532 17.3980964,4.9436266 C16.9766892,4.74307379 16.495081,4.61271447 15.9934058,4.61271447 C14.1974085,4.61271447 12.7325169,6.07674993 12.7325169,7.87169752 C12.7325169,9.43600939 13.8261689,10.729575 15.301094,11.0504595 C17.568666,10.2683035 19.9867405,9.82708735 22.5151836,9.82708735 C25.0436267,9.82708735 27.4617012,10.2683035 29.7292732,11.0504595 Z" id="Path" fill="#56C271"></path>
                </g>
            </g>
        </g>
        <g id="Screen-2" transform="translate(238.209231, 56.049231)">
            <rect id="Rectangle" stroke="#DEE2E6" fill-opacity="0.7" fill="#FFFFFF" x="-0.5" y="-0.5" width="145.793846" height="225.196923" rx="8"></rect>
            <path d="M8,0 L136.793846,0 C141.212124,-8.11624501e-16 144.793846,3.581722 144.793846,8 L144.793846,35.8092308 L144.793846,35.8092308 L0,35.8092308 L0,8 C-5.41083001e-16,3.581722 3.581722,8.11624501e-16 8,0 Z" id="Rectangle" fill="#FFFFFF"></path>
            <g id="ic_window_close_outline_s" transform="translate(119.883077, 10.898462)" fill="#212529" fill-rule="nonzero">
                <path d="M1.89663591,0.905825631 C1.62303159,0.632207298 1.17942995,0.632207298 0.905825631,0.905825631 C0.632207298,1.17942995 0.632207298,1.62303159 0.905825631,1.89663591 L6.01532956,7.00615385 L0.905825631,12.1156017 C0.632207298,12.3892621 0.632207298,12.8328918 0.905825631,13.1065521 C1.17942995,13.3800724 1.62303159,13.3800724 1.89663591,13.1065521 L7.00615385,7.99697814 L12.1156017,13.1065521 C12.3892621,13.3800724 12.8328918,13.3800724 13.1065521,13.1065521 C13.3800724,12.8328918 13.3800724,12.3892621 13.1065521,12.1156017 L7.99697814,7.00615385 L13.1065521,1.89663591 C13.3800724,1.62303159 13.3800724,1.17942995 13.1065521,0.905825631 C12.8328918,0.632207298 12.3892621,0.632207298 12.1156017,0.905825631 L7.00615385,6.01532956 L1.89663591,0.905825631 Z" id="Path"></path>
            </g>
        </g>
        <g id="Screen-1" transform="translate(42.036923, 56.049231)" fill="#FFFFFF">
            <rect id="Rectangle" stroke="#DEE2E6" fill-opacity="0.7" x="-0.5" y="-0.5" width="145.793846" height="225.196923" rx="8"></rect>
            <path d="M8,0 L136.793846,0 C141.212124,-8.11624501e-16 144.793846,3.581722 144.793846,8 L144.793846,35.8092308 L144.793846,35.8092308 L0,35.8092308 L0,8 C-5.41083001e-16,3.581722 3.581722,8.11624501e-16 8,0 Z" id="Rectangle"></path>
        </g>
    </g>
</svg>